STARTFONT 2.1
FONT -Adobe-New Century Schoolbook-Medium-I-Normal--24-240-75-75-P-136-ISO10646-1
SIZE 24 75 75
FONTBOUNDINGBOX 31 39 -4 -11
COMMENT $Xorg: $
COMMENT ISO10646-1 extension by Markus Kuhn <mkuhn@acm.org>, 2001-03-20
COMMENT 
COMMENT +
COMMENT  Copyright 1984-1989, 1994 Adobe Systems Incorporated.
COMMENT  Copyright 1988, 1994 Digital Equipment Corporation.
COMMENT
COMMENT  Adobe is a trademark of Adobe Systems Incorporated which may be
COMMENT  registered in certain jurisdictions.
COMMENT  Permission to use these trademarks is hereby granted only in
COMMENT  association with the images described in this file.
COMMENT
COMMENT  Permission to use, copy, modify, distribute and sell this software
COMMENT  and its documentation for any purpose and without fee is hereby
COMMENT  granted, provided that the above copyright notices appear in all
COMMENT  copies and that both those copyright notices and this permission
COMMENT  notice appear in supporting documentation, and that the names of
COMMENT  Adobe Systems and Digital Equipment Corporation not be used in
COMMENT  advertising or publicity pertaining to distribution of the software
COMMENT  without specific, written prior permission.  Adobe Systems and
COMMENT  Digital Equipment Corporation make no representations about the
COMMENT  suitability of this software for any purpose.  It is provided "as
COMMENT  is" without express or implied warranty.
COMMENT -
STARTPROPERTIES 26
FOUNDRY "Adobe"
FAMILY_NAME "New Century Schoolbook"
WEIGHT_NAME "Medium"
SLANT "I"
SETWIDTH_NAME "Normal"
ADD_STYLE_NAME ""
PIXEL_SIZE 24
POINT_SIZE 240
RESOLUTION_X 75
RESOLUTION_Y 75
SPACING "P"
AVERAGE_WIDTH 136
CHARSET_REGISTRY "ISO10646"
CHARSET_ENCODING "1"
CAP_HEIGHT 18
X_HEIGHT 12
FONT_ASCENT 21
FONT_DESCENT 5
FACE_NAME "New Century Schoolbook Italic"
COPYRIGHT "Copyright (c) 1984, 1987 Adobe Systems Incorporated. All Rights Reserved. Copyright (c) 1988, 1991 Digital Equipment Corporation. All Rights Reserved."

STARTCHAR char0
ENCODING 0
SWIDTH 833 0
DWIDTH 21 0
BBX 19 17 1 0
BITMAP
AAAAA0
000000
800020
000000
800020
000000
800020
000000
800020
000000
800020
000000
800020
000000
800020
000000
AAAAA0
ENDCHAR
STARTCHAR space
ENCODING 32
SWIDTH 278 0
DWIDTH 7 0
BBX 1 1 0 0
BITMAP
00
ENDCHAR
STARTCHAR exclam
ENCODING 33
SWIDTH 333 0
DWIDTH 7 0
BBX 6 18 0 0
BITMAP
0C
0C
0C
0C
18
18
18
18
30
30
30
20
20
00
00
C0
C0
C0
ENDCHAR
STARTCHAR quotedbl
ENCODING 34
SWIDTH 400 0
DWIDTH 8 0
BBX 5 6 2 12
BITMAP
D8
D8
D8
90
90
90
ENDCHAR
STARTCHAR numbersign
ENCODING 35
SWIDTH 606 0
DWIDTH 15 0
BBX 13 16 1 1
BITMAP
0440
0440
0440
0440
0440
7FF8
0880
0880
0880
0880
FFF0
1100
1100
1100
1100
1100
ENDCHAR
STARTCHAR dollar
ENCODING 36
SWIDTH 556 0
DWIDTH 13 0
BBX 12 22 0 -2
BITMAP
0080
0080
07E0
1D30
1970
3160
3200
3200
1A00
1E00
0F80
03C0
02C0
0260
0260
6460
E460
C4C0
65C0
3F00
0800
0800
ENDCHAR
STARTCHAR percent
ENCODING 37
SWIDTH 833 0
DWIDTH 19 0
BBX 17 18 1 0
BITMAP
0E3800
31C800
611800
611000
C13000
C22000
C26000
444000
38C000
008700
019880
013080
033080
026080
066100
046100
0C2200
081C00
ENDCHAR
STARTCHAR ampersand
ENCODING 38
SWIDTH 852 0
DWIDTH 19 0
BBX 17 18 1 0
BITMAP
01F000
031800
061800
061800
063000
066000
038000
070000
1B1F80
718600
618400
C0C400
C0C800
C06800
C07000
C07080
61B900
3E1E00
ENDCHAR
STARTCHAR quotesingle
ENCODING 39
SWIDTH 278 0
DWIDTH 5 0
BBX 1 6 2 12
BITMAP
80
80
80
80
80
80
ENDCHAR
STARTCHAR parenleft
ENCODING 40
SWIDTH 333 0
DWIDTH 8 0
BBX 8 20 0 -2
BITMAP
03
06
0C
18
30
30
60
60
60
C0
C0
C0
C0
C0
C0
60
60
60
30
18
ENDCHAR
STARTCHAR parenright
ENCODING 41
SWIDTH 333 0
DWIDTH 8 0
BBX 8 20 0 -2
BITMAP
18
0C
06
06
06
03
03
03
03
03
03
06
06
06
0C
0C
18
30
60
C0
ENDCHAR
STARTCHAR asterisk
ENCODING 42
SWIDTH 500 0
DWIDTH 11 0
BBX 9 11 1 7
BITMAP
0C00
0C00
C980
C980
2A00
1C00
2A00
C980
C980
1800
1800
ENDCHAR
STARTCHAR plus
ENCODING 43
SWIDTH 606 0
DWIDTH 13 0
BBX 11 11 1 2
BITMAP
0400
0400
0400
0400
0400
FFE0
0400
0400
0400
0400
0400
ENDCHAR
STARTCHAR comma
ENCODING 44
SWIDTH 278 0
DWIDTH 4 0
BBX 4 6 -1 -3
BITMAP
60
70
30
20
40
80
ENDCHAR
STARTCHAR hyphen
ENCODING 45
SWIDTH 333 0
DWIDTH 7 0
BBX 5 2 1 6
BITMAP
F8
F8
ENDCHAR
STARTCHAR period
ENCODING 46
SWIDTH 278 0
DWIDTH 4 0
BBX 2 3 0 0
BITMAP
C0
C0
C0
ENDCHAR
STARTCHAR slash
ENCODING 47
SWIDTH 606 0
DWIDTH 14 0
BBX 8 19 3 -1
BITMAP
03
02
02
06
04
04
0C
08
08
18
10
10
30
20
20
60
40
40
C0
ENDCHAR
STARTCHAR zero
ENCODING 48
SWIDTH 556 0
DWIDTH 13 0
BBX 11 18 1 0
BITMAP
0380
0CC0
1860
3060
3060
6060
6060
6060
C060
C060
C0C0
C0C0
C0C0
C180
C180
C300
6600
3800
ENDCHAR
STARTCHAR one
ENCODING 49
SWIDTH 556 0
DWIDTH 13 0
BBX 8 18 2 0
BITMAP
03
07
3F
03
06
06
06
06
0C
0C
0C
0C
0C
18
18
18
18
FF
ENDCHAR
STARTCHAR two
ENCODING 50
SWIDTH 556 0
DWIDTH 13 0
BBX 12 18 0 0
BITMAP
07C0
1860
3030
3030
3830
1830
0060
0060
00C0
0180
0300
0600
0C00
1820
3020
6040
FFC0
FFC0
ENDCHAR
STARTCHAR three
ENCODING 51
SWIDTH 556 0
DWIDTH 13 0
BBX 11 18 1 0
BITMAP
0780
18C0
3060
3860
1860
0060
00C0
0180
0F00
0180
00C0
00C0
00C0
60C0
E180
C180
4300
3C00
ENDCHAR
STARTCHAR four
ENCODING 52
SWIDTH 556 0
DWIDTH 13 0
BBX 11 18 1 0
BITMAP
0060
00E0
0160
0160
0260
04C0
08C0
08C0
10C0
2180
4180
4180
8180
FFE0
0300
0300
0300
0FC0
ENDCHAR
STARTCHAR five
ENCODING 53
SWIDTH 556 0
DWIDTH 13 0
BBX 12 18 0 0
BITMAP
0FF0
0FE0
0800
0800
1000
1000
1000
1F80
30C0
2060
0060
0060
0060
6060
E0C0
C0C0
4380
3E00
ENDCHAR
STARTCHAR six
ENCODING 54
SWIDTH 556 0
DWIDTH 13 0
BBX 11 18 1 0
BITMAP
03C0
0C60
1860
3060
3000
6000
6000
6F80
D0C0
E060
C060
C060
C060
C0C0
C0C0
C180
6300
3C00
ENDCHAR
STARTCHAR seven
ENCODING 55
SWIDTH 556 0
DWIDTH 13 0
BBX 11 18 2 0
BITMAP
7FE0
7FE0
4040
80C0
8080
0180
0100
0300
0200
0600
0400
0C00
0800
1800
1000
3000
3000
3000
ENDCHAR
STARTCHAR eight
ENCODING 56
SWIDTH 556 0
DWIDTH 13 0
BBX 11 18 1 0
BITMAP
0F80
1840
3020
3020
3020
3040
18C0
1F80
3F00
6380
4180
C0C0
80C0
80C0
80C0
8180
4380
3E00
ENDCHAR
STARTCHAR nine
ENCODING 57
SWIDTH 556 0
DWIDTH 13 0
BBX 11 18 1 0
BITMAP
0780
18C0
3060
6060
6060
C060
C060
C060
C0E0
6160
3EC0
00C0
00C0
0180
C180
C300
C600
7800
ENDCHAR
STARTCHAR colon
ENCODING 58
SWIDTH 278 0
DWIDTH 5 0
BBX 4 12 0 0
BITMAP
30
30
30
00
00
00
00
00
00
C0
C0
C0
ENDCHAR
STARTCHAR semicolon
ENCODING 59
SWIDTH 278 0
DWIDTH 5 0
BBX 5 15 -1 -3
BITMAP
18
18
18
00
00
00
00
00
00
60
70
30
20
40
80
ENDCHAR
STARTCHAR less
ENCODING 60
SWIDTH 606 0
DWIDTH 14 0
BBX 12 11 1 2
BITMAP
0030
00E0
0380
0E00
3800
E000
3800
0E00
0380
00E0
0030
ENDCHAR
STARTCHAR equal
ENCODING 61
SWIDTH 606 0
DWIDTH 15 0
BBX 13 5 1 4
BITMAP
FFF8
0000
0000
0000
FFF8
ENDCHAR
STARTCHAR greater
ENCODING 62
SWIDTH 606 0
DWIDTH 14 0
BBX 12 11 1 2
BITMAP
C000
7000
1C00
0700
01C0
0070
01C0
0700
1C00
7000
C000
ENDCHAR
STARTCHAR question
ENCODING 63
SWIDTH 444 0
DWIDTH 10 0
BBX 8 18 2 0
BITMAP
3C
46
83
83
03
07
0E
3C
70
C0
80
88
70
00
00
C0
C0
C0
ENDCHAR
STARTCHAR at
ENCODING 64
SWIDTH 747 0
DWIDTH 19 0
BBX 17 17 1 0
BITMAP
03F000
0C0C00
100200
200100
21D900
463880
461880
8C1880
8C1880
8C3080
8C3100
8C3100
445200
438C00
200000
180C00
07F000
ENDCHAR
STARTCHAR A
ENCODING 65
SWIDTH 704 0
DWIDTH 18 0
BBX 18 18 -1 0
BITMAP
003000
003000
007800
005800
00D800
009800
019C00
011C00
030C00
020C00
060E00
07FE00
0C0600
080600
180700
100300
300300
FC0FC0
ENDCHAR
STARTCHAR B
ENCODING 66
SWIDTH 722 0
DWIDTH 17 0
BBX 16 18 0 0
BITMAP
1FFC
0706
0607
0607
0E07
0E06
0C06
0C0C
1FF0
1C1C
180E
180E
380E
380E
300C
301C
7038
FFE0
ENDCHAR
STARTCHAR C
ENCODING 67
SWIDTH 722 0
DWIDTH 18 0
BBX 16 18 1 0
BITMAP
03F9
0F0F
1C07
3802
3002
7002
7000
6000
E000
E000
E000
E000
E004
E004
6008
7008
3830
0FC0
ENDCHAR
STARTCHAR D
ENCODING 68
SWIDTH 778 0
DWIDTH 19 0
BBX 17 18 0 0
BITMAP
1FF800
070E00
060700
060300
0E0380
0E0380
0C0380
0C0380
1C0380
1C0380
180300
180700
380700
380600
300E00
301C00
707800
FFE000
ENDCHAR
STARTCHAR E
ENCODING 69
SWIDTH 722 0
DWIDTH 16 0
BBX 16 18 0 0
BITMAP
1FFF
0703
0602
0602
0E02
0E10
0C10
0C20
1FE0
1C60
1820
1820
3800
3802
3002
3004
700C
FFFC
ENDCHAR
STARTCHAR F
ENCODING 70
SWIDTH 667 0
DWIDTH 16 0
BBX 16 18 0 0
BITMAP
1FFF
0703
0602
0602
0E02
0E10
0C10
0C20
1FE0
1C60
1820
1820
3800
3800
3000
3000
7000
FC00
ENDCHAR
STARTCHAR G
ENCODING 71
SWIDTH 778 0
DWIDTH 18 0
BBX 16 18 1 0
BITMAP
03F9
0F0F
1C07
3802
3802
7002
7000
6000
E000
E000
E03F
E00C
E00C
E00C
6018
7018
3878
0F88
ENDCHAR
STARTCHAR H
ENCODING 72
SWIDTH 833 0
DWIDTH 21 0
BBX 19 18 1 0
BITMAP
1F87E0
0701C0
060180
060180
0E0380
0E0380
0C0300
0C0300
1FFF00
1C0700
180600
180600
380E00
380E00
300C00
300C00
701C00
FC3F00
ENDCHAR
STARTCHAR I
ENCODING 73
SWIDTH 407 0
DWIDTH 11 0
BBX 9 18 1 0
BITMAP
1F80
0700
0600
0600
0E00
0E00
0C00
0C00
1C00
1C00
1800
1800
3800
3800
3000
3000
7000
FC00
ENDCHAR
STARTCHAR J
ENCODING 74
SWIDTH 611 0
DWIDTH 14 0
BBX 13 18 0 0
BITMAP
01F8
0070
0060
0060
00E0
00E0
00C0
00C0
01C0
01C0
0180
0180
6380
E380
E300
8300
C600
7C00
ENDCHAR
STARTCHAR K
ENCODING 75
SWIDTH 741 0
DWIDTH 19 0
BBX 18 18 1 0
BITMAP
1F8FC0
070300
060600
060C00
0E1800
0E3000
0C6000
0CC000
1DC000
1FE000
1C6000
187000
383000
383800
301800
301C00
700C00
FC1F00
ENDCHAR
STARTCHAR L
ENCODING 76
SWIDTH 667 0
DWIDTH 16 0
BBX 15 18 0 0
BITMAP
1F80
0700
0600
0600
0E00
0E00
0C00
0C00
1C00
1C00
1800
1800
3800
3802
3002
3004
700C
FFFC
ENDCHAR
STARTCHAR M
ENCODING 77
SWIDTH 944 0
DWIDTH 23 0
BBX 24 18 -1 0
BITMAP
0F001F
03001E
03003C
03002C
07805C
05805C
058098
058198
0DC138
09C338
08C230
08C630
18E430
10E870
106860
107060
3070E0
FC61F8
ENDCHAR
STARTCHAR N
ENCODING 78
SWIDTH 815 0
DWIDTH 21 0
BBX 21 18 0 0
BITMAP
1E01F8
070060
070040
078040
058040
05C0C0
0CC080
08E080
087080
083180
183900
101900
101D00
100F00
300E00
200600
300600
FC0200
ENDCHAR
STARTCHAR O
ENCODING 79
SWIDTH 778 0
DWIDTH 18 0
BBX 16 18 1 0
BITMAP
03F0
0F1C
1C0E
3806
3007
7007
7007
6007
E007
E007
E006
E00E
E00E
E00C
601C
7038
38F0
0FC0
ENDCHAR
STARTCHAR P
ENCODING 80
SWIDTH 667 0
DWIDTH 17 0
BBX 16 18 1 0
BITMAP
1FF8
070E
0607
0607
0E07
0E07
0C06
0C0C
1C38
1FE0
1800
1800
3800
3800
3000
3000
3000
FC00
ENDCHAR
STARTCHAR Q
ENCODING 81
SWIDTH 778 0
DWIDTH 18 0
BBX 16 22 1 -4
BITMAP
03F0
0F1C
1C0E
3806
3007
7007
7007
6007
E007
E007
E006
E70E
EF8E
F18C
60DC
70F8
38F0
0FC0
0060
0064
0078
0030
ENDCHAR
STARTCHAR R
ENCODING 82
SWIDTH 741 0
DWIDTH 19 0
BBX 16 18 1 0
BITMAP
1FF8
070E
0607
0607
0E07
0E06
0C0E
0C1C
1FF0
1C30
1838
1818
3818
3818
3018
3019
7019
FC0E
ENDCHAR
STARTCHAR S
ENCODING 83
SWIDTH 667 0
DWIDTH 16 0
BBX 14 18 1 0
BITMAP
03E4
0E3C
181C
3008
3008
3008
3800
1E00
0F80
03E0
00F0
0038
4018
4018
4018
E030
F0E0
9F80
ENDCHAR
STARTCHAR T
ENCODING 84
SWIDTH 685 0
DWIDTH 17 0
BBX 15 18 2 0
BITMAP
7FFE
61C6
4182
8182
8382
0380
0300
0300
0700
0700
0600
0600
0E00
0E00
0C00
0C00
1C00
3F00
ENDCHAR
STARTCHAR U
ENCODING 85
SWIDTH 815 0
DWIDTH 19 0
BBX 18 18 1 0
BITMAP
7E07C0
1C0100
180100
180100
380300
380200
300200
300200
700600
700400
600400
600400
E00C00
E00800
E00800
E01800
707000
3FC000
ENDCHAR
STARTCHAR V
ENCODING 86
SWIDTH 704 0
DWIDTH 17 0
BBX 17 18 1 0
BITMAP
FC1F80
700600
300400
300C00
380800
381800
181000
183000
1C2000
1C6000
0C4000
0CC000
0E8000
0F8000
070000
070000
060000
060000
ENDCHAR
STARTCHAR W
ENCODING 87
SWIDTH 926 0
DWIDTH 24 0
BBX 23 18 1 0
BITMAP
FC7E3E
70180C
301808
303808
383C18
382C10
186C30
184C20
184C20
1CCE60
1C8E40
0C8640
0D86C0
0D0680
0D0680
0E0700
060300
040200
ENDCHAR
STARTCHAR X
ENCODING 88
SWIDTH 704 0
DWIDTH 18 0
BBX 20 18 -1 0
BITMAP
0FC3F0
0300C0
038180
018300
01C600
00CC00
00F800
007000
007000
007000
00F800
019800
031C00
060C00
0C0E00
180E00
300700
FC1F80
ENDCHAR
STARTCHAR Y
ENCODING 89
SWIDTH 685 0
DWIDTH 17 0
BBX 17 18 1 0
BITMAP
FC1F80
300600
380C00
180800
1C1000
0C3000
0E2000
064000
07C000
038000
030000
030000
070000
070000
060000
060000
060000
1F8000
ENDCHAR
STARTCHAR Z
ENCODING 90
SWIDTH 667 0
DWIDTH 16 0
BBX 16 18 0 0
BITMAP
1FFF
1807
100E
201C
2038
0070
00F0
01E0
01C0
0380
0700
0F00
1E00
1C04
3804
7008
E018
FFF8
ENDCHAR
STARTCHAR bracketleft
ENCODING 91
SWIDTH 333 0
DWIDTH 9 0
BBX 9 20 0 -2
BITMAP
0F80
0C00
0C00
0C00
1800
1800
1800
1800
3000
3000
3000
3000
6000
6000
6000
6000
C000
C000
C000
F800
ENDCHAR
STARTCHAR backslash
ENCODING 92
SWIDTH 606 0
DWIDTH 13 0
BBX 10 18 1 0
BITMAP
C000
4000
6000
2000
3000
1000
1800
0800
0C00
0400
0600
0200
0300
0100
0180
0080
00C0
0040
ENDCHAR
STARTCHAR bracketright
ENCODING 93
SWIDTH 333 0
DWIDTH 9 0
BBX 9 20 0 -2
BITMAP
0F80
0180
0180
0180
0300
0300
0300
0300
0600
0600
0600
0600
0C00
0C00
0C00
0C00
1800
1800
1800
F800
ENDCHAR
STARTCHAR asciicircum
ENCODING 94
SWIDTH 606 0
DWIDTH 14 0
BBX 9 10 2 8
BITMAP
0800
0800
1400
1400
2200
2200
4100
4100
8080
8080
ENDCHAR
STARTCHAR underscore
ENCODING 95
SWIDTH 500 0
DWIDTH 13 0
BBX 13 1 0 -2
BITMAP
FFF8
ENDCHAR
STARTCHAR grave
ENCODING 96
SWIDTH 333 0
DWIDTH 7 0
BBX 5 4 1 13
BITMAP
C0
60
10
08
ENDCHAR
STARTCHAR a
ENCODING 97
SWIDTH 574 0
DWIDTH 15 0
BBX 13 12 1 0
BITMAP
0F30
38B0
6070
6030
C060
C060
C060
C060
C0C0
C1C8
62D0
3CE0
ENDCHAR
STARTCHAR b
ENCODING 98
SWIDTH 556 0
DWIDTH 13 0
BBX 11 18 1 0
BITMAP
7800
1800
1800
1800
3000
3000
3780
38C0
6060
6060
6060
6060
C060
C060
C0C0
C0C0
6180
3E00
ENDCHAR
STARTCHAR c
ENCODING 99
SWIDTH 444 0
DWIDTH 12 0
BBX 10 12 1 0
BITMAP
0F80
30C0
61C0
6180
C000
C000
C000
C000
C000
C080
6300
3C00
ENDCHAR
STARTCHAR d
ENCODING 100
SWIDTH 611 0
DWIDTH 15 0
BBX 13 18 1 0
BITMAP
0078
0018
0018
0018
0030
0030
0F30
38B0
6070
6060
C060
C060
C060
C0C0
C0C0
C1C8
62D0
3CE0
ENDCHAR
STARTCHAR e
ENCODING 101
SWIDTH 444 0
DWIDTH 12 0
BBX 10 12 1 0
BITMAP
0F80
38C0
60C0
60C0
C180
C300
FC00
C000
C000
C040
6180
3E00
ENDCHAR
STARTCHAR f
ENCODING 102
SWIDTH 333 0
DWIDTH 7 0
BBX 11 23 0 -5
BITMAP
01C0
0660
0660
0C00
0C00
0C00
7F80
1800
1800
1800
1800
3000
3000
3000
3000
6000
6000
6000
6000
C000
C000
C000
C000
ENDCHAR
STARTCHAR g
ENCODING 103
SWIDTH 537 0
DWIDTH 12 0
BBX 13 19 -1 -5
BITMAP
0018
0038
07C0
1860
3030
3030
3030
3030
1860
0F80
3000
6000
7FC0
1FE0
6030
C030
C030
E060
3F80
ENDCHAR
STARTCHAR h
ENCODING 104
SWIDTH 611 0
DWIDTH 15 0
BBX 13 18 1 0
BITMAP
7800
1800
1800
1800
3000
3000
30E0
3370
3430
7830
6030
6060
6060
C060
C0C0
C0C8
C0D0
C0E0
ENDCHAR
STARTCHAR i
ENCODING 105
SWIDTH 333 0
DWIDTH 7 0
BBX 5 18 1 0
BITMAP
18
18
18
00
00
00
F0
30
30
30
60
60
60
60
C0
C8
C8
70
ENDCHAR
STARTCHAR j
ENCODING 106
SWIDTH 315 0
DWIDTH 7 0
BBX 10 23 -4 -5
BITMAP
00C0
00C0
00C0
0000
0000
0000
0780
0180
0180
0180
0180
0300
0300
0300
0300
0300
0600
0600
0600
0600
C400
CC00
F000
ENDCHAR
STARTCHAR k
ENCODING 107
SWIDTH 556 0
DWIDTH 13 0
BBX 12 18 1 0
BITMAP
7800
1800
1800
1800
3000
3000
31C0
3660
3860
6060
60C0
6300
7E00
C300
C300
C190
C190
C0E0
ENDCHAR
STARTCHAR l
ENCODING 108
SWIDTH 333 0
DWIDTH 7 0
BBX 5 18 1 0
BITMAP
78
18
18
18
30
30
30
30
30
60
60
60
60
C0
C0
C8
C8
70
ENDCHAR
STARTCHAR m
ENCODING 109
SWIDTH 889 0
DWIDTH 23 0
BBX 21 12 1 0
BITMAP
F0E0E0
337370
343430
383830
603030
606060
606060
606060
C0C0C0
C0C0C8
C0C0C8
C0C070
ENDCHAR
STARTCHAR n
ENCODING 110
SWIDTH 611 0
DWIDTH 15 0
BBX 13 12 1 0
BITMAP
F0E0
3370
3430
3830
6030
6060
6060
6060
C0C0
C0C8
C0D0
C0E0
ENDCHAR
STARTCHAR o
ENCODING 111
SWIDTH 500 0
DWIDTH 13 0
BBX 11 12 1 0
BITMAP
0F80
38C0
6060
6060
C060
C060
C060
C060
C0C0
C0C0
6380
3E00
ENDCHAR
STARTCHAR p
ENCODING 112
SWIDTH 574 0
DWIDTH 14 0
BBX 14 17 -1 -5
BITMAP
3CF0
0F18
0C0C
0C0C
180C
180C
180C
180C
3818
3818
3430
33C0
6000
6000
6000
6000
F000
ENDCHAR
STARTCHAR q
ENCODING 113
SWIDTH 556 0
DWIDTH 14 0
BBX 12 17 1 -5
BITMAP
0F30
30B0
6070
6030
C060
C060
C060
C060
C0C0
C1C0
62C0
3CC0
0180
0180
0180
0180
03C0
ENDCHAR
STARTCHAR r
ENCODING 114
SWIDTH 444 0
DWIDTH 11 0
BBX 10 12 1 0
BITMAP
F180
37C0
38C0
3000
6000
6000
6000
6000
C000
C000
C000
C000
ENDCHAR
STARTCHAR s
ENCODING 115
SWIDTH 444 0
DWIDTH 12 0
BBX 10 12 1 0
BITMAP
0F80
30C0
21C0
6180
7800
3E00
0F00
0780
6180
E100
C300
7C00
ENDCHAR
STARTCHAR t
ENCODING 116
SWIDTH 352 0
DWIDTH 8 0
BBX 7 16 1 0
BITMAP
18
18
18
18
FE
30
30
30
60
60
60
60
C0
C4
C8
70
ENDCHAR
STARTCHAR u
ENCODING 117
SWIDTH 611 0
DWIDTH 15 0
BBX 13 12 1 0
BITMAP
F030
3030
3030
3030
6060
6060
6060
C0C0
C1C0
C2C8
ECD0
70E0
ENDCHAR
STARTCHAR v
ENCODING 118
SWIDTH 519 0
DWIDTH 13 0
BBX 11 12 1 0
BITMAP
F0C0
30E0
3060
3020
3020
6020
6020
6040
6040
6080
3100
1E00
ENDCHAR
STARTCHAR w
ENCODING 119
SWIDTH 778 0
DWIDTH 20 0
BBX 18 12 1 0
BITMAP
F06180
3061C0
3060C0
306040
306040
60C040
60C040
60C080
60C080
60C100
316200
1E3C00
ENDCHAR
STARTCHAR x
ENCODING 120
SWIDTH 500 0
DWIDTH 13 0
BBX 12 12 0 0
BITMAP
1830
3870
5C80
0D00
0E00
0600
0700
0B00
0B80
1190
E1E0
C0C0
ENDCHAR
STARTCHAR y
ENCODING 121
SWIDTH 500 0
DWIDTH 13 0
BBX 13 17 -1 -5
BITMAP
1818
3C18
4C08
0C10
0610
0620
0620
0340
0340
0380
0100
0100
0200
0200
C400
C800
7000
ENDCHAR
STARTCHAR z
ENCODING 122
SWIDTH 463 0
DWIDTH 13 0
BBX 11 12 1 0
BITMAP
1E20
3FE0
40C0
4180
0300
0E00
1800
3000
6040
C040
FF80
9F00
ENDCHAR
STARTCHAR braceleft
ENCODING 123
SWIDTH 333 0
DWIDTH 7 0
BBX 7 20 0 -2
BITMAP
06
08
18
18
18
30
30
30
20
C0
60
60
60
60
C0
C0
C0
C0
40
30
ENDCHAR
STARTCHAR bar
ENCODING 124
SWIDTH 606 0
DWIDTH 14 0
BBX 1 18 6 0
BITMAP
80
80
80
80
80
80
80
80
80
80
80
80
80
80
80
80
80
80
ENDCHAR
STARTCHAR braceright
ENCODING 125
SWIDTH 333 0
DWIDTH 7 0
BBX 7 20 0 -2
BITMAP
18
04
06
06
06
06
0C
0C
0C
0C
06
08
18
18
18
30
30
30
20
C0
ENDCHAR
STARTCHAR asciitilde
ENCODING 126
SWIDTH 606 0
DWIDTH 14 0
BBX 12 4 1 6
BITMAP
1800
7E30
C7E0
0180
ENDCHAR
STARTCHAR space
ENCODING 160
SWIDTH 278 0
DWIDTH 7 0
BBX 1 1 0 0
BITMAP
00
ENDCHAR
STARTCHAR exclamdown
ENCODING 161
SWIDTH 333 0
DWIDTH 6 0
BBX 6 18 0 -5
BITMAP
0C
0C
0C
00
00
10
10
30
30
30
60
60
60
60
C0
C0
C0
C0
ENDCHAR
STARTCHAR cent
ENCODING 162
SWIDTH 556 0
DWIDTH 14 0
BBX 10 16 2 -2
BITMAP
0200
0200
0F80
34C0
65C0
6580
C800
C800
C800
C800
D000
D080
7300
3C00
2000
2000
ENDCHAR
STARTCHAR sterling
ENCODING 163
SWIDTH 556 0
DWIDTH 15 0
BBX 14 18 0 0
BITMAP
00F0
0318
0638
0630
0C00
0C00
0C00
0C00
3FE0
0600
0600
0600
0600
0600
7600
8C04
8FF8
F3F0
ENDCHAR
STARTCHAR currency
ENCODING 164
SWIDTH 606 0
DWIDTH 14 0
BBX 10 10 2 3
BITMAP
DEC0
6180
4080
8040
8040
8040
8040
4080
E1C0
9E40
ENDCHAR
STARTCHAR yen
ENCODING 165
SWIDTH 556 0
DWIDTH 15 0
BBX 16 18 0 0
BITMAP
FC3F
300C
3018
1810
1820
0C60
0C40
0680
0780
1FF0
0300
0300
3FE0
0600
0600
0600
0600
1F80
ENDCHAR
STARTCHAR brokenbar
ENCODING 166
SWIDTH 606 0
DWIDTH 14 0
BBX 1 18 6 0
BITMAP
80
80
80
80
80
80
80
00
00
00
00
80
80
80
80
80
80
80
ENDCHAR
STARTCHAR section
ENCODING 167
SWIDTH 500 0
DWIDTH 13 0
BBX 11 21 1 -3
BITMAP
03C0
0C60
18E0
18C0
1800
0C00
0E00
1700
2380
61C0
60C0
70C0
3880
1D00
0E00
0700
0300
6300
E300
C600
7800
ENDCHAR
STARTCHAR dieresis
ENCODING 168
SWIDTH 333 0
DWIDTH 8 0
BBX 6 2 1 13
BITMAP
CC
CC
ENDCHAR
STARTCHAR copyright
ENCODING 169
SWIDTH 747 0
DWIDTH 19 0
BBX 17 18 1 0
BITMAP
03E000
0C1800
100400
200200
43F100
463100
8C1080
8C0080
8C0080
8C0080
8C0080
8C0080
461100
43E100
200200
100400
0C1800
03E000
ENDCHAR
STARTCHAR ordfeminine
ENCODING 170
SWIDTH 422 0
DWIDTH 11 0
BBX 9 10 1 8
BITMAP
3B00
6700
C300
C600
C600
CE80
7700
0000
0000
FF80
ENDCHAR
STARTCHAR guillemotleft
ENCODING 171
SWIDTH 426 0
DWIDTH 11 0
BBX 10 8 1 2
BITMAP
0440
1980
3300
6600
CC00
6600
3300
0880
ENDCHAR
STARTCHAR logicalnot
ENCODING 172
SWIDTH 606 0
DWIDTH 13 0
BBX 11 6 1 4
BITMAP
FFE0
0020
0020
0020
0020
0020
ENDCHAR
STARTCHAR hyphen
ENCODING 173
SWIDTH 333 0
DWIDTH 7 0
BBX 5 2 1 6
BITMAP
F8
F8
ENDCHAR
STARTCHAR registered
ENCODING 174
SWIDTH 747 0
DWIDTH 19 0
BBX 17 18 1 0
BITMAP
03E000
0C1800
100400
200200
4FE100
463100
863080
863080
866080
878080
86C080
866080
463100
4F3900
200200
100400
0C1800
03E000
ENDCHAR
STARTCHAR macron
ENCODING 175
SWIDTH 333 0
DWIDTH 9 0
BBX 7 1 1 13
BITMAP
FE
ENDCHAR
STARTCHAR degree
ENCODING 176
SWIDTH 400 0
DWIDTH 9 0
BBX 8 7 1 11
BITMAP
3C
66
C3
C3
C3
66
3C
ENDCHAR
STARTCHAR plusminus
ENCODING 177
SWIDTH 606 0
DWIDTH 13 0
BBX 11 11 1 2
BITMAP
0400
0400
0400
0400
FFE0
0400
0400
0400
0400
0000
FFE0
ENDCHAR
STARTCHAR twosuperior
ENCODING 178
SWIDTH 333 0
DWIDTH 8 0
BBX 8 11 0 7
BITMAP
3E
63
63
03
06
0C
18
30
60
C3
FE
ENDCHAR
STARTCHAR threesuperior
ENCODING 179
SWIDTH 333 0
DWIDTH 8 0
BBX 8 11 0 7
BITMAP
3E
63
63
03
06
1C
06
06
C6
CC
78
ENDCHAR
STARTCHAR acute
ENCODING 180
SWIDTH 333 0
DWIDTH 7 0
BBX 5 4 1 13
BITMAP
18
30
40
80
ENDCHAR
STARTCHAR mu
ENCODING 181
SWIDTH 611 0
DWIDTH 15 0
BBX 15 17 -1 -5
BITMAP
3C0C
0C0C
0C0C
0C0C
1818
1818
1818
3030
3070
30B2
3B34
6C38
6000
4000
C000
E000
4000
ENDCHAR
STARTCHAR paragraph
ENCODING 182
SWIDTH 650 0
DWIDTH 14 0
BBX 12 18 1 0
BITMAP
1FF0
7240
7240
E240
E240
E480
E480
6480
3C80
0900
0900
0900
0900
1200
1200
1200
1200
7F80
ENDCHAR
STARTCHAR periodcentered
ENCODING 183
SWIDTH 278 0
DWIDTH 7 0
BBX 3 3 2 6
BITMAP
E0
E0
E0
ENDCHAR
STARTCHAR cedilla
ENCODING 184
SWIDTH 333 0
DWIDTH 7 0
BBX 4 4 2 -4
BITMAP
20
70
10
E0
ENDCHAR
STARTCHAR onesuperior
ENCODING 185
SWIDTH 333 0
DWIDTH 8 0
BBX 6 11 1 7
BITMAP
04
3C
0C
0C
18
18
18
30
30
30
FC
ENDCHAR
STARTCHAR ordmasculine
ENCODING 186
SWIDTH 372 0
DWIDTH 9 0
BBX 7 10 1 8
BITMAP
1C
66
C6
C6
C6
CC
70
00
00
FC
ENDCHAR
STARTCHAR guillemotright
ENCODING 187
SWIDTH 426 0
DWIDTH 11 0
BBX 10 8 0 2
BITMAP
4400
3300
1980
0CC0
1980
3300
6600
8800
ENDCHAR
STARTCHAR onequarter
ENCODING 188
SWIDTH 834 0
DWIDTH 19 0
BBX 17 18 1 0
BITMAP
040C00
3C0800
0C1800
0C1000
183000
182000
186000
304180
30C380
318580
FD0900
031300
022300
064200
04C600
0CFF80
080600
180F00
ENDCHAR
STARTCHAR onehalf
ENCODING 189
SWIDTH 834 0
DWIDTH 19 0
BBX 18 18 1 0
BITMAP
040C00
3C0800
0C1800
0C1000
183000
182000
186000
304F80
30D8C0
3198C0
FD00C0
030180
020300
060600
040C00
0C1800
0830C0
183F80
ENDCHAR
STARTCHAR threequarters
ENCODING 190
SWIDTH 834 0
DWIDTH 19 0
BBX 18 18 0 0
BITMAP
3E0600
630400
630C00
030800
061800
1C1000
063000
0620C0
C661C0
CCC2C0
788480
018980
011180
032100
026300
067FC0
040300
0C0780
ENDCHAR
STARTCHAR questiondown
ENCODING 191
SWIDTH 444 0
DWIDTH 9 0
BBX 8 18 -1 -5
BITMAP
03
03
03
00
00
0E
11
01
03
0E
3C
70
E0
C0
C1
C1
62
3C
ENDCHAR
STARTCHAR Agrave
ENCODING 192
SWIDTH 704 0
DWIDTH 18 0
BBX 18 23 -1 0
BITMAP
00C000
006000
001000
000800
000000
003000
003000
007800
005800
00D800
009800
019C00
011C00
030C00
020C00
060E00
07FE00
0C0600
080600
180700
100300
300300
FC0FC0
ENDCHAR
STARTCHAR Aacute
ENCODING 193
SWIDTH 704 0
DWIDTH 18 0
BBX 18 23 -1 0
BITMAP
000C00
001800
002000
004000
000000
003000
003000
007800
005800
00D800
009800
019C00
011C00
030C00
020C00
060E00
07FE00
0C0600
080600
180700
100300
300300
FC0FC0
ENDCHAR
STARTCHAR Acircumflex
ENCODING 194
SWIDTH 704 0
DWIDTH 18 0
BBX 18 23 -1 0
BITMAP
001000
003800
006C00
008400
000000
003000
003000
007800
005800
00D800
009800
019C00
011C00
030C00
020C00
060E00
07FE00
0C0600
080600
180700
100300
300300
FC0FC0
ENDCHAR
STARTCHAR Atilde
ENCODING 195
SWIDTH 704 0
DWIDTH 18 0
BBX 18 22 -1 0
BITMAP
00E200
01FE00
011C00
000000
003000
003000
007800
005800
00D800
009800
019C00
011C00
030C00
020C00
060E00
07FE00
0C0600
080600
180700
100300
300300
FC0FC0
ENDCHAR
STARTCHAR Adieresis
ENCODING 196
SWIDTH 704 0
DWIDTH 18 0
BBX 18 22 -1 0
BITMAP
00CC00
00CC00
000000
000000
003000
003000
007800
005800
00D800
009800
019C00
011C00
030C00
020C00
060E00
07FE00
0C0600
080600
180700
100300
300300
FC0FC0
ENDCHAR
STARTCHAR Aring
ENCODING 197
SWIDTH 704 0
DWIDTH 18 0
BBX 18 23 -1 0
BITMAP
003800
004400
004400
004400
003800
003000
003000
007800
005800
00D800
009800
019C00
011C00
030C00
020C00
060E00
07FE00
0C0600
080600
180700
100300
300300
FC0FC0
ENDCHAR
STARTCHAR AE
ENCODING 198
SWIDTH 870 0
DWIDTH 24 0
BBX 25 18 -2 0
BITMAP
007FFF80
000B0180
00130100
00130100
00230100
00460800
00460800
00861000
0107F000
010C3000
03FC1000
040C1000
040C0000
08180100
10180100
10180200
30180600
FC7FFE00
ENDCHAR
STARTCHAR Ccedilla
ENCODING 199
SWIDTH 722 0
DWIDTH 18 0
BBX 16 22 1 -4
BITMAP
03F9
0E0F
1807
3002
3002
6002
6000
6000
C000
C000
C000
C000
C004
C004
C008
6008
7030
1FC0
0200
0700
0100
0E00
ENDCHAR
STARTCHAR Egrave
ENCODING 200
SWIDTH 722 0
DWIDTH 16 0
BBX 16 23 0 0
BITMAP
0180
00C0
0020
0010
0000
1FFF
0703
0602
0602
0E02
0E10
0C10
0C20
1FE0
1C60
1820
1820
3800
3802
3002
3004
700C
FFFC
ENDCHAR
STARTCHAR Eacute
ENCODING 201
SWIDTH 722 0
DWIDTH 16 0
BBX 16 23 0 0
BITMAP
000C
0018
0020
0040
0000
1FFF
0703
0602
0602
0E02
0E10
0C10
0C20
1FE0
1C60
1820
1820
3800
3802
3002
3004
700C
FFFC
ENDCHAR
STARTCHAR Ecircumflex
ENCODING 202
SWIDTH 722 0
DWIDTH 16 0
BBX 16 23 0 0
BITMAP
0010
0038
006C
0084
0000
1FFF
0703
0602
0602
0E02
0E10
0C10
0C20
1FE0
1C60
1820
1820
3800
3802
3002
3004
700C
FFFC
ENDCHAR
STARTCHAR Edieresis
ENCODING 203
SWIDTH 722 0
DWIDTH 16 0
BBX 16 22 0 0
BITMAP
018C
018C
0000
0000
1FFF
0703
0602
0602
0E02
0E10
0C10
0C20
1FE0
1C60
1820
1820
3800
3802
3002
3004
700C
FFFC
ENDCHAR
STARTCHAR Igrave
ENCODING 204
SWIDTH 407 0
DWIDTH 11 0
BBX 9 23 1 0
BITMAP
1800
0C00
0200
0100
0000
1F80
0700
0600
0600
0E00
0E00
0C00
0C00
1C00
1C00
1800
1800
3800
3800
3000
3000
7000
FC00
ENDCHAR
STARTCHAR Iacute
ENCODING 205
SWIDTH 407 0
DWIDTH 11 0
BBX 11 23 1 0
BITMAP
0060
00C0
0100
0200
0000
1F80
0700
0600
0600
0E00
0E00
0C00
0C00
1C00
1C00
1800
1800
3800
3800
3000
3000
7000
FC00
ENDCHAR
STARTCHAR Icircumflex
ENCODING 206
SWIDTH 407 0
DWIDTH 11 0
BBX 10 23 1 0
BITMAP
0100
0380
06C0
0840
0000
1F80
0700
0600
0600
0E00
0E00
0C00
0C00
1C00
1C00
1800
1800
3800
3800
3000
3000
7000
FC00
ENDCHAR
STARTCHAR Idieresis
ENCODING 207
SWIDTH 407 0
DWIDTH 11 0
BBX 10 22 1 0
BITMAP
0CC0
0CC0
0000
0000
1F80
0700
0600
0600
0E00
0E00
0C00
0C00
1C00
1C00
1800
1800
3800
3800
3000
3000
7000
FC00
ENDCHAR
STARTCHAR Eth
ENCODING 208
SWIDTH 778 0
DWIDTH 19 0
BBX 17 18 0 0
BITMAP
1FFC00
060700
060300
060180
060180
0C0180
0C0180
0C0180
7F8180
180180
180300
180300
180300
300600
300600
300C00
303800
FFE000
ENDCHAR
STARTCHAR Ntilde
ENCODING 209
SWIDTH 815 0
DWIDTH 21 0
BBX 21 22 0 0
BITMAP
007100
00FF00
008E00
000000
1E01F8
070060
070040
078040
058040
05C0C0
0CC080
08E080
087080
083180
183900
101900
101D00
100F00
300E00
200600
300600
FC0200
ENDCHAR
STARTCHAR Ograve
ENCODING 210
SWIDTH 778 0
DWIDTH 18 0
BBX 16 23 1 0
BITMAP
0300
0180
0040
0020
0000
03F0
0F1C
1C0E
3806
3007
7007
7007
6007
E007
E007
E006
E00E
E00E
E00C
601C
7038
38F0
0FC0
ENDCHAR
STARTCHAR Oacute
ENCODING 211
SWIDTH 778 0
DWIDTH 18 0
BBX 16 23 1 0
BITMAP
0018
0030
0040
0080
0000
03F0
0F1C
1C0E
3806
3007
7007
7007
6007
E007
E007
E006
E00E
E00E
E00C
601C
7038
38F0
0FC0
ENDCHAR
STARTCHAR Ocircumflex
ENCODING 212
SWIDTH 778 0
DWIDTH 18 0
BBX 16 23 1 0
BITMAP
0020
0070
00D8
0108
0000
03F0
0F1C
1C0E
3806
3007
7007
7007
6007
E007
E007
E006
E00E
E00E
E00C
601C
7038
38F0
0FC0
ENDCHAR
STARTCHAR Otilde
ENCODING 213
SWIDTH 778 0
DWIDTH 18 0
BBX 16 22 1 0
BITMAP
01C4
03FC
0238
0000
03F0
0F1C
1C0E
3806
3007
7007
7007
6007
E007
E007
E006
E00E
E00E
E00C
601C
7038
38F0
0FC0
ENDCHAR
STARTCHAR Odieresis
ENCODING 214
SWIDTH 778 0
DWIDTH 18 0
BBX 16 22 1 0
BITMAP
0318
0318
0000
0000
03F0
0F1C
1C0E
3806
3007
7007
7007
6007
E007
E007
E006
E00E
E00E
E00C
601C
7038
38F0
0FC0
ENDCHAR
STARTCHAR multiply
ENCODING 215
SWIDTH 606 0
DWIDTH 13 0
BBX 12 11 1 2
BITMAP
C030
6060
30C0
1980
0F00
0600
0F00
1980
30C0
6060
C030
ENDCHAR
STARTCHAR Oslash
ENCODING 216
SWIDTH 778 0
DWIDTH 18 0
BBX 16 20 1 -1
BITMAP
0008
03F8
0E1E
1826
3023
3043
6043
6083
6083
C103
C103
C206
C206
C406
C40C
C80C
6818
7870
1FC0
1000
ENDCHAR
STARTCHAR Ugrave
ENCODING 217
SWIDTH 815 0
DWIDTH 19 0
BBX 18 23 1 0
BITMAP
018000
00C000
002000
001000
000000
7E07C0
1C0100
180100
180100
380300
380200
300200
300200
700600
700400
600400
600400
E00C00
E00800
E00800
E01800
707000
3FC000
ENDCHAR
STARTCHAR Uacute
ENCODING 218
SWIDTH 815 0
DWIDTH 19 0
BBX 18 23 1 0
BITMAP
000C00
001800
002000
004000
000000
7E07C0
1C0100
180100
180100
380300
380200
300200
300200
700600
700400
600400
600400
E00C00
E00800
E00800
E01800
707000
3FC000
ENDCHAR
STARTCHAR Ucircumflex
ENCODING 219
SWIDTH 815 0
DWIDTH 19 0
BBX 18 23 1 0
BITMAP
001000
003800
006C00
008400
000000
7E07C0
1C0100
180100
180100
380300
380200
300200
300200
700600
700400
600400
600400
E00C00
E00800
E00800
E01800
707000
3FC000
ENDCHAR
STARTCHAR Udieresis
ENCODING 220
SWIDTH 815 0
DWIDTH 19 0
BBX 18 22 1 0
BITMAP
018C00
018C00
000000
000000
7E07C0
1C0100
180100
180100
380300
380200
300200
300200
700600
700400
600400
600400
E00C00
E00800
E00800
E01800
707000
3FC000
ENDCHAR
STARTCHAR Yacute
ENCODING 221
SWIDTH 685 0
DWIDTH 17 0
BBX 17 23 1 0
BITMAP
001800
003000
004000
008000
000000
FC1F80
300600
380C00
180800
1C1000
0C3000
0E2000
064000
07C000
038000
030000
030000
070000
070000
060000
060000
060000
1F8000
ENDCHAR
STARTCHAR Thorn
ENCODING 222
SWIDTH 667 0
DWIDTH 17 0
BBX 15 18 1 0
BITMAP
1F80
0600
0600
0600
07F0
0C0C
0C06
0C06
0C06
1806
180C
180C
1830
3FC0
3000
3000
3000
FC00
ENDCHAR
STARTCHAR germandbls
ENCODING 223
SWIDTH 556 0
DWIDTH 14 0
BBX 13 23 0 -5
BITMAP
01E0
0638
0618
0C18
0C18
0C18
0C30
19C0
1860
1830
1830
3030
3030
3030
3060
6C60
6CC0
6700
6000
C000
C000
C000
C000
ENDCHAR
STARTCHAR agrave
ENCODING 224
SWIDTH 574 0
DWIDTH 15 0
BBX 13 17 1 0
BITMAP
0C00
0600
0100
0080
0000
0F30
38B0
6070
6030
C060
C060
C060
C060
C0C0
C1C8
62D0
3CE0
ENDCHAR
STARTCHAR aacute
ENCODING 225
SWIDTH 574 0
DWIDTH 15 0
BBX 13 17 1 0
BITMAP
0060
00C0
0100
0200
0000
0F30
38B0
6070
6030
C060
C060
C060
C060
C0C0
C1C8
62D0
3CE0
ENDCHAR
STARTCHAR acircumflex
ENCODING 226
SWIDTH 574 0
DWIDTH 15 0
BBX 13 17 1 0
BITMAP
0100
0380
06C0
0840
0000
0F30
38B0
6070
6030
C060
C060
C060
C060
C0C0
C1C8
62D0
3CE0
ENDCHAR
STARTCHAR atilde
ENCODING 227
SWIDTH 574 0
DWIDTH 15 0
BBX 13 16 1 0
BITMAP
0710
0FF0
08E0
0000
0F30
38B0
6070
6030
C060
C060
C060
C060
C0C0
C1C8
62D0
3CE0
ENDCHAR
STARTCHAR adieresis
ENCODING 228
SWIDTH 574 0
DWIDTH 15 0
BBX 13 15 1 0
BITMAP
0CC0
0CC0
0000
0F30
38B0
6070
6030
C060
C060
C060
C060
C0C0
C1C8
62D0
3CE0
ENDCHAR
STARTCHAR aring
ENCODING 229
SWIDTH 574 0
DWIDTH 15 0
BBX 13 18 1 0
BITMAP
0380
0440
0440
0440
0380
0000
0F30
38B0
6070
6030
C060
C060
C060
C060
C0C0
C1C8
62D0
3CE0
ENDCHAR
STARTCHAR ae
ENCODING 230
SWIDTH 722 0
DWIDTH 19 0
BBX 17 12 1 0
BITMAP
0F1F00
31E180
70C180
60C180
018300
078600
39F800
618000
C18000
C38080
ECC300
707C00
ENDCHAR
STARTCHAR ccedilla
ENCODING 231
SWIDTH 444 0
DWIDTH 12 0
BBX 10 16 1 -4
BITMAP
0F80
30C0
61C0
6180
C000
C000
C000
C000
C000
C080
6300
3C00
0800
1C00
0400
3800
ENDCHAR
STARTCHAR egrave
ENCODING 232
SWIDTH 444 0
DWIDTH 12 0
BBX 10 17 1 0
BITMAP
3000
1800
0400
0200
0000
0F80
38C0
60C0
60C0
C180
C300
FC00
C000
C000
C040
6180
3E00
ENDCHAR
STARTCHAR eacute
ENCODING 233
SWIDTH 444 0
DWIDTH 12 0
BBX 10 17 1 0
BITMAP
00C0
0180
0200
0400
0000
0F80
38C0
60C0
60C0
C180
C300
FC00
C000
C000
C040
6180
3E00
ENDCHAR
STARTCHAR ecircumflex
ENCODING 234
SWIDTH 444 0
DWIDTH 12 0
BBX 10 17 1 0
BITMAP
0100
0380
06C0
0840
0000
0F80
38C0
60C0
60C0
C180
C300
FC00
C000
C000
C040
6180
3E00
ENDCHAR
STARTCHAR edieresis
ENCODING 235
SWIDTH 444 0
DWIDTH 12 0
BBX 10 15 1 0
BITMAP
1980
1980
0000
0F80
38C0
60C0
60C0
C180
C300
FC00
C000
C000
C040
6180
3E00
ENDCHAR
STARTCHAR igrave
ENCODING 236
SWIDTH 333 0
DWIDTH 8 0
BBX 5 17 1 0
BITMAP
C0
60
10
08
00
F0
30
30
30
60
60
60
60
C0
C8
C8
70
ENDCHAR
STARTCHAR iacute
ENCODING 237
SWIDTH 333 0
DWIDTH 8 0
BBX 6 17 1 0
BITMAP
0C
18
20
40
00
F0
30
30
30
60
60
60
60
C0
C8
C8
70
ENDCHAR
STARTCHAR icircumflex
ENCODING 238
SWIDTH 333 0
DWIDTH 8 0
BBX 6 17 1 0
BITMAP
10
38
6C
84
00
F0
30
30
30
60
60
60
60
C0
C8
C8
70
ENDCHAR
STARTCHAR idieresis
ENCODING 239
SWIDTH 333 0
DWIDTH 8 0
BBX 6 15 1 0
BITMAP
CC
CC
00
F0
30
30
30
60
60
60
60
C0
C8
C8
70
ENDCHAR
STARTCHAR eth
ENCODING 240
SWIDTH 500 0
DWIDTH 13 0
BBX 11 17 1 0
BITMAP
3000
0DC0
0700
3980
0180
0FC0
38C0
6060
6060
C060
C060
C060
C060
C0C0
C0C0
6380
3E00
ENDCHAR
STARTCHAR ntilde
ENCODING 241
SWIDTH 611 0
DWIDTH 15 0
BBX 13 16 1 0
BITMAP
0710
0FF0
08E0
0000
F0E0
3370
3430
3830
6030
6060
6060
6060
C0C0
C0C8
C0D0
C0E0
ENDCHAR
STARTCHAR ograve
ENCODING 242
SWIDTH 500 0
DWIDTH 13 0
BBX 11 17 1 0
BITMAP
1800
0C00
0200
0100
0000
0F80
38C0
6060
6060
C060
C060
C060
C060
C0C0
C0C0
6380
3E00
ENDCHAR
STARTCHAR oacute
ENCODING 243
SWIDTH 500 0
DWIDTH 13 0
BBX 11 17 1 0
BITMAP
00C0
0180
0200
0400
0000
0F80
38C0
6060
6060
C060
C060
C060
C060
C0C0
C0C0
6380
3E00
ENDCHAR
STARTCHAR ocircumflex
ENCODING 244
SWIDTH 500 0
DWIDTH 13 0
BBX 11 17 1 0
BITMAP
0100
0380
06C0
0840
0000
0F80
38C0
6060
6060
C060
C060
C060
C060
C0C0
C0C0
6380
3E00
ENDCHAR
STARTCHAR otilde
ENCODING 245
SWIDTH 500 0
DWIDTH 13 0
BBX 11 16 1 0
BITMAP
0E20
1FE0
11C0
0000
0F80
38C0
6060
6060
C060
C060
C060
C060
C0C0
C0C0
6380
3E00
ENDCHAR
STARTCHAR odieresis
ENCODING 246
SWIDTH 500 0
DWIDTH 13 0
BBX 11 15 1 0
BITMAP
0CC0
0CC0
0000
0F80
38C0
6060
6060
C060
C060
C060
C060
C0C0
C0C0
6380
3E00
ENDCHAR
STARTCHAR divide
ENCODING 247
SWIDTH 606 0
DWIDTH 13 0
BBX 10 9 1 3
BITMAP
0C00
0C00
0000
0000
FFC0
0000
0000
0C00
0C00
ENDCHAR
STARTCHAR oslash
ENCODING 248
SWIDTH 500 0
DWIDTH 12 0
BBX 11 16 0 -2
BITMAP
0040
0040
0F80
31C0
6160
6260
C260
C460
C460
C860
C8C0
D0C0
7180
3E00
4000
4000
ENDCHAR
STARTCHAR ugrave
ENCODING 249
SWIDTH 611 0
DWIDTH 15 0
BBX 13 17 1 0
BITMAP
0C00
0600
0100
0080
0000
F030
3030
3030
3030
6060
6060
6060
C0C0
C1C0
C2C8
ECD0
70E0
ENDCHAR
STARTCHAR uacute
ENCODING 250
SWIDTH 611 0
DWIDTH 15 0
BBX 13 17 1 0
BITMAP
0060
00C0
0100
0200
0000
F030
3030
3030
3030
6060
6060
6060
C0C0
C1C0
C2C8
ECD0
70E0
ENDCHAR
STARTCHAR ucircumflex
ENCODING 251
SWIDTH 611 0
DWIDTH 15 0
BBX 13 17 1 0
BITMAP
0080
01C0
0360
0420
0000
F030
3030
3030
3030
6060
6060
6060
C0C0
C1C0
C2C8
ECD0
70E0
ENDCHAR
STARTCHAR udieresis
ENCODING 252
SWIDTH 611 0
DWIDTH 15 0
BBX 13 15 1 0
BITMAP
0CC0
0CC0
0000
F030
3030
3030
3030
6060
6060
6060
C0C0
C1C0
C2C8
ECD0
70E0
ENDCHAR
STARTCHAR yacute
ENCODING 253
SWIDTH 500 0
DWIDTH 13 0
BBX 13 22 -1 -5
BITMAP
0030
0060
0080
0100
0000
1818
3C18
4C08
0C10
0610
0620
0620
0340
0340
0380
0100
0100
0200
0200
C400
C800
7000
ENDCHAR
STARTCHAR thorn
ENCODING 254
SWIDTH 574 0
DWIDTH 14 0
BBX 14 23 -1 -5
BITMAP
1E00
0600
0600
0600
0C00
0C00
0CF0
0F18
0C0C
0C0C
180C
180C
180C
180C
3818
3818
3430
33C0
6000
6000
6000
6000
F000
ENDCHAR
STARTCHAR ydieresis
ENCODING 255
SWIDTH 500 0
DWIDTH 13 0
BBX 13 20 -1 -5
BITMAP
0330
0330
0000
1818
3C18
4C08
0C10
0610
0620
0620
0340
0340
0380
0100
0100
0200
0200
C400
C800
7000
ENDCHAR
STARTCHAR Amacron
ENCODING 256
SWIDTH 704 0
DWIDTH 18 0
BBX 18 20 -1 0
BITMAP
01FC00
000000
003000
003000
007800
005800
00D800
009800
019C00
011C00
030C00
020C00
060E00
07FE00
0C0600
080600
180700
100300
300300
FC0FC0
ENDCHAR
STARTCHAR amacron
ENCODING 257
SWIDTH 574 0
DWIDTH 15 0
BBX 13 14 1 0
BITMAP
1FC0
0000
0F30
38B0
6070
6030
C060
C060
C060
C060
C0C0
C1C8
62D0
3CE0
ENDCHAR
STARTCHAR Abreve
ENCODING 258
SWIDTH 704 0
DWIDTH 18 0
BBX 18 22 -1 0
BITMAP
010400
018C00
00F800
000000
003000
003000
007800
005800
00D800
009800
019C00
011C00
030C00
020C00
060E00
07FE00
0C0600
080600
180700
100300
300300
FC0FC0
ENDCHAR
STARTCHAR abreve
ENCODING 259
SWIDTH 574 0
DWIDTH 15 0
BBX 13 16 1 0
BITMAP
1040
18C0
0F80
0000
0F30
38B0
6070
6030
C060
C060
C060
C060
C0C0
C1C8
62D0
3CE0
ENDCHAR
STARTCHAR Aogonek
ENCODING 260
SWIDTH 704 0
DWIDTH 18 0
BBX 18 22 -1 -4
BITMAP
003000
003000
007800
005800
00D800
009800
019C00
011C00
030C00
020C00
060E00
07FE00
0C0600
080600
180700
100300
300300
FC0FC0
004000
008000
009000
00E000
ENDCHAR
STARTCHAR aogonek
ENCODING 261
SWIDTH 574 0
DWIDTH 15 0
BBX 13 16 1 -4
BITMAP
0F30
38B0
6070
6030
C060
C060
C060
C060
C0C0
C1C8
62D0
3CE0
0200
0400
0480
0700
ENDCHAR
STARTCHAR Cacute
ENCODING 262
SWIDTH 722 0
DWIDTH 18 0
BBX 16 23 1 0
BITMAP
0030
0060
0080
0100
0000
03F9
0F0F
1C07
3802
3002
7002
7000
6000
E000
E000
E000
E000
E004
E004
6008
7008
3830
0FC0
ENDCHAR
STARTCHAR cacute
ENCODING 263
SWIDTH 444 0
DWIDTH 12 0
BBX 10 17 1 0
BITMAP
0180
0300
0400
0800
0000
0F80
30C0
61C0
6180
C000
C000
C000
C000
C000
C080
6300
3C00
ENDCHAR
STARTCHAR Ccircumflex
ENCODING 264
SWIDTH 722 0
DWIDTH 18 0
BBX 16 23 1 0
BITMAP
0040
00C0
0120
0220
0000
03F9
0F0F
1C07
3802
3002
7002
7000
6000
E000
E000
E000
E000
E004
E004
6008
7008
3830
0FC0
ENDCHAR
STARTCHAR ccircumflex
ENCODING 265
SWIDTH 444 0
DWIDTH 12 0
BBX 10 17 1 0
BITMAP
0200
0600
0900
1100
0000
0F80
30C0
61C0
6180
C000
C000
C000
C000
C000
C080
6300
3C00
ENDCHAR
STARTCHAR Cdotaccent
ENCODING 266
SWIDTH 722 0
DWIDTH 18 0
BBX 16 21 1 0
BITMAP
00C0
00C0
0000
03F9
0F0F
1C07
3802
3002
7002
7000
6000
E000
E000
E000
E000
E004
E004
6008
7008
3830
0FC0
ENDCHAR
STARTCHAR cdotaccent
ENCODING 267
SWIDTH 444 0
DWIDTH 12 0
BBX 10 15 1 0
BITMAP
0600
0600
0000
0F80
30C0
61C0
6180
C000
C000
C000
C000
C000
C080
6300
3C00
ENDCHAR
STARTCHAR Ccaron
ENCODING 268
SWIDTH 722 0
DWIDTH 18 0
BBX 16 23 1 0
BITMAP
0110
0120
00C0
0080
0000
03F9
0F0F
1C07
3802
3002
7002
7000
6000
E000
E000
E000
E000
E004
E004
6008
7008
3830
0FC0
ENDCHAR
STARTCHAR ccaron
ENCODING 269
SWIDTH 444 0
DWIDTH 12 0
BBX 10 17 1 0
BITMAP
0880
0900
0600
0400
0000
0F80
30C0
61C0
6180
C000
C000
C000
C000
C000
C080
6300
3C00
ENDCHAR
STARTCHAR Dcaron
ENCODING 270
SWIDTH 778 0
DWIDTH 19 0
BBX 17 23 0 0
BITMAP
011000
012000
00C000
008000
000000
1FF800
070E00
060700
060300
0E0380
0E0380
0C0380
0C0380
1C0380
1C0380
180300
180700
380700
380600
300E00
301C00
707800
FFE000
ENDCHAR
STARTCHAR dcaron
ENCODING 271
SWIDTH 784 0
DWIDTH 20 0
BBX 18 18 1 0
BITMAP
007980
0019C0
0018C0
001880
003100
003200
0F3000
38B000
607000
606000
C06000
C06000
C06000
C0C000
C0C000
C1C800
62D000
3CE000
ENDCHAR
STARTCHAR Dcroat
ENCODING 272
SWIDTH 778 0
DWIDTH 19 0
BBX 17 18 0 0
BITMAP
1FFC00
060700
060300
060180
060180
0C0180
0C0180
0C0180
7F8180
180180
180300
180300
180300
300600
300600
300C00
303800
FFE000
ENDCHAR
STARTCHAR dcroat
ENCODING 273
SWIDTH 611 0
DWIDTH 15 0
BBX 14 18 1 0
BITMAP
0078
0018
0018
0018
07FC
0030
0F30
38B0
6070
6060
C060
C060
C060
C0C0
C0C0
C1C8
62D0
3CE0
ENDCHAR
STARTCHAR Emacron
ENCODING 274
SWIDTH 722 0
DWIDTH 16 0
BBX 16 20 0 0
BITMAP
07F0
0000
1FFF
0703
0602
0602
0E02
0E10
0C10
0C20
1FE0
1C60
1820
1820
3800
3802
3002
3004
700C
FFFC
ENDCHAR
STARTCHAR emacron
ENCODING 275
SWIDTH 444 0
DWIDTH 12 0
BBX 10 14 1 0
BITMAP
3F80
0000
0F80
38C0
60C0
60C0
C180
C300
FC00
C000
C000
C040
6180
3E00
ENDCHAR
STARTCHAR Ebreve
ENCODING 276
SWIDTH 722 0
DWIDTH 16 0
BBX 16 22 0 0
BITMAP
0410
0630
03E0
0000
1FFF
0703
0602
0602
0E02
0E10
0C10
0C20
1FE0
1C60
1820
1820
3800
3802
3002
3004
700C
FFFC
ENDCHAR
STARTCHAR ebreve
ENCODING 277
SWIDTH 444 0
DWIDTH 12 0
BBX 10 16 1 0
BITMAP
2080
3180
1F00
0000
0F80
38C0
60C0
60C0
C180
C300
FC00
C000
C000
C040
6180
3E00
ENDCHAR
STARTCHAR Edotaccent
ENCODING 278
SWIDTH 722 0
DWIDTH 16 0
BBX 16 21 0 0
BITMAP
00C0
00C0
0000
1FFF
0703
0602
0602
0E02
0E10
0C10
0C20
1FE0
1C60
1820
1820
3800
3802
3002
3004
700C
FFFC
ENDCHAR
STARTCHAR edotaccent
ENCODING 279
SWIDTH 444 0
DWIDTH 12 0
BBX 10 15 1 0
BITMAP
0600
0600
0000
0F80
38C0
60C0
60C0
C180
C300
FC00
C000
C000
C040
6180
3E00
ENDCHAR
STARTCHAR Eogonek
ENCODING 280
SWIDTH 722 0
DWIDTH 16 0
BBX 16 22 0 -4
BITMAP
1FFF
0703
0602
0602
0E02
0E10
0C10
0C20
1FE0
1C60
1820
1820
3800
3802
3002
3004
700C
FFFC
0100
0200
0240
0380
ENDCHAR
STARTCHAR eogonek
ENCODING 281
SWIDTH 444 0
DWIDTH 12 0
BBX 10 16 1 -4
BITMAP
0F80
38C0
60C0
60C0
C180
C300
FC00
C000
C000
C040
6180
3E00
0800
1000
1200
1C00
ENDCHAR
STARTCHAR Ecaron
ENCODING 282
SWIDTH 722 0
DWIDTH 16 0
BBX 16 23 0 0
BITMAP
0110
0120
00C0
0080
0000
1FFF
0703
0602
0602
0E02
0E10
0C10
0C20
1FE0
1C60
1820
1820
3800
3802
3002
3004
700C
FFFC
ENDCHAR
STARTCHAR ecaron
ENCODING 283
SWIDTH 444 0
DWIDTH 12 0
BBX 10 17 1 0
BITMAP
0880
0900
0600
0400
0000
0F80
38C0
60C0
60C0
C180
C300
FC00
C000
C000
C040
6180
3E00
ENDCHAR
STARTCHAR Gcircumflex
ENCODING 284
SWIDTH 778 0
DWIDTH 18 0
BBX 16 23 1 0
BITMAP
0040
00C0
0120
0220
0000
03F9
0F0F
1C07
3802
3802
7002
7000
6000
E000
E000
E03F
E00C
E00C
E00C
6018
7018
3878
0F88
ENDCHAR
STARTCHAR gcircumflex
ENCODING 285
SWIDTH 537 0
DWIDTH 12 0
BBX 13 24 -1 -5
BITMAP
0080
0180
0240
0440
0000
0018
0038
07C0
1860
3030
3030
3030
3030
1860
0F80
3000
6000
7FC0
1FE0
6030
C030
C030
E060
3F80
ENDCHAR
STARTCHAR Gbreve
ENCODING 286
SWIDTH 778 0
DWIDTH 18 0
BBX 16 22 1 0
BITMAP
0410
0630
03E0
0000
03F9
0F0F
1C07
3802
3802
7002
7000
6000
E000
E000
E03F
E00C
E00C
E00C
6018
7018
3878
0F88
ENDCHAR
STARTCHAR gbreve
ENCODING 287
SWIDTH 537 0
DWIDTH 12 0
BBX 13 23 -1 -5
BITMAP
0820
0C60
07C0
0000
0018
0038
07C0
1860
3030
3030
3030
3030
1860
0F80
3000
6000
7FC0
1FE0
6030
C030
C030
E060
3F80
ENDCHAR
STARTCHAR Gdotaccent
ENCODING 288
SWIDTH 778 0
DWIDTH 18 0
BBX 16 21 1 0
BITMAP
00C0
00C0
0000
03F9
0F0F
1C07
3802
3802
7002
7000
6000
E000
E000
E03F
E00C
E00C
E00C
6018
7018
3878
0F88
ENDCHAR
STARTCHAR gdotaccent
ENCODING 289
SWIDTH 537 0
DWIDTH 12 0
BBX 13 22 -1 -5
BITMAP
0180
0180
0000
0018
0038
07C0
1860
3030
3030
3030
3030
1860
0F80
3000
6000
7FC0
1FE0
6030
C030
C030
E060
3F80
ENDCHAR
STARTCHAR Gcommaaccent
ENCODING 290
SWIDTH 778 0
DWIDTH 18 0
BBX 16 25 1 -7
BITMAP
03F9
0F0F
1C07
3802
3802
7002
7000
6000
E000
E000
E03F
E00C
E00C
E00C
6018
7018
3878
0F88
0000
0300
0380
0180
0100
0200
0400
ENDCHAR
STARTCHAR gcommaaccent
ENCODING 291
SWIDTH 537 0
DWIDTH 12 0
BBX 13 26 -1 -5
BITMAP
0040
0080
0100
0300
0380
0180
0000
0018
0038
07C0
1860
3030
3030
3030
3030
1860
0F80
3000
6000
7FC0
1FE0
6030
C030
C030
E060
3F80
ENDCHAR
STARTCHAR Hcircumflex
ENCODING 292
SWIDTH 833 0
DWIDTH 21 0
BBX 19 23 1 0
BITMAP
001000
003000
004800
008800
000000
1F87E0
0701C0
060180
060180
0E0380
0E0380
0C0300
0C0300
1FFF00
1C0700
180600
180600
380E00
380E00
300C00
300C00
701C00
FC3F00
ENDCHAR
STARTCHAR hcircumflex
ENCODING 293
SWIDTH 611 0
DWIDTH 15 0
BBX 13 23 1 0
BITMAP
0400
0C00
1200
2200
0000
7800
1800
1800
1800
3000
3000
30E0
3370
3430
7830
6030
6060
6060
C060
C0C0
C0C8
C0D0
C0E0
ENDCHAR
STARTCHAR Hbar
ENCODING 294
SWIDTH 833 0
DWIDTH 21 0
BBX 19 18 1 0
BITMAP
1F87E0
0701C0
060180
060180
0E0380
FFFFE0
0C0300
0C0300
1FFF00
1C0700
180600
180600
380E00
380E00
300C00
300C00
701C00
FC3F00
ENDCHAR
STARTCHAR hbar
ENCODING 295
SWIDTH 611 0
DWIDTH 15 0
BBX 14 18 0 0
BITMAP
3C00
0C00
0C00
0C00
FF80
1800
1870
19B8
1A18
3C18
3018
3030
3030
6030
6060
6064
6068
6070
ENDCHAR
STARTCHAR Itilde
ENCODING 296
SWIDTH 407 0
DWIDTH 11 0
BBX 9 21 1 0
BITMAP
3C80
4F00
0000
1F80
0700
0600
0600
0E00
0E00
0C00
0C00
1C00
1C00
1800
1800
3800
3800
3000
3000
7000
FC00
ENDCHAR
STARTCHAR itilde
ENCODING 297
SWIDTH 333 0
DWIDTH 8 0
BBX 8 15 0 0
BITMAP
79
9E
00
78
18
18
18
30
30
30
30
60
64
64
38
ENDCHAR
STARTCHAR Imacron
ENCODING 298
SWIDTH 407 0
DWIDTH 11 0
BBX 9 20 1 0
BITMAP
3F80
0000
1F80
0700
0600
0600
0E00
0E00
0C00
0C00
1C00
1C00
1800
1800
3800
3800
3000
3000
7000
FC00
ENDCHAR
STARTCHAR imacron
ENCODING 299
SWIDTH 333 0
DWIDTH 8 0
BBX 7 14 0 0
BITMAP
FE
00
78
18
18
18
30
30
30
30
60
64
64
38
ENDCHAR
STARTCHAR Ibreve
ENCODING 300
SWIDTH 407 0
DWIDTH 11 0
BBX 9 22 1 0
BITMAP
2080
3180
1F00
0000
1F80
0700
0600
0600
0E00
0E00
0C00
0C00
1C00
1C00
1800
1800
3800
3800
3000
3000
7000
FC00
ENDCHAR
STARTCHAR ibreve
ENCODING 301
SWIDTH 333 0
DWIDTH 8 0
BBX 7 16 0 0
BITMAP
82
C6
7C
00
78
18
18
18
30
30
30
30
60
64
64
38
ENDCHAR
STARTCHAR Iogonek
ENCODING 302
SWIDTH 407 0
DWIDTH 11 0
BBX 9 22 1 -4
BITMAP
1F80
0700
0600
0600
0E00
0E00
0C00
0C00
1C00
1C00
1800
1800
3800
3800
3000
3000
7000
FC00
1000
2000
2400
3800
ENDCHAR
STARTCHAR iogonek
ENCODING 303
SWIDTH 333 0
DWIDTH 7 0
BBX 5 22 1 -4
BITMAP
18
18
18
00
00
00
F0
30
30
30
60
60
60
60
C0
C8
C8
70
20
40
48
70
ENDCHAR
STARTCHAR Idotaccent
ENCODING 304
SWIDTH 407 0
DWIDTH 11 0
BBX 9 21 1 0
BITMAP
0600
0600
0000
1F80
0700
0600
0600
0E00
0E00
0C00
0C00
1C00
1C00
1800
1800
3800
3800
3000
3000
7000
FC00
ENDCHAR
STARTCHAR dotlessi
ENCODING 305
SWIDTH 333 0
DWIDTH 8 0
BBX 5 12 1 0
BITMAP
F0
30
30
30
60
60
60
60
C0
C8
C8
70
ENDCHAR
STARTCHAR IJ
ENCODING 306
SWIDTH 998 0
DWIDTH 24 0
BBX 22 18 1 0
BITMAP
1F80FC
070038
060030
060030
0E0070
0E0070
0C0060
0C0060
1C00E0
1C00E0
1800C0
1800C0
3831C0
3871C0
307180
304180
706300
FC3E00
ENDCHAR
STARTCHAR ij
ENCODING 307
SWIDTH 631 0
DWIDTH 14 0
BBX 12 23 1 -5
BITMAP
1830
1830
1830
0000
0000
0000
F1E0
3060
3060
3060
6060
60C0
60C0
60C0
C0C0
C8C0
C980
7180
0180
0180
3100
3300
3C00
ENDCHAR
STARTCHAR Jcircumflex
ENCODING 308
SWIDTH 611 0
DWIDTH 14 0
BBX 13 23 0 0
BITMAP
0040
00C0
0120
0220
0000
01F8
0070
0060
0060
00E0
00E0
00C0
00C0
01C0
01C0
0180
0180
6380
E380
E300
8300
C600
7C00
ENDCHAR
STARTCHAR jcircumflex
ENCODING 309
SWIDTH 315 0
DWIDTH 7 0
BBX 10 22 -4 -5
BITMAP
0100
0300
0480
0880
0000
0780
0180
0180
0180
0180
0300
0300
0300
0300
0300
0600
0600
0600
0600
C400
CC00
F000
ENDCHAR
STARTCHAR Kcommaaccent
ENCODING 310
SWIDTH 741 0
DWIDTH 19 0
BBX 18 25 1 -7
BITMAP
1F8FC0
070300
060600
060C00
0E1800
0E3000
0C6000
0CC000
1DC000
1FE000
1C6000
187000
383000
383800
301800
301C00
700C00
FC1F00
000000
018000
01C000
00C000
008000
010000
020000
ENDCHAR
STARTCHAR kcommaaccent
ENCODING 311
SWIDTH 556 0
DWIDTH 13 0
BBX 12 25 1 -7
BITMAP
7800
1800
1800
1800
3000
3000
31C0
3660
3860
6060
60C0
6300
7E00
C300
C300
C190
C190
C0E0
0000
0C00
0E00
0600
0400
0800
1000
ENDCHAR
STARTCHAR kgreenlandic
ENCODING 312
SWIDTH 556 0
DWIDTH 13 0
BBX 12 12 1 0
BITMAP
31C0
3660
3860
6060
60C0
6300
7E00
C300
C300
C190
C190
C0E0
ENDCHAR
STARTCHAR Lacute
ENCODING 313
SWIDTH 667 0
DWIDTH 16 0
BBX 15 23 0 0
BITMAP
00C0
0180
0200
0400
0000
1F80
0700
0600
0600
0E00
0E00
0C00
0C00
1C00
1C00
1800
1800
3800
3802
3002
3004
700C
FFFC
ENDCHAR
STARTCHAR lacute
ENCODING 314
SWIDTH 333 0
DWIDTH 7 0
BBX 7 23 1 0
BITMAP
06
0C
10
20
00
78
18
18
18
30
30
30
30
30
60
60
60
60
C0
C0
C8
C8
70
ENDCHAR
STARTCHAR Lcommaaccent
ENCODING 315
SWIDTH 667 0
DWIDTH 16 0
BBX 15 25 0 -7
BITMAP
1F80
0700
0600
0600
0E00
0E00
0C00
0C00
1C00
1C00
1800
1800
3800
3802
3002
3004
700C
FFFC
0000
0300
0380
0180
0100
0200
0400
ENDCHAR
STARTCHAR lcommaaccent
ENCODING 316
SWIDTH 333 0
DWIDTH 7 0
BBX 5 25 1 -7
BITMAP
78
18
18
18
30
30
30
30
30
60
60
60
60
C0
C0
C8
C8
70
00
60
70
30
20
40
80
ENDCHAR
STARTCHAR Lcaron
ENCODING 317
SWIDTH 838 0
DWIDTH 21 0
BBX 20 18 0 0
BITMAP
1F8060
070070
060030
060020
0E0040
0E0080
0C0000
0C0000
1C0000
1C0000
180000
180000
380000
380200
300200
300400
700C00
FFFC00
ENDCHAR
STARTCHAR lcaron
ENCODING 318
SWIDTH 520 0
DWIDTH 13 0
BBX 11 18 1 0
BITMAP
78C0
18E0
1860
1840
3080
3100
3000
3000
3000
6000
6000
6000
6000
C000
C000
C800
C800
7000
ENDCHAR
STARTCHAR Ldot
ENCODING 319
SWIDTH 912 0
DWIDTH 22 0
BBX 20 18 0 0
BITMAP
1F8000
070000
060000
060000
0E0000
0E0000
0C0000
0C0000
1C0000
1C0070
180070
180070
380000
380200
300200
300400
700C00
FFFC00
ENDCHAR
STARTCHAR ldot
ENCODING 320
SWIDTH 594 0
DWIDTH 14 0
BBX 11 18 1 0
BITMAP
7800
1800
1800
1800
3000
3000
3000
3000
3000
60E0
60E0
60E0
6000
C000
C000
C800
C800
7000
ENDCHAR
STARTCHAR Lslash
ENCODING 321
SWIDTH 667 0
DWIDTH 17 0
BBX 15 18 1 0
BITMAP
1F80
0600
0600
0600
0600
0C00
0CC0
0F00
0C00
1800
7800
1800
1800
3002
3002
3004
300C
FFFC
ENDCHAR
STARTCHAR lslash
ENCODING 322
SWIDTH 333 0
DWIDTH 7 0
BBX 8 18 0 0
BITMAP
3C
0C
0C
0C
18
1B
1C
38
D8
30
30
30
30
60
60
64
64
38
ENDCHAR
STARTCHAR Nacute
ENCODING 323
SWIDTH 815 0
DWIDTH 21 0
BBX 21 23 0 0
BITMAP
000C00
001800
002000
004000
000000
1E01F8
070060
070040
078040
058040
05C0C0
0CC080
08E080
087080
083180
183900
101900
101D00
100F00
300E00
200600
300600
FC0200
ENDCHAR
STARTCHAR nacute
ENCODING 324
SWIDTH 611 0
DWIDTH 15 0
BBX 13 17 1 0
BITMAP
00C0
0180
0200
0400
0000
F0E0
3370
3430
3830
6030
6060
6060
6060
C0C0
C0C8
C0D0
C0E0
ENDCHAR
STARTCHAR Ncommaaccent
ENCODING 325
SWIDTH 815 0
DWIDTH 21 0
BBX 21 25 0 -7
BITMAP
1E01F8
070060
070040
078040
058040
05C0C0
0CC080
08E080
087080
083180
183900
101900
101D00
100F00
300E00
200600
300600
FC0200
000000
00C000
00E000
006000
004000
008000
010000
ENDCHAR
STARTCHAR ncommaaccent
ENCODING 326
SWIDTH 611 0
DWIDTH 15 0
BBX 13 19 1 -7
BITMAP
F0E0
3370
3430
3830
6030
6060
6060
6060
C0C0
C0C8
C0D0
C0E0
0000
0600
0700
0300
0200
0400
0800
ENDCHAR
STARTCHAR Ncaron
ENCODING 327
SWIDTH 815 0
DWIDTH 21 0
BBX 21 23 0 0
BITMAP
004400
004800
003000
002000
000000
1E01F8
070060
070040
078040
058040
05C0C0
0CC080
08E080
087080
083180
183900
101900
101D00
100F00
300E00
200600
300600
FC0200
ENDCHAR
STARTCHAR ncaron
ENCODING 328
SWIDTH 611 0
DWIDTH 15 0
BBX 13 17 1 0
BITMAP
0880
0900
0600
0400
0000
F0E0
3370
3430
3830
6030
6060
6060
6060
C0C0
C0C8
C0D0
C0E0
ENDCHAR
STARTCHAR napostrophe
ENCODING 329
SWIDTH 805 0
DWIDTH 21 0
BBX 19 18 1 0
BITMAP
600000
700000
300000
200000
400000
800000
03C380
00CDC0
00D0C0
00E0C0
0180C0
018180
018180
018180
030300
030320
030340
030380
ENDCHAR
STARTCHAR Eng
ENCODING 330
SWIDTH 815 0
DWIDTH 21 0
BBX 21 23 0 -5
BITMAP
1E01F8
070060
070040
078040
058040
05C0C0
0CC080
08E080
087080
083180
183900
101900
101D00
100F00
300F00
200700
300600
FC0600
000600
000600
00C400
00CC00
00F000
ENDCHAR
STARTCHAR eng
ENCODING 331
SWIDTH 611 0
DWIDTH 15 0
BBX 12 17 1 -5
BITMAP
F0E0
3370
3430
3830
6030
6060
6060
6060
C060
C060
C0C0
C0C0
00C0
00C0
1880
1980
1E00
ENDCHAR
STARTCHAR Omacron
ENCODING 332
SWIDTH 778 0
DWIDTH 18 0
BBX 16 20 1 0
BITMAP
07F0
0000
03F0
0F1C
1C0E
3806
3007
7007
7007
6007
E007
E007
E006
E00E
E00E
E00C
601C
7038
38F0
0FC0
ENDCHAR
STARTCHAR omacron
ENCODING 333
SWIDTH 500 0
DWIDTH 13 0
BBX 11 14 1 0
BITMAP
3F80
0000
0F80
38C0
6060
6060
C060
C060
C060
C060
C0C0
C0C0
6380
3E00
ENDCHAR
STARTCHAR Obreve
ENCODING 334
SWIDTH 778 0
DWIDTH 18 0
BBX 16 22 1 0
BITMAP
0410
0630
03E0
0000
03F0
0F1C
1C0E
3806
3007
7007
7007
6007
E007
E007
E006
E00E
E00E
E00C
601C
7038
38F0
0FC0
ENDCHAR
STARTCHAR obreve
ENCODING 335
SWIDTH 500 0
DWIDTH 13 0
BBX 11 16 1 0
BITMAP
2080
3180
1F00
0000
0F80
38C0
6060
6060
C060
C060
C060
C060
C0C0
C0C0
6380
3E00
ENDCHAR
STARTCHAR Ohungarumlaut
ENCODING 336
SWIDTH 778 0
DWIDTH 18 0
BBX 16 23 1 0
BITMAP
00CC
0198
0220
0440
0000
03F0
0F1C
1C0E
3806
3007
7007
7007
6007
E007
E007
E006
E00E
E00E
E00C
601C
7038
38F0
0FC0
ENDCHAR
STARTCHAR ohungarumlaut
ENCODING 337
SWIDTH 500 0
DWIDTH 13 0
BBX 11 17 1 0
BITMAP
0660
0CC0
1100
2200
0000
0F80
38C0
6060
6060
C060
C060
C060
C060
C0C0
C0C0
6380
3E00
ENDCHAR
STARTCHAR OE
ENCODING 338
SWIDTH 981 0
DWIDTH 26 0
BBX 24 18 1 0
BITMAP
03FFFF
0E0603
180602
300602
300602
600C10
600C10
600C20
C00FE0
C01860
C01820
C01820
C01800
C03002
C03002
603004
70300C
1FFFFC
ENDCHAR
STARTCHAR oe
ENCODING 339
SWIDTH 778 0
DWIDTH 21 0
BBX 19 12 1 0
BITMAP
0F87C0
30D860
607060
607060
C060C0
C06180
C07E00
C06000
C0E000
C0E020
61B0C0
3E1F00
ENDCHAR
STARTCHAR Racute
ENCODING 340
SWIDTH 741 0
DWIDTH 19 0
BBX 16 23 1 0
BITMAP
0018
0030
0040
0080
0000
1FF8
070E
0607
0607
0E07
0E06
0C0E
0C1C
1FF0
1C30
1838
1818
3818
3818
3018
3019
7019
FC0E
ENDCHAR
STARTCHAR racute
ENCODING 341
SWIDTH 444 0
DWIDTH 11 0
BBX 10 17 1 0
BITMAP
0180
0300
0400
0800
0000
F180
37C0
38C0
3000
6000
6000
6000
6000
C000
C000
C000
C000
ENDCHAR
STARTCHAR Rcommaaccent
ENCODING 342
SWIDTH 741 0
DWIDTH 19 0
BBX 16 25 1 -7
BITMAP
1FF8
070E
0607
0607
0E07
0E06
0C0E
0C1C
1FF0
1C30
1838
1818
3818
3818
3018
3019
7019
FC0E
0000
0300
0380
0180
0100
0200
0400
ENDCHAR
STARTCHAR rcommaaccent
ENCODING 343
SWIDTH 444 0
DWIDTH 11 0
BBX 10 19 1 -7
BITMAP
F180
37C0
38C0
3000
6000
6000
6000
6000
C000
C000
C000
C000
0000
6000
7000
3000
2000
4000
8000
ENDCHAR
STARTCHAR Rcaron
ENCODING 344
SWIDTH 741 0
DWIDTH 19 0
BBX 16 23 1 0
BITMAP
0110
0120
00C0
0080
0000
1FF8
070E
0607
0607
0E07
0E06
0C0E
0C1C
1FF0
1C30
1838
1818
3818
3818
3018
3019
7019
FC0E
ENDCHAR
STARTCHAR rcaron
ENCODING 345
SWIDTH 444 0
DWIDTH 11 0
BBX 10 17 1 0
BITMAP
1100
1200
0C00
0800
0000
F180
37C0
38C0
3000
6000
6000
6000
6000
C000
C000
C000
C000
ENDCHAR
STARTCHAR Sacute
ENCODING 346
SWIDTH 667 0
DWIDTH 16 0
BBX 14 23 1 0
BITMAP
0060
00C0
0100
0200
0000
03E4
0E3C
181C
3008
3008
3008
3800
1E00
0F80
03E0
00F0
0038
4018
4018
4018
E030
F0E0
9F80
ENDCHAR
STARTCHAR sacute
ENCODING 347
SWIDTH 444 0
DWIDTH 12 0
BBX 10 17 1 0
BITMAP
0180
0300
0400
0800
0000
0F80
30C0
21C0
6180
7800
3E00
0F00
0780
6180
E100
C300
7C00
ENDCHAR
STARTCHAR Scircumflex
ENCODING 348
SWIDTH 667 0
DWIDTH 16 0
BBX 14 23 1 0
BITMAP
0080
0180
0240
0440
0000
03E4
0E3C
181C
3008
3008
3008
3800
1E00
0F80
03E0
00F0
0038
4018
4018
4018
E030
F0E0
9F80
ENDCHAR
STARTCHAR scircumflex
ENCODING 349
SWIDTH 444 0
DWIDTH 12 0
BBX 10 17 1 0
BITMAP
0200
0600
0900
1100
0000
0F80
30C0
21C0
6180
7800
3E00
0F00
0780
6180
E100
C300
7C00
ENDCHAR
STARTCHAR Scedilla
ENCODING 350
SWIDTH 667 0
DWIDTH 16 0
BBX 14 22 1 -4
BITMAP
03E4
0E3C
181C
3008
3008
3008
3800
1E00
0F80
03E0
00F0
0038
4018
4018
4018
E030
F0E0
9F80
0200
0700
0100
0E00
ENDCHAR
STARTCHAR scedilla
ENCODING 351
SWIDTH 444 0
DWIDTH 12 0
BBX 10 16 1 -4
BITMAP
0F80
30C0
21C0
6180
7800
3E00
0F00
0780
6180
E100
C300
7C00
0800
1C00
0400
3800
ENDCHAR
STARTCHAR Scaron
ENCODING 352
SWIDTH 667 0
DWIDTH 16 0
BBX 13 18 1 0
BITMAP
0110
0120
00C0
0080
0000
07C8
0C78
1830
1810
1C10
0E00
0700
0380
41C0
40E0
60E0
F1C0
9F00
ENDCHAR
STARTCHAR scaron
ENCODING 353
SWIDTH 444 0
DWIDTH 12 0
BBX 10 17 1 0
BITMAP
0880
0900
0600
0400
0000
0F80
30C0
21C0
6180
7800
3E00
0F00
0780
6180
E100
C300
7C00
ENDCHAR
STARTCHAR Tcommaaccent
ENCODING 354
SWIDTH 685 0
DWIDTH 17 0
BBX 15 22 2 -4
BITMAP
7FFE
61C6
4182
8182
8382
0380
0300
0300
0700
0700
0600
0600
0E00
0E00
0C00
0C00
1C00
3F00
0200
0700
0100
0E00
ENDCHAR
STARTCHAR tcommaaccent
ENCODING 355
SWIDTH 352 0
DWIDTH 8 0
BBX 7 20 1 -4
BITMAP
18
18
18
18
FE
30
30
30
60
60
60
60
C0
C4
C8
70
20
70
10
E0
ENDCHAR
STARTCHAR Tcaron
ENCODING 356
SWIDTH 685 0
DWIDTH 17 0
BBX 15 23 2 0
BITMAP
0220
0240
0180
0100
0000
7FFE
61C6
4182
8182
8382
0380
0300
0300
0700
0700
0600
0600
0E00
0E00
0C00
0C00
1C00
3F00
ENDCHAR
STARTCHAR tcaron
ENCODING 357
SWIDTH 538 0
DWIDTH 14 0
BBX 12 18 1 0
BITMAP
0060
0070
1830
1820
1840
1880
FE00
3000
3000
3000
6000
6000
6000
6000
C000
C400
C800
7000
ENDCHAR
STARTCHAR Tbar
ENCODING 358
SWIDTH 685 0
DWIDTH 17 0
BBX 15 18 2 0
BITMAP
7FFE
61C6
4182
8182
8382
0380
0300
0300
1FF0
0700
0600
0600
0E00
0E00
0C00
0C00
1C00
3F00
ENDCHAR
STARTCHAR tbar
ENCODING 359
SWIDTH 352 0
DWIDTH 8 0
BBX 9 16 0 0
BITMAP
0C00
0C00
0C00
0C00
7F00
1800
1800
1800
3000
FF80
3000
3000
6000
6200
6400
3800
ENDCHAR
STARTCHAR Utilde
ENCODING 360
SWIDTH 815 0
DWIDTH 19 0
BBX 18 21 1 0
BITMAP
03C800
04F000
000000
7E07C0
1C0100
180100
180100
380300
380200
300200
300200
700600
700400
600400
600400
E00C00
E00800
E00800
E01800
707000
3FC000
ENDCHAR
STARTCHAR utilde
ENCODING 361
SWIDTH 611 0
DWIDTH 15 0
BBX 13 15 1 0
BITMAP
1E40
2780
0000
F030
3030
3030
3030
6060
6060
6060
C0C0
C1C0
C2C8
ECD0
70E0
ENDCHAR
STARTCHAR Umacron
ENCODING 362
SWIDTH 815 0
DWIDTH 19 0
BBX 18 20 1 0
BITMAP
07F000
000000
7E07C0
1C0100
180100
180100
380300
380200
300200
300200
700600
700400
600400
600400
E00C00
E00800
E00800
E01800
707000
3FC000
ENDCHAR
STARTCHAR umacron
ENCODING 363
SWIDTH 611 0
DWIDTH 15 0
BBX 13 14 1 0
BITMAP
1FC0
0000
F030
3030
3030
3030
6060
6060
6060
C0C0
C1C0
C2C8
ECD0
70E0
ENDCHAR
STARTCHAR Ubreve
ENCODING 364
SWIDTH 815 0
DWIDTH 19 0
BBX 18 22 1 0
BITMAP
041000
063000
03E000
000000
7E07C0
1C0100
180100
180100
380300
380200
300200
300200
700600
700400
600400
600400
E00C00
E00800
E00800
E01800
707000
3FC000
ENDCHAR
STARTCHAR ubreve
ENCODING 365
SWIDTH 611 0
DWIDTH 15 0
BBX 13 16 1 0
BITMAP
1040
18C0
0F80
0000
F030
3030
3030
3030
6060
6060
6060
C0C0
C1C0
C2C8
ECD0
70E0
ENDCHAR
STARTCHAR Uring
ENCODING 366
SWIDTH 815 0
DWIDTH 19 0
BBX 18 24 1 0
BITMAP
01C000
022000
022000
022000
01C000
000000
7E07C0
1C0100
180100
180100
380300
380200
300200
300200
700600
700400
600400
600400
E00C00
E00800
E00800
E01800
707000
3FC000
ENDCHAR
STARTCHAR uring
ENCODING 367
SWIDTH 611 0
DWIDTH 15 0
BBX 13 18 1 0
BITMAP
0700
0880
0880
0880
0700
0000
F030
3030
3030
3030
6060
6060
6060
C0C0
C1C0
C2C8
ECD0
70E0
ENDCHAR
STARTCHAR Uhungarumlaut
ENCODING 368
SWIDTH 815 0
DWIDTH 19 0
BBX 18 23 1 0
BITMAP
00CC00
019800
022000
044000
000000
7E07C0
1C0100
180100
180100
380300
380200
300200
300200
700600
700400
600400
600400
E00C00
E00800
E00800
E01800
707000
3FC000
ENDCHAR
STARTCHAR uhungarumlaut
ENCODING 369
SWIDTH 611 0
DWIDTH 15 0
BBX 13 17 1 0
BITMAP
0330
0660
0880
1100
0000
F030
3030
3030
3030
6060
6060
6060
C0C0
C1C0
C2C8
ECD0
70E0
ENDCHAR
STARTCHAR Uogonek
ENCODING 370
SWIDTH 815 0
DWIDTH 19 0
BBX 18 22 1 -4
BITMAP
7E07C0
1C0100
180100
180100
380300
380200
300200
300200
700600
700400
600400
600400
E00C00
E00800
E00800
E01800
707000
3FC000
020000
040000
048000
070000
ENDCHAR
STARTCHAR uogonek
ENCODING 371
SWIDTH 611 0
DWIDTH 15 0
BBX 13 16 1 -4
BITMAP
F030
3030
3030
3030
6060
6060
6060
C0C0
C1C0
C2C8
ECD0
70E0
0200
0400
0480
0700
ENDCHAR
STARTCHAR Wcircumflex
ENCODING 372
SWIDTH 926 0
DWIDTH 24 0
BBX 23 23 1 0
BITMAP
001000
003000
004800
008800
000000
FC7E3E
70180C
301808
303808
383C18
382C10
186C30
184C20
184C20
1CCE60
1C8E40
0C8640
0D86C0
0D0680
0D0680
0E0700
060300
040200
ENDCHAR
STARTCHAR wcircumflex
ENCODING 373
SWIDTH 778 0
DWIDTH 20 0
BBX 18 17 1 0
BITMAP
004000
00C000
012000
022000
000000
F06180
3061C0
3060C0
306040
306040
60C040
60C040
60C080
60C080
60C100
316200
1E3C00
ENDCHAR
STARTCHAR Ycircumflex
ENCODING 374
SWIDTH 685 0
DWIDTH 17 0
BBX 17 23 1 0
BITMAP
008000
018000
024000
044000
000000
FC1F80
300600
380C00
180800
1C1000
0C3000
0E2000
064000
07C000
038000
030000
030000
070000
070000
060000
060000
060000
1F8000
ENDCHAR
STARTCHAR ycircumflex
ENCODING 375
SWIDTH 500 0
DWIDTH 13 0
BBX 13 22 -1 -5
BITMAP
0100
0300
0480
0880
0000
1818
3C18
4C08
0C10
0610
0620
0620
0340
0340
0380
0100
0100
0200
0200
C400
C800
7000
ENDCHAR
STARTCHAR Ydieresis
ENCODING 376
SWIDTH 685 0
DWIDTH 17 0
BBX 14 18 1 0
BITMAP
0660
0660
0000
0000
0000
0000
F03C
6018
3020
1840
0C80
0780
0300
0300
0200
0600
0600
0F00
ENDCHAR
STARTCHAR Zacute
ENCODING 377
SWIDTH 667 0
DWIDTH 16 0
BBX 16 23 0 0
BITMAP
0018
0030
0040
0080
0000
1FFF
1807
100E
201C
2038
0070
00F0
01E0
01C0
0380
0700
0F00
1E00
1C04
3804
7008
E018
FFF8
ENDCHAR
STARTCHAR zacute
ENCODING 378
SWIDTH 463 0
DWIDTH 13 0
BBX 11 17 1 0
BITMAP
00C0
0180
0200
0400
0000
1E20
3FE0
40C0
4180
0300
0E00
1800
3000
6040
C040
FF80
9F00
ENDCHAR
STARTCHAR Zdotaccent
ENCODING 379
SWIDTH 667 0
DWIDTH 16 0
BBX 16 21 0 0
BITMAP
00C0
00C0
0000
1FFF
1807
100E
201C
2038
0070
00F0
01E0
01C0
0380
0700
0F00
1E00
1C04
3804
7008
E018
FFF8
ENDCHAR
STARTCHAR zdotaccent
ENCODING 380
SWIDTH 463 0
DWIDTH 13 0
BBX 11 15 1 0
BITMAP
0600
0600
0000
1E20
3FE0
40C0
4180
0300
0E00
1800
3000
6040
C040
FF80
9F00
ENDCHAR
STARTCHAR Zcaron
ENCODING 381
SWIDTH 667 0
DWIDTH 16 0
BBX 16 18 0 0
BITMAP
0088
0090
0060
0040
0000
1FFF
180E
101C
2038
2070
00E0
0380
0700
0E04
1C04
3808
7018
FFF8
ENDCHAR
STARTCHAR zcaron
ENCODING 382
SWIDTH 463 0
DWIDTH 13 0
BBX 11 17 1 0
BITMAP
0440
0480
0300
0200
0000
1E20
3FE0
40C0
4180
0300
0E00
1800
3000
6040
C040
FF80
9F00
ENDCHAR
STARTCHAR uni0186
ENCODING 390
SWIDTH 722 0
DWIDTH 18 0
BBX 16 18 1 0
BITMAP
03F0
0C1C
100E
1006
2007
2007
0007
0007
0007
0007
0006
000E
400E
400C
401C
E038
F0F0
9FC0
ENDCHAR
STARTCHAR uni0189
ENCODING 393
SWIDTH 778 0
DWIDTH 19 0
BBX 17 18 0 0
BITMAP
1FFC00
060700
060300
060180
060180
0C0180
0C0180
0C0180
7F8180
180180
180300
180300
180300
300600
300600
300C00
303800
FFE000
ENDCHAR
STARTCHAR uni018E
ENCODING 398
SWIDTH 722 0
DWIDTH 16 0
BBX 16 18 0 0
BITMAP
3FFF
300E
200C
400C
401C
001C
0418
0418
0638
07F8
0430
0830
0870
4070
4060
4060
C0E0
FFF8
ENDCHAR
STARTCHAR florin
ENCODING 402
SWIDTH 556 0
DWIDTH 14 0
BBX 15 23 -1 -5
BITMAP
001C
0066
004E
00CC
00C0
00C0
00C0
07F8
0180
0180
0180
0180
0300
0300
0300
0300
0300
0600
0600
6600
E400
CC00
7000
ENDCHAR
STARTCHAR uni0197
ENCODING 407
SWIDTH 407 0
DWIDTH 11 0
BBX 9 18 1 0
BITMAP
1F80
0700
0600
0600
0E00
0E00
0C00
0C00
FF80
1C00
1800
1800
3800
3800
3000
3000
7000
FC00
ENDCHAR
STARTCHAR uni019A
ENCODING 410
SWIDTH 333 0
DWIDTH 7 0
BBX 9 18 -1 0
BITMAP
1E00
0600
0600
0600
0C00
0C00
0C00
0C00
FF80
1800
1800
1800
1800
3000
3000
3200
3200
1C00
ENDCHAR
STARTCHAR uni019D
ENCODING 413
SWIDTH 815 0
DWIDTH 21 0
BBX 24 23 -3 -5
BITMAP
03C03F
00E00C
00E008
00F008
00B008
00B818
019810
011C10
010E10
010630
030720
020320
0203A0
0301E0
0301C0
0300C0
0600C0
060040
060000
060000
C40000
CC0000
F00000
ENDCHAR
STARTCHAR uni019F
ENCODING 415
SWIDTH 778 0
DWIDTH 18 0
BBX 16 18 1 0
BITMAP
03F0
0F1C
1C0E
3806
3007
7007
7007
6007
FFFF
E007
E006
E00E
E00E
E00C
601C
7038
38F0
0FC0
ENDCHAR
STARTCHAR Ohorn
ENCODING 416
SWIDTH 778 0
DWIDTH 18 0
BBX 19 18 1 0
BITMAP
03F0C0
0F1CE0
1C0E60
380640
300780
700700
700700
600700
E00700
E00700
E00600
E00E00
E00E00
E00C00
601C00
703800
38F000
0FC000
ENDCHAR
STARTCHAR ohorn
ENCODING 417
SWIDTH 500 0
DWIDTH 13 0
BBX 14 12 1 0
BITMAP
0F98
38DC
606C
6068
C070
C060
C060
C060
C0C0
C0C0
6380
3E00
ENDCHAR
STARTCHAR Uhorn
ENCODING 431
SWIDTH 815 0
DWIDTH 19 0
BBX 20 18 1 0
BITMAP
7E07E0
1C0170
180130
180120
380340
380280
300200
300200
700600
700400
600400
600400
E00C00
E00800
E00800
E01800
707000
3FC000
ENDCHAR
STARTCHAR uhorn
ENCODING 432
SWIDTH 611 0
DWIDTH 15 0
BBX 16 12 1 0
BITMAP
F036
3037
3033
3032
6064
6068
6060
C0C0
C1C0
C2C8
ECD0
70E0
ENDCHAR
STARTCHAR uni01B5
ENCODING 437
SWIDTH 667 0
DWIDTH 16 0
BBX 16 18 0 0
BITMAP
1FFF
1807
100E
201C
2038
0070
00F0
01E0
0FF8
0380
0700
0F00
1E00
1C04
3804
7008
E018
FFF8
ENDCHAR
STARTCHAR uni01B6
ENCODING 438
SWIDTH 463 0
DWIDTH 13 0
BBX 11 12 1 0
BITMAP
1E20
3FE0
40C0
4180
0300
7FC0
1800
3000
6040
C040
FF80
9F00
ENDCHAR
STARTCHAR uni01BB
ENCODING 443
SWIDTH 556 0
DWIDTH 13 0
BBX 12 18 0 0
BITMAP
07C0
1860
3030
3030
3830
1830
0060
0060
FFF0
0180
0300
0600
0C00
1820
3020
6040
FFC0
FFC0
ENDCHAR
STARTCHAR uni01BC
ENCODING 444
SWIDTH 556 0
DWIDTH 13 0
BBX 12 18 0 0
BITMAP
0FF0
0FE0
0800
0800
1000
1000
1000
1F80
30C0
2060
0060
0060
0060
6060
E0C0
C0C0
4380
3E00
ENDCHAR
STARTCHAR uni01C0
ENCODING 448
SWIDTH 606 0
DWIDTH 14 0
BBX 1 18 6 0
BITMAP
80
80
80
80
80
80
80
80
80
80
80
80
80
80
80
80
80
80
ENDCHAR
STARTCHAR uni01C2
ENCODING 450
SWIDTH 606 0
DWIDTH 15 0
BBX 13 18 1 -2
BITMAP
0200
0200
0200
0200
0200
0200
0200
FFF8
0200
0200
0200
FFF8
0200
0200
0200
0200
0200
0200
ENDCHAR
STARTCHAR uni01C3
ENCODING 451
SWIDTH 333 0
DWIDTH 7 0
BBX 6 18 0 0
BITMAP
0C
0C
0C
0C
18
18
18
18
30
30
30
20
20
00
00
C0
C0
C0
ENDCHAR
STARTCHAR uni01CD
ENCODING 461
SWIDTH 704 0
DWIDTH 18 0
BBX 18 23 -1 0
BITMAP
008800
009000
006000
004000
000000
003000
003000
007800
005800
00D800
009800
019C00
011C00
030C00
020C00
060E00
07FE00
0C0600
080600
180700
100300
300300
FC0FC0
ENDCHAR
STARTCHAR uni01CE
ENCODING 462
SWIDTH 574 0
DWIDTH 15 0
BBX 13 17 1 0
BITMAP
0440
0480
0300
0200
0000
0F30
38B0
6070
6030
C060
C060
C060
C060
C0C0
C1C8
62D0
3CE0
ENDCHAR
STARTCHAR uni01CF
ENCODING 463
SWIDTH 407 0
DWIDTH 11 0
BBX 9 23 1 0
BITMAP
1100
1200
0C00
0800
0000
1F80
0700
0600
0600
0E00
0E00
0C00
0C00
1C00
1C00
1800
1800
3800
3800
3000
3000
7000
FC00
ENDCHAR
STARTCHAR uni01D0
ENCODING 464
SWIDTH 333 0
DWIDTH 8 0
BBX 6 17 1 0
BITMAP
44
48
30
20
00
F0
30
30
30
60
60
60
60
C0
C8
C8
70
ENDCHAR
STARTCHAR uni01D1
ENCODING 465
SWIDTH 778 0
DWIDTH 18 0
BBX 16 23 1 0
BITMAP
0110
0120
00C0
0080
0000
03F0
0F1C
1C0E
3806
3007
7007
7007
6007
E007
E007
E006
E00E
E00E
E00C
601C
7038
38F0
0FC0
ENDCHAR
STARTCHAR uni01D2
ENCODING 466
SWIDTH 500 0
DWIDTH 13 0
BBX 11 17 1 0
BITMAP
0880
0900
0600
0400
0000
0F80
38C0
6060
6060
C060
C060
C060
C060
C0C0
C0C0
6380
3E00
ENDCHAR
STARTCHAR uni01D3
ENCODING 467
SWIDTH 815 0
DWIDTH 19 0
BBX 18 23 1 0
BITMAP
011000
012000
00C000
008000
000000
7E07C0
1C0100
180100
180100
380300
380200
300200
300200
700600
700400
600400
600400
E00C00
E00800
E00800
E01800
707000
3FC000
ENDCHAR
STARTCHAR uni01D4
ENCODING 468
SWIDTH 611 0
DWIDTH 15 0
BBX 13 17 1 0
BITMAP
0880
0900
0600
0400
0000
F030
3030
3030
3030
6060
6060
6060
C0C0
C1C0
C2C8
ECD0
70E0
ENDCHAR
STARTCHAR uni01D5
ENCODING 469
SWIDTH 815 0
DWIDTH 19 0
BBX 18 24 1 0
BITMAP
03F800
000000
018C00
018C00
000000
000000
7E07C0
1C0100
180100
180100
380300
380200
300200
300200
700600
700400
600400
600400
E00C00
E00800
E00800
E01800
707000
3FC000
ENDCHAR
STARTCHAR uni01D6
ENCODING 470
SWIDTH 611 0
DWIDTH 15 0
BBX 13 17 1 0
BITMAP
1FC0
0000
0CC0
0CC0
0000
F030
3030
3030
3030
6060
6060
6060
C0C0
C1C0
C2C8
ECD0
70E0
ENDCHAR
STARTCHAR uni01D7
ENCODING 471
SWIDTH 815 0
DWIDTH 19 0
BBX 18 27 1 0
BITMAP
001800
003000
004000
008000
000000
018C00
018C00
000000
000000
7E07C0
1C0100
180100
180100
380300
380200
300200
300200
700600
700400
600400
600400
E00C00
E00800
E00800
E01800
707000
3FC000
ENDCHAR
STARTCHAR uni01D8
ENCODING 472
SWIDTH 611 0
DWIDTH 15 0
BBX 13 20 1 0
BITMAP
00C0
0180
0200
0400
0000
0CC0
0CC0
0000
F030
3030
3030
3030
6060
6060
6060
C0C0
C1C0
C2C8
ECD0
70E0
ENDCHAR
STARTCHAR uni01D9
ENCODING 473
SWIDTH 815 0
DWIDTH 19 0
BBX 18 27 1 0
BITMAP
011000
012000
00C000
008000
000000
018C00
018C00
000000
000000
7E07C0
1C0100
180100
180100
380300
380200
300200
300200
700600
700400
600400
600400
E00C00
E00800
E00800
E01800
707000
3FC000
ENDCHAR
STARTCHAR uni01DA
ENCODING 474
SWIDTH 611 0
DWIDTH 15 0
BBX 13 20 1 0
BITMAP
0880
0900
0600
0400
0000
0CC0
0CC0
0000
F030
3030
3030
3030
6060
6060
6060
C0C0
C1C0
C2C8
ECD0
70E0
ENDCHAR
STARTCHAR uni01DB
ENCODING 475
SWIDTH 815 0
DWIDTH 19 0
BBX 18 27 1 0
BITMAP
030000
018000
004000
002000
000000
018C00
018C00
000000
000000
7E07C0
1C0100
180100
180100
380300
380200
300200
300200
700600
700400
600400
600400
E00C00
E00800
E00800
E01800
707000
3FC000
ENDCHAR
STARTCHAR uni01DC
ENCODING 476
SWIDTH 611 0
DWIDTH 15 0
BBX 13 20 1 0
BITMAP
1800
0C00
0200
0100
0000
0CC0
0CC0
0000
F030
3030
3030
3030
6060
6060
6060
C0C0
C1C0
C2C8
ECD0
70E0
ENDCHAR
STARTCHAR uni01DD
ENCODING 477
SWIDTH 444 0
DWIDTH 12 0
BBX 10 12 1 0
BITMAP
1F00
6180
80C0
00C0
00C0
0FC0
30C0
60C0
C180
C180
C700
7C00
ENDCHAR
STARTCHAR uni01DE
ENCODING 478
SWIDTH 704 0
DWIDTH 18 0
BBX 18 24 -1 0
BITMAP
01FC00
000000
00CC00
00CC00
000000
000000
003000
003000
007800
005800
00D800
009800
019C00
011C00
030C00
020C00
060E00
07FE00
0C0600
080600
180700
100300
300300
FC0FC0
ENDCHAR
STARTCHAR uni01DF
ENCODING 479
SWIDTH 574 0
DWIDTH 15 0
BBX 13 17 1 0
BITMAP
0FE0
0000
0CC0
0CC0
0000
0F30
38B0
6070
6030
C060
C060
C060
C060
C0C0
C1C8
62D0
3CE0
ENDCHAR
STARTCHAR uni01E0
ENCODING 480
SWIDTH 704 0
DWIDTH 18 0
BBX 18 23 -1 0
BITMAP
01FC00
000000
006000
006000
000000
003000
003000
007800
005800
00D800
009800
019C00
011C00
030C00
020C00
060E00
07FE00
0C0600
080600
180700
100300
300300
FC0FC0
ENDCHAR
STARTCHAR uni01E1
ENCODING 481
SWIDTH 574 0
DWIDTH 15 0
BBX 13 17 1 0
BITMAP
0FE0
0000
0300
0300
0000
0F30
38B0
6070
6030
C060
C060
C060
C060
C0C0
C1C8
62D0
3CE0
ENDCHAR
STARTCHAR uni01E2
ENCODING 482
SWIDTH 870 0
DWIDTH 24 0
BBX 25 20 -2 0
BITMAP
000FE000
00000000
007FFF80
000B0180
00130100
00130100
00230100
00460800
00460800
00861000
0107F000
010C3000
03FC1000
040C1000
040C0000
08180100
10180100
10180200
30180600
FC7FFE00
ENDCHAR
STARTCHAR uni01E3
ENCODING 483
SWIDTH 722 0
DWIDTH 19 0
BBX 17 14 1 0
BITMAP
07F000
000000
0F1F00
31E180
70C180
60C180
018300
078600
39F800
618000
C18000
C38080
ECC300
707C00
ENDCHAR
STARTCHAR uni01E4
ENCODING 484
SWIDTH 778 0
DWIDTH 18 0
BBX 18 18 1 0
BITMAP
03F900
0F0F00
1C0700
380200
380200
700200
700000
600000
E00000
E00000
E03F00
E00C00
E00C00
E00C00
607FC0
701800
387800
0F8800
ENDCHAR
STARTCHAR uni01E5
ENCODING 485
SWIDTH 537 0
DWIDTH 12 0
BBX 13 19 -1 -5
BITMAP
0018
0038
07C0
1860
3030
3030
3030
3030
1860
0F80
3000
6000
7FC0
1FE0
FFF8
C030
C030
E060
3F80
ENDCHAR
STARTCHAR Gcaron
ENCODING 486
SWIDTH 778 0
DWIDTH 18 0
BBX 16 23 1 0
BITMAP
0110
0120
00C0
0080
0000
03F9
0F0F
1C07
3802
3802
7002
7000
6000
E000
E000
E03F
E00C
E00C
E00C
6018
7018
3878
0F88
ENDCHAR
STARTCHAR gcaron
ENCODING 487
SWIDTH 537 0
DWIDTH 12 0
BBX 13 24 -1 -5
BITMAP
0220
0240
0180
0100
0000
0018
0038
07C0
1860
3030
3030
3030
3030
1860
0F80
3000
6000
7FC0
1FE0
6030
C030
C030
E060
3F80
ENDCHAR
STARTCHAR uni01E8
ENCODING 488
SWIDTH 741 0
DWIDTH 19 0
BBX 18 23 1 0
BITMAP
011000
012000
00C000
008000
000000
1F8FC0
070300
060600
060C00
0E1800
0E3000
0C6000
0CC000
1DC000
1FE000
1C6000
187000
383000
383800
301800
301C00
700C00
FC1F00
ENDCHAR
STARTCHAR uni01E9
ENCODING 489
SWIDTH 556 0
DWIDTH 13 0
BBX 12 23 1 0
BITMAP
2200
2400
1800
1000
0000
7800
1800
1800
1800
3000
3000
31C0
3660
3860
6060
60C0
6300
7E00
C300
C300
C190
C190
C0E0
ENDCHAR
STARTCHAR uni01EA
ENCODING 490
SWIDTH 778 0
DWIDTH 18 0
BBX 16 22 1 -4
BITMAP
03F0
0F1C
1C0E
3806
3007
7007
7007
6007
E007
E007
E006
E00E
E00E
E00C
601C
7038
38F0
0FC0
0100
0200
0240
0380
ENDCHAR
STARTCHAR uni01EB
ENCODING 491
SWIDTH 500 0
DWIDTH 13 0
BBX 11 16 1 -4
BITMAP
0F80
38C0
6060
6060
C060
C060
C060
C060
C0C0
C0C0
6380
3E00
0400
0800
0900
0E00
ENDCHAR
STARTCHAR uni01EC
ENCODING 492
SWIDTH 778 0
DWIDTH 18 0
BBX 16 24 1 -4
BITMAP
07F0
0000
03F0
0F1C
1C0E
3806
3007
7007
7007
6007
E007
E007
E006
E00E
E00E
E00C
601C
7038
38F0
0FC0
0100
0200
0240
0380
ENDCHAR
STARTCHAR uni01ED
ENCODING 493
SWIDTH 500 0
DWIDTH 13 0
BBX 11 18 1 -4
BITMAP
3F80
0000
0F80
38C0
6060
6060
C060
C060
C060
C060
C0C0
C0C0
6380
3E00
0400
0800
0900
0E00
ENDCHAR
STARTCHAR uni01F0
ENCODING 496
SWIDTH 315 0
DWIDTH 7 0
BBX 10 22 -4 -5
BITMAP
0440
0480
0300
0200
0000
0780
0180
0180
0180
0180
0300
0300
0300
0300
0300
0600
0600
0600
0600
C400
CC00
F000
ENDCHAR
STARTCHAR uni01F4
ENCODING 500
SWIDTH 778 0
DWIDTH 18 0
BBX 16 23 1 0
BITMAP
0030
0060
0080
0100
0000
03F9
0F0F
1C07
3802
3802
7002
7000
6000
E000
E000
E03F
E00C
E00C
E00C
6018
7018
3878
0F88
ENDCHAR
STARTCHAR uni01F5
ENCODING 501
SWIDTH 537 0
DWIDTH 12 0
BBX 13 24 -1 -5
BITMAP
0060
00C0
0100
0200
0000
0018
0038
07C0
1860
3030
3030
3030
3030
1860
0F80
3000
6000
7FC0
1FE0
6030
C030
C030
E060
3F80
ENDCHAR
STARTCHAR uni01F8
ENCODING 504
SWIDTH 815 0
DWIDTH 21 0
BBX 21 23 0 0
BITMAP
018000
00C000
002000
001000
000000
1E01F8
070060
070040
078040
058040
05C0C0
0CC080
08E080
087080
083180
183900
101900
101D00
100F00
300E00
200600
300600
FC0200
ENDCHAR
STARTCHAR uni01F9
ENCODING 505
SWIDTH 611 0
DWIDTH 15 0
BBX 13 17 1 0
BITMAP
1800
0C00
0200
0100
0000
F0E0
3370
3430
3830
6030
6060
6060
6060
C0C0
C0C8
C0D0
C0E0
ENDCHAR
STARTCHAR Aringacute
ENCODING 506
SWIDTH 704 0
DWIDTH 18 0
BBX 18 28 -1 0
BITMAP
000C00
001800
002000
004000
000000
003800
004400
004400
004400
003800
003000
003000
007800
005800
00D800
009800
019C00
011C00
030C00
020C00
060E00
07FE00
0C0600
080600
180700
100300
300300
FC0FC0
ENDCHAR
STARTCHAR aringacute
ENCODING 507
SWIDTH 574 0
DWIDTH 15 0
BBX 13 23 1 0
BITMAP
0060
00C0
0100
0200
0000
0380
0440
0440
0440
0380
0000
0F30
38B0
6070
6030
C060
C060
C060
C060
C0C0
C1C8
62D0
3CE0
ENDCHAR
STARTCHAR AEacute
ENCODING 508
SWIDTH 870 0
DWIDTH 24 0
BBX 25 23 -2 0
BITMAP
00006000
0000C000
00010000
00020000
00000000
007FFF80
000B0180
00130100
00130100
00230100
00460800
00460800
00861000
0107F000
010C3000
03FC1000
040C1000
040C0000
08180100
10180100
10180200
30180600
FC7FFE00
ENDCHAR
STARTCHAR aeacute
ENCODING 509
SWIDTH 722 0
DWIDTH 19 0
BBX 17 17 1 0
BITMAP
003000
006000
008000
010000
000000
0F1F00
31E180
70C180
60C180
018300
078600
39F800
618000
C18000
C38080
ECC300
707C00
ENDCHAR
STARTCHAR Oslashacute
ENCODING 510
SWIDTH 778 0
DWIDTH 18 0
BBX 16 25 1 -1
BITMAP
0018
0030
0040
0080
0000
0008
03F8
0E1E
1826
3023
3043
6043
6083
6083
C103
C103
C206
C206
C406
C40C
C80C
6818
7870
1FC0
1000
ENDCHAR
STARTCHAR oslashacute
ENCODING 511
SWIDTH 500 0
DWIDTH 12 0
BBX 11 21 0 -2
BITMAP
00C0
0180
0200
0400
0000
0040
0040
0F80
31C0
6160
6260
C260
C460
C460
C860
C8C0
D0C0
7180
3E00
4000
4000
ENDCHAR
STARTCHAR Scommaaccent
ENCODING 536
SWIDTH 667 0
DWIDTH 16 0
BBX 14 25 1 -7
BITMAP
03E4
0E3C
181C
3008
3008
3008
3800
1E00
0F80
03E0
00F0
0038
4018
4018
4018
E030
F0E0
9F80
0000
0600
0700
0300
0200
0400
0800
ENDCHAR
STARTCHAR scommaaccent
ENCODING 537
SWIDTH 444 0
DWIDTH 12 0
BBX 10 19 1 -7
BITMAP
0F80
30C0
21C0
6180
7800
3E00
0F00
0780
6180
E100
C300
7C00
0000
1800
1C00
0C00
0800
1000
2000
ENDCHAR
STARTCHAR Tcommaaccent
ENCODING 538
SWIDTH 685 0
DWIDTH 17 0
BBX 15 25 2 -7
BITMAP
7FFE
61C6
4182
8182
8382
0380
0300
0300
0700
0700
0600
0600
0E00
0E00
0C00
0C00
1C00
3F00
0000
0600
0700
0300
0200
0400
0800
ENDCHAR
STARTCHAR tcommaaccent
ENCODING 539
SWIDTH 352 0
DWIDTH 8 0
BBX 7 23 1 -7
BITMAP
18
18
18
18
FE
30
30
30
60
60
60
60
C0
C4
C8
70
00
60
70
30
20
40
80
ENDCHAR
STARTCHAR uni021E
ENCODING 542
SWIDTH 833 0
DWIDTH 21 0
BBX 19 23 1 0
BITMAP
008800
009000
006000
004000
000000
1F87E0
0701C0
060180
060180
0E0380
0E0380
0C0300
0C0300
1FFF00
1C0700
180600
180600
380E00
380E00
300C00
300C00
701C00
FC3F00
ENDCHAR
STARTCHAR uni021F
ENCODING 543
SWIDTH 611 0
DWIDTH 15 0
BBX 13 23 1 0
BITMAP
2200
2400
1800
1000
0000
7800
1800
1800
1800
3000
3000
30E0
3370
3430
7830
6030
6060
6060
C060
C0C0
C0C8
C0D0
C0E0
ENDCHAR
STARTCHAR uni0226
ENCODING 550
SWIDTH 704 0
DWIDTH 18 0
BBX 18 21 -1 0
BITMAP
006000
006000
000000
003000
003000
007800
005800
00D800
009800
019C00
011C00
030C00
020C00
060E00
07FE00
0C0600
080600
180700
100300
300300
FC0FC0
ENDCHAR
STARTCHAR uni0227
ENCODING 551
SWIDTH 574 0
DWIDTH 15 0
BBX 13 15 1 0
BITMAP
0300
0300
0000
0F30
38B0
6070
6030
C060
C060
C060
C060
C0C0
C1C8
62D0
3CE0
ENDCHAR
STARTCHAR uni0228
ENCODING 552
SWIDTH 722 0
DWIDTH 16 0
BBX 16 22 0 -4
BITMAP
1FFF
0703
0602
0602
0E02
0E10
0C10
0C20
1FE0
1C60
1820
1820
3800
3802
3002
3004
700C
FFFC
0100
0380
0080
0700
ENDCHAR
STARTCHAR uni0229
ENCODING 553
SWIDTH 444 0
DWIDTH 12 0
BBX 10 16 1 -4
BITMAP
0F80
38C0
60C0
60C0
C180
C300
FC00
C000
C000
C040
6180
3E00
0800
1C00
0400
3800
ENDCHAR
STARTCHAR uni022A
ENCODING 554
SWIDTH 778 0
DWIDTH 18 0
BBX 16 24 1 0
BITMAP
07F0
0000
0318
0318
0000
0000
03F0
0F1C
1C0E
3806
3007
7007
7007
6007
E007
E007
E006
E00E
E00E
E00C
601C
7038
38F0
0FC0
ENDCHAR
STARTCHAR uni022B
ENCODING 555
SWIDTH 500 0
DWIDTH 13 0
BBX 11 17 1 0
BITMAP
1FC0
0000
0CC0
0CC0
0000
0F80
38C0
6060
6060
C060
C060
C060
C060
C0C0
C0C0
6380
3E00
ENDCHAR
STARTCHAR uni022C
ENCODING 556
SWIDTH 778 0
DWIDTH 18 0
BBX 16 24 1 0
BITMAP
03F8
0000
01C4
03FC
0238
0000
03F0
0F1C
1C0E
3806
3007
7007
7007
6007
E007
E007
E006
E00E
E00E
E00C
601C
7038
38F0
0FC0
ENDCHAR
STARTCHAR uni022D
ENCODING 557
SWIDTH 500 0
DWIDTH 13 0
BBX 11 18 1 0
BITMAP
1FC0
0000
0E20
1FE0
11C0
0000
0F80
38C0
6060
6060
C060
C060
C060
C060
C0C0
C0C0
6380
3E00
ENDCHAR
STARTCHAR uni022E
ENCODING 558
SWIDTH 778 0
DWIDTH 18 0
BBX 16 21 1 0
BITMAP
00C0
00C0
0000
03F0
0F1C
1C0E
3806
3007
7007
7007
6007
E007
E007
E006
E00E
E00E
E00C
601C
7038
38F0
0FC0
ENDCHAR
STARTCHAR uni022F
ENCODING 559
SWIDTH 500 0
DWIDTH 13 0
BBX 11 15 1 0
BITMAP
0600
0600
0000
0F80
38C0
6060
6060
C060
C060
C060
C060
C0C0
C0C0
6380
3E00
ENDCHAR
STARTCHAR uni0230
ENCODING 560
SWIDTH 778 0
DWIDTH 18 0
BBX 16 23 1 0
BITMAP
07F0
0000
00C0
00C0
0000
03F0
0F1C
1C0E
3806
3007
7007
7007
6007
E007
E007
E006
E00E
E00E
E00C
601C
7038
38F0
0FC0
ENDCHAR
STARTCHAR uni0231
ENCODING 561
SWIDTH 500 0
DWIDTH 13 0
BBX 11 17 1 0
BITMAP
1FC0
0000
0600
0600
0000
0F80
38C0
6060
6060
C060
C060
C060
C060
C0C0
C0C0
6380
3E00
ENDCHAR
STARTCHAR uni0232
ENCODING 562
SWIDTH 685 0
DWIDTH 17 0
BBX 17 20 1 0
BITMAP
07F000
000000
FC1F80
300600
380C00
180800
1C1000
0C3000
0E2000
064000
07C000
038000
030000
030000
070000
070000
060000
060000
060000
1F8000
ENDCHAR
STARTCHAR uni0233
ENCODING 563
SWIDTH 500 0
DWIDTH 13 0
BBX 13 19 -1 -5
BITMAP
1FC0
0000
1818
3C18
4C08
0C10
0610
0620
0620
0340
0340
0380
0100
0100
0200
0200
C400
C800
7000
ENDCHAR
STARTCHAR uni0250
ENCODING 592
SWIDTH 574 0
DWIDTH 15 0
BBX 13 12 1 0
BITMAP
39E0
5A30
9C18
1818
3018
3018
3018
3018
6030
7030
68E0
6780
ENDCHAR
STARTCHAR uni0259
ENCODING 601
SWIDTH 444 0
DWIDTH 12 0
BBX 10 12 1 0
BITMAP
1F00
6180
80C0
00C0
00C0
0FC0
30C0
60C0
C180
C180
C700
7C00
ENDCHAR
STARTCHAR uni025F
ENCODING 607
SWIDTH 333 0
DWIDTH 7 0
BBX 11 23 0 -11
BITMAP
0060
0060
0060
0060
00C0
00C0
00C0
00C0
0180
0180
0180
0180
0300
0300
0300
0300
3FC0
0600
0600
0600
CC00
CC00
7000
ENDCHAR
STARTCHAR uni0265
ENCODING 613
SWIDTH 611 0
DWIDTH 15 0
BBX 13 18 1 -6
BITMAP
3818
5818
9818
1818
3018
3030
3030
6030
60F0
6160
7660
3860
0060
0060
00C0
00C0
00C0
00F0
ENDCHAR
STARTCHAR uni0275
ENCODING 629
SWIDTH 500 0
DWIDTH 13 0
BBX 11 12 1 0
BITMAP
0F80
38C0
6060
6060
C060
FFE0
C060
C060
C0C0
C0C0
6380
3E00
ENDCHAR
STARTCHAR uni0279
ENCODING 633
SWIDTH 444 0
DWIDTH 11 0
BBX 10 12 1 0
BITMAP
00C0
00C0
00C0
00C0
0180
0180
0180
0180
0300
C700
FB00
63C0
ENDCHAR
STARTCHAR uni0287
ENCODING 647
SWIDTH 352 0
DWIDTH 8 0
BBX 7 16 1 0
BITMAP
1C
26
46
06
0C
0C
0C
0C
18
18
18
FE
30
30
30
30
ENDCHAR
STARTCHAR uni0289
ENCODING 649
SWIDTH 611 0
DWIDTH 15 0
BBX 13 12 1 0
BITMAP
F030
3030
3030
3030
6060
FFF8
6060
C0C0
C1C0
C2C8
ECD0
70E0
ENDCHAR
STARTCHAR uni028C
ENCODING 652
SWIDTH 519 0
DWIDTH 13 0
BBX 11 12 1 0
BITMAP
0F00
1180
20C0
40C0
40C0
80C0
80C0
8180
8180
C180
E180
61E0
ENDCHAR
STARTCHAR uni028D
ENCODING 653
SWIDTH 778 0
DWIDTH 20 0
BBX 18 12 1 0
BITMAP
0F1E00
11A300
20C180
40C180
40C180
80C180
80C180
818300
818300
C18300
E18300
6183C0
ENDCHAR
STARTCHAR uni028E
ENCODING 654
SWIDTH 500 0
DWIDTH 13 0
BBX 13 17 -1 0
BITMAP
0070
0098
0118
0200
0200
0400
0400
0E00
1600
1600
2300
2300
4300
4180
8190
C1E0
C0C0
ENDCHAR
STARTCHAR uni029E
ENCODING 670
SWIDTH 556 0
DWIDTH 13 0
BBX 12 18 1 -6
BITMAP
7030
9830
9830
0C30
0C30
07E0
0C60
3060
6060
61C0
66C0
38C0
00C0
00C0
0180
0180
0180
01E0
ENDCHAR
STARTCHAR uni02BB
ENCODING 699
SWIDTH 204 0
DWIDTH 6 0
BBX 4 6 2 12
BITMAP
10
20
40
C0
E0
60
ENDCHAR
STARTCHAR afii57929
ENCODING 700
SWIDTH 204 0
DWIDTH 6 0
BBX 4 6 1 12
BITMAP
60
70
30
20
40
80
ENDCHAR
STARTCHAR afii64937
ENCODING 701
SWIDTH 204 0
DWIDTH 6 0
BBX 4 6 1 12
BITMAP
60
E0
C0
40
20
10
ENDCHAR
STARTCHAR circumflex
ENCODING 710
SWIDTH 333 0
DWIDTH 7 0
BBX 5 4 1 13
BITMAP
10
30
48
88
ENDCHAR
STARTCHAR caron
ENCODING 711
SWIDTH 333 0
DWIDTH 6 0
BBX 5 4 1 13
BITMAP
88
90
60
40
ENDCHAR
STARTCHAR uni02C8
ENCODING 712
SWIDTH 278 0
DWIDTH 5 0
BBX 1 6 2 12
BITMAP
80
80
80
80
80
80
ENDCHAR
STARTCHAR macron
ENCODING 713
SWIDTH 333 0
DWIDTH 9 0
BBX 7 1 1 13
BITMAP
FE
ENDCHAR
STARTCHAR uni02CA
ENCODING 714
SWIDTH 333 0
DWIDTH 7 0
BBX 5 4 1 13
BITMAP
18
30
40
80
ENDCHAR
STARTCHAR uni02CB
ENCODING 715
SWIDTH 333 0
DWIDTH 7 0
BBX 5 4 1 13
BITMAP
C0
60
10
08
ENDCHAR
STARTCHAR uni02CD
ENCODING 717
SWIDTH 333 0
DWIDTH 9 0
BBX 7 1 1 -2
BITMAP
FE
ENDCHAR
STARTCHAR uni02CE
ENCODING 718
SWIDTH 333 0
DWIDTH 7 0
BBX 5 4 1 -5
BITMAP
C0
60
10
08
ENDCHAR
STARTCHAR uni02CF
ENCODING 719
SWIDTH 333 0
DWIDTH 7 0
BBX 5 4 1 -5
BITMAP
18
30
40
80
ENDCHAR
STARTCHAR breve
ENCODING 728
SWIDTH 333 0
DWIDTH 9 0
BBX 7 3 1 13
BITMAP
82
C6
7C
ENDCHAR
STARTCHAR dotaccent
ENCODING 729
SWIDTH 333 0
DWIDTH 6 0
BBX 2 2 2 13
BITMAP
C0
C0
ENDCHAR
STARTCHAR ring
ENCODING 730
SWIDTH 333 0
DWIDTH 7 0
BBX 5 5 1 13
BITMAP
70
88
88
88
70
ENDCHAR
STARTCHAR ogonek
ENCODING 731
SWIDTH 333 0
DWIDTH 8 0
BBX 4 4 1 -4
BITMAP
40
80
90
E0
ENDCHAR
STARTCHAR tilde
ENCODING 732
SWIDTH 333 0
DWIDTH 10 0
BBX 8 2 1 13
BITMAP
79
9E
ENDCHAR
STARTCHAR hungarumlaut
ENCODING 733
SWIDTH 333 0
DWIDTH 11 0
BBX 9 4 1 13
BITMAP
1980
3300
4400
8800
ENDCHAR
STARTCHAR uni02EE
ENCODING 750
SWIDTH 389 0
DWIDTH 10 0
BBX 8 6 1 12
BITMAP
66
77
33
22
44
88
ENDCHAR
STARTCHAR uni037E
ENCODING 894
SWIDTH 278 0
DWIDTH 5 0
BBX 5 15 -1 -3
BITMAP
18
18
18
00
00
00
00
00
00
60
70
30
20
40
80
ENDCHAR
STARTCHAR tonos
ENCODING 900
SWIDTH 333 0
DWIDTH 7 0
BBX 5 4 1 13
BITMAP
18
30
40
80
ENDCHAR
STARTCHAR dieresistonos
ENCODING 901
SWIDTH 333 0
DWIDTH 8 0
BBX 7 7 1 13
BITMAP
06
0C
10
20
00
CC
CC
ENDCHAR
STARTCHAR anoteleia
ENCODING 903
SWIDTH 278 0
DWIDTH 7 0
BBX 3 3 2 6
BITMAP
E0
E0
E0
ENDCHAR
STARTCHAR mu
ENCODING 956
SWIDTH 611 0
DWIDTH 15 0
BBX 15 17 -1 -5
BITMAP
3C0C
0C0C
0C0C
0C0C
1818
1818
1818
3030
3070
30B2
3B34
6C38
6000
4000
C000
E000
4000
ENDCHAR
STARTCHAR uni1E00
ENCODING 7680
SWIDTH 704 0
DWIDTH 18 0
BBX 18 24 -1 -6
BITMAP
003000
003000
007800
005800
00D800
009800
019C00
011C00
030C00
020C00
060E00
07FE00
0C0600
080600
180700
100300
300300
FC0FC0
000000
00E000
011000
011000
011000
00E000
ENDCHAR
STARTCHAR uni1E01
ENCODING 7681
SWIDTH 574 0
DWIDTH 15 0
BBX 13 18 1 -6
BITMAP
0F30
38B0
6070
6030
C060
C060
C060
C060
C0C0
C1C8
62D0
3CE0
0000
0700
0880
0880
0880
0700
ENDCHAR
STARTCHAR uni1E02
ENCODING 7682
SWIDTH 722 0
DWIDTH 17 0
BBX 16 21 0 0
BITMAP
00C0
00C0
0000
1FFC
0706
0607
0607
0E07
0E06
0C06
0C0C
1FF0
1C1C
180E
180E
380E
380E
300C
301C
7038
FFE0
ENDCHAR
STARTCHAR uni1E03
ENCODING 7683
SWIDTH 556 0
DWIDTH 13 0
BBX 11 21 1 0
BITMAP
1800
1800
0000
7800
1800
1800
1800
3000
3000
3780
38C0
6060
6060
6060
6060
C060
C060
C0C0
C0C0
6180
3E00
ENDCHAR
STARTCHAR uni1E04
ENCODING 7684
SWIDTH 722 0
DWIDTH 17 0
BBX 16 21 0 -3
BITMAP
1FFC
0706
0607
0607
0E07
0E06
0C06
0C0C
1FF0
1C1C
180E
180E
380E
380E
300C
301C
7038
FFE0
0000
0300
0300
ENDCHAR
STARTCHAR uni1E05
ENCODING 7685
SWIDTH 556 0
DWIDTH 13 0
BBX 11 21 1 -3
BITMAP
7800
1800
1800
1800
3000
3000
3780
38C0
6060
6060
6060
6060
C060
C060
C0C0
C0C0
6180
3E00
0000
0C00
0C00
ENDCHAR
STARTCHAR uni1E06
ENCODING 7686
SWIDTH 722 0
DWIDTH 17 0
BBX 16 20 0 -2
BITMAP
1FFC
0706
0607
0607
0E07
0E06
0C06
0C0C
1FF0
1C1C
180E
180E
380E
380E
300C
301C
7038
FFE0
0000
0FE0
ENDCHAR
STARTCHAR uni1E07
ENCODING 7687
SWIDTH 556 0
DWIDTH 13 0
BBX 11 20 1 -2
BITMAP
7800
1800
1800
1800
3000
3000
3780
38C0
6060
6060
6060
6060
C060
C060
C0C0
C0C0
6180
3E00
0000
3F80
ENDCHAR
STARTCHAR uni1E08
ENCODING 7688
SWIDTH 722 0
DWIDTH 18 0
BBX 16 27 1 -4
BITMAP
0030
0060
0080
0100
0000
03F9
0E0F
1807
3002
3002
6002
6000
6000
C000
C000
C000
C000
C004
C004
C008
6008
7030
1FC0
0200
0700
0100
0E00
ENDCHAR
STARTCHAR uni1E09
ENCODING 7689
SWIDTH 444 0
DWIDTH 12 0
BBX 10 21 1 -4
BITMAP
0180
0300
0400
0800
0000
0F80
30C0
61C0
6180
C000
C000
C000
C000
C000
C080
6300
3C00
0800
1C00
0400
3800
ENDCHAR
STARTCHAR uni1E0A
ENCODING 7690
SWIDTH 778 0
DWIDTH 19 0
BBX 17 21 0 0
BITMAP
00C000
00C000
000000
1FF800
070E00
060700
060300
0E0380
0E0380
0C0380
0C0380
1C0380
1C0380
180300
180700
380700
380600
300E00
301C00
707800
FFE000
ENDCHAR
STARTCHAR uni1E0B
ENCODING 7691
SWIDTH 611 0
DWIDTH 15 0
BBX 13 21 1 0
BITMAP
0060
0060
0000
0078
0018
0018
0018
0030
0030
0F30
38B0
6070
6060
C060
C060
C060
C0C0
C0C0
C1C8
62D0
3CE0
ENDCHAR
STARTCHAR uni1E0C
ENCODING 7692
SWIDTH 778 0
DWIDTH 19 0
BBX 17 21 0 -3
BITMAP
1FF800
070E00
060700
060300
0E0380
0E0380
0C0380
0C0380
1C0380
1C0380
180300
180700
380700
380600
300E00
301C00
707800
FFE000
000000
018000
018000
ENDCHAR
STARTCHAR uni1E0D
ENCODING 7693
SWIDTH 611 0
DWIDTH 15 0
BBX 13 21 1 -3
BITMAP
0078
0018
0018
0018
0030
0030
0F30
38B0
6070
6060
C060
C060
C060
C0C0
C0C0
C1C8
62D0
3CE0
0000
0600
0600
ENDCHAR
STARTCHAR uni1E0E
ENCODING 7694
SWIDTH 778 0
DWIDTH 19 0
BBX 17 20 0 -2
BITMAP
1FF800
070E00
060700
060300
0E0380
0E0380
0C0380
0C0380
1C0380
1C0380
180300
180700
380700
380600
300E00
301C00
707800
FFE000
000000
0FE000
ENDCHAR
STARTCHAR uni1E0F
ENCODING 7695
SWIDTH 611 0
DWIDTH 15 0
BBX 13 20 1 -2
BITMAP
0078
0018
0018
0018
0030
0030
0F30
38B0
6070
6060
C060
C060
C060
C0C0
C0C0
C1C8
62D0
3CE0
0000
1FC0
ENDCHAR
STARTCHAR uni1E10
ENCODING 7696
SWIDTH 778 0
DWIDTH 19 0
BBX 17 22 0 -4
BITMAP
1FF800
070E00
060700
060300
0E0380
0E0380
0C0380
0C0380
1C0380
1C0380
180300
180700
380700
380600
300E00
301C00
707800
FFE000
010000
038000
008000
070000
ENDCHAR
STARTCHAR uni1E11
ENCODING 7697
SWIDTH 611 0
DWIDTH 15 0
BBX 13 22 1 -4
BITMAP
0078
0018
0018
0018
0030
0030
0F30
38B0
6070
6060
C060
C060
C060
C0C0
C0C0
C1C8
62D0
3CE0
0200
0700
0100
0E00
ENDCHAR
STARTCHAR uni1E12
ENCODING 7698
SWIDTH 778 0
DWIDTH 19 0
BBX 17 23 0 -5
BITMAP
1FF800
070E00
060700
060300
0E0380
0E0380
0C0380
0C0380
1C0380
1C0380
180300
180700
380700
380600
300E00
301C00
707800
FFE000
000000
008000
018000
024000
044000
ENDCHAR
STARTCHAR uni1E13
ENCODING 7699
SWIDTH 611 0
DWIDTH 15 0
BBX 13 23 1 -5
BITMAP
0078
0018
0018
0018
0030
0030
0F30
38B0
6070
6060
C060
C060
C060
C0C0
C0C0
C1C8
62D0
3CE0
0000
0200
0600
0900
1100
ENDCHAR
STARTCHAR uni1E14
ENCODING 7700
SWIDTH 722 0
DWIDTH 16 0
BBX 16 25 0 0
BITMAP
0600
0300
0080
0040
0000
07F0
0000
1FFF
0703
0602
0602
0E02
0E10
0C10
0C20
1FE0
1C60
1820
1820
3800
3802
3002
3004
700C
FFFC
ENDCHAR
STARTCHAR uni1E15
ENCODING 7701
SWIDTH 444 0
DWIDTH 12 0
BBX 10 19 1 0
BITMAP
3000
1800
0400
0200
0000
3F80
0000
0F80
38C0
60C0
60C0
C180
C300
FC00
C000
C000
C040
6180
3E00
ENDCHAR
STARTCHAR uni1E16
ENCODING 7702
SWIDTH 722 0
DWIDTH 16 0
BBX 16 25 0 0
BITMAP
0030
0060
0080
0100
0000
07F0
0000
1FFF
0703
0602
0602
0E02
0E10
0C10
0C20
1FE0
1C60
1820
1820
3800
3802
3002
3004
700C
FFFC
ENDCHAR
STARTCHAR uni1E17
ENCODING 7703
SWIDTH 444 0
DWIDTH 12 0
BBX 10 19 1 0
BITMAP
0180
0300
0400
0800
0000
3F80
0000
0F80
38C0
60C0
60C0
C180
C300
FC00
C000
C000
C040
6180
3E00
ENDCHAR
STARTCHAR uni1E18
ENCODING 7704
SWIDTH 722 0
DWIDTH 16 0
BBX 16 23 0 -5
BITMAP
1FFF
0703
0602
0602
0E02
0E10
0C10
0C20
1FE0
1C60
1820
1820
3800
3802
3002
3004
700C
FFFC
0000
0100
0300
0480
0880
ENDCHAR
STARTCHAR uni1E19
ENCODING 7705
SWIDTH 444 0
DWIDTH 12 0
BBX 10 17 1 -5
BITMAP
0F80
38C0
60C0
60C0
C180
C300
FC00
C000
C000
C040
6180
3E00
0000
0800
1800
2400
4400
ENDCHAR
STARTCHAR uni1E1A
ENCODING 7706
SWIDTH 722 0
DWIDTH 16 0
BBX 16 21 0 -3
BITMAP
1FFF
0703
0602
0602
0E02
0E10
0C10
0C20
1FE0
1C60
1820
1820
3800
3802
3002
3004
700C
FFFC
0000
0F20
13C0
ENDCHAR
STARTCHAR uni1E1B
ENCODING 7707
SWIDTH 444 0
DWIDTH 12 0
BBX 10 15 1 -3
BITMAP
0F80
38C0
60C0
60C0
C180
C300
FC00
C000
C000
C040
6180
3E00
0000
7900
9E00
ENDCHAR
STARTCHAR uni1E1C
ENCODING 7708
SWIDTH 722 0
DWIDTH 16 0
BBX 16 26 0 -4
BITMAP
0410
0630
03E0
0000
1FFF
0703
0602
0602
0E02
0E10
0C10
0C20
1FE0
1C60
1820
1820
3800
3802
3002
3004
700C
FFFC
0100
0380
0080
0700
ENDCHAR
STARTCHAR uni1E1D
ENCODING 7709
SWIDTH 444 0
DWIDTH 12 0
BBX 10 20 1 -4
BITMAP
2080
3180
1F00
0000
0F80
38C0
60C0
60C0
C180
C300
FC00
C000
C000
C040
6180
3E00
0800
1C00
0400
3800
ENDCHAR
STARTCHAR uni1E1E
ENCODING 7710
SWIDTH 667 0
DWIDTH 16 0
BBX 16 21 0 0
BITMAP
00C0
00C0
0000
1FFF
0703
0602
0602
0E02
0E10
0C10
0C20
1FE0
1C60
1820
1820
3800
3800
3000
3000
7000
FC00
ENDCHAR
STARTCHAR uni1E1F
ENCODING 7711
SWIDTH 333 0
DWIDTH 7 0
BBX 11 26 0 -5
BITMAP
0300
0300
0000
01C0
0660
0660
0C00
0C00
0C00
7F80
1800
1800
1800
1800
3000
3000
3000
3000
6000
6000
6000
6000
C000
C000
C000
C000
ENDCHAR
STARTCHAR uni1E20
ENCODING 7712
SWIDTH 778 0
DWIDTH 18 0
BBX 16 20 1 0
BITMAP
07F0
0000
03F9
0F0F
1C07
3802
3802
7002
7000
6000
E000
E000
E03F
E00C
E00C
E00C
6018
7018
3878
0F88
ENDCHAR
STARTCHAR uni1E21
ENCODING 7713
SWIDTH 537 0
DWIDTH 12 0
BBX 13 21 -1 -5
BITMAP
0FE0
0000
0018
0038
07C0
1860
3030
3030
3030
3030
1860
0F80
3000
6000
7FC0
1FE0
6030
C030
C030
E060
3F80
ENDCHAR
STARTCHAR uni1E22
ENCODING 7714
SWIDTH 833 0
DWIDTH 21 0
BBX 19 21 1 0
BITMAP
003000
003000
000000
1F87E0
0701C0
060180
060180
0E0380
0E0380
0C0300
0C0300
1FFF00
1C0700
180600
180600
380E00
380E00
300C00
300C00
701C00
FC3F00
ENDCHAR
STARTCHAR uni1E23
ENCODING 7715
SWIDTH 611 0
DWIDTH 15 0
BBX 13 21 1 0
BITMAP
0C00
0C00
0000
7800
1800
1800
1800
3000
3000
30E0
3370
3430
7830
6030
6060
6060
C060
C0C0
C0C8
C0D0
C0E0
ENDCHAR
STARTCHAR uni1E24
ENCODING 7716
SWIDTH 833 0
DWIDTH 21 0
BBX 19 21 1 -3
BITMAP
1F87E0
0701C0
060180
060180
0E0380
0E0380
0C0300
0C0300
1FFF00
1C0700
180600
180600
380E00
380E00
300C00
300C00
701C00
FC3F00
000000
00C000
00C000
ENDCHAR
STARTCHAR uni1E25
ENCODING 7717
SWIDTH 611 0
DWIDTH 15 0
BBX 13 21 1 -3
BITMAP
7800
1800
1800
1800
3000
3000
30E0
3370
3430
7830
6030
6060
6060
C060
C0C0
C0C8
C0D0
C0E0
0000
0600
0600
ENDCHAR
STARTCHAR uni1E26
ENCODING 7718
SWIDTH 833 0
DWIDTH 21 0
BBX 19 21 1 0
BITMAP
00CC00
00CC00
000000
1F87E0
0701C0
060180
060180
0E0380
0E0380
0C0300
0C0300
1FFF00
1C0700
180600
180600
380E00
380E00
300C00
300C00
701C00
FC3F00
ENDCHAR
STARTCHAR uni1E27
ENCODING 7719
SWIDTH 611 0
DWIDTH 15 0
BBX 13 21 1 0
BITMAP
3300
3300
0000
7800
1800
1800
1800
3000
3000
30E0
3370
3430
7830
6030
6060
6060
C060
C0C0
C0C8
C0D0
C0E0
ENDCHAR
STARTCHAR uni1E28
ENCODING 7720
SWIDTH 833 0
DWIDTH 21 0
BBX 19 22 1 -4
BITMAP
1F87E0
0701C0
060180
060180
0E0380
0E0380
0C0300
0C0300
1FFF00
1C0700
180600
180600
380E00
380E00
300C00
300C00
701C00
FC3F00
008000
01C000
004000
038000
ENDCHAR
STARTCHAR uni1E29
ENCODING 7721
SWIDTH 611 0
DWIDTH 15 0
BBX 13 22 1 -4
BITMAP
7800
1800
1800
1800
3000
3000
30E0
3370
3430
7830
6030
6060
6060
C060
C0C0
C0C8
C0D0
C0E0
0200
0700
0100
0E00
ENDCHAR
STARTCHAR uni1E2A
ENCODING 7722
SWIDTH 833 0
DWIDTH 21 0
BBX 19 22 1 -4
BITMAP
1F87E0
0701C0
060180
060180
0E0380
0E0380
0C0300
0C0300
1FFF00
1C0700
180600
180600
380E00
380E00
300C00
300C00
701C00
FC3F00
000000
041000
063000
03E000
ENDCHAR
STARTCHAR uni1E2B
ENCODING 7723
SWIDTH 611 0
DWIDTH 15 0
BBX 13 22 1 -4
BITMAP
7800
1800
1800
1800
3000
3000
30E0
3370
3430
7830
6030
6060
6060
C060
C0C0
C0C8
C0D0
C0E0
0000
1040
18C0
0F80
ENDCHAR
STARTCHAR uni1E2C
ENCODING 7724
SWIDTH 407 0
DWIDTH 11 0
BBX 9 21 1 -3
BITMAP
1F80
0700
0600
0600
0E00
0E00
0C00
0C00
1C00
1C00
1800
1800
3800
3800
3000
3000
7000
FC00
0000
7900
9E00
ENDCHAR
STARTCHAR uni1E2D
ENCODING 7725
SWIDTH 333 0
DWIDTH 7 0
BBX 8 21 -1 -3
BITMAP
06
06
06
00
00
00
3C
0C
0C
0C
18
18
18
18
30
32
32
1C
00
79
9E
ENDCHAR
STARTCHAR uni1E2E
ENCODING 7726
SWIDTH 407 0
DWIDTH 11 0
BBX 10 27 1 0
BITMAP
00C0
0180
0200
0400
0000
0CC0
0CC0
0000
0000
1F80
0700
0600
0600
0E00
0E00
0C00
0C00
1C00
1C00
1800
1800
3800
3800
3000
3000
7000
FC00
ENDCHAR
STARTCHAR uni1E2F
ENCODING 7727
SWIDTH 333 0
DWIDTH 8 0
BBX 6 20 1 0
BITMAP
0C
18
20
40
00
CC
CC
00
F0
30
30
30
60
60
60
60
C0
C8
C8
70
ENDCHAR
STARTCHAR uni1E30
ENCODING 7728
SWIDTH 741 0
DWIDTH 19 0
BBX 18 23 1 0
BITMAP
001800
003000
004000
008000
000000
1F8FC0
070300
060600
060C00
0E1800
0E3000
0C6000
0CC000
1DC000
1FE000
1C6000
187000
383000
383800
301800
301C00
700C00
FC1F00
ENDCHAR
STARTCHAR uni1E31
ENCODING 7729
SWIDTH 556 0
DWIDTH 13 0
BBX 12 23 1 0
BITMAP
0300
0600
0800
1000
0000
7800
1800
1800
1800
3000
3000
31C0
3660
3860
6060
60C0
6300
7E00
C300
C300
C190
C190
C0E0
ENDCHAR
STARTCHAR uni1E32
ENCODING 7730
SWIDTH 741 0
DWIDTH 19 0
BBX 18 21 1 -3
BITMAP
1F8FC0
070300
060600
060C00
0E1800
0E3000
0C6000
0CC000
1DC000
1FE000
1C6000
187000
383000
383800
301800
301C00
700C00
FC1F00
000000
018000
018000
ENDCHAR
STARTCHAR uni1E33
ENCODING 7731
SWIDTH 556 0
DWIDTH 13 0
BBX 12 21 1 -3
BITMAP
7800
1800
1800
1800
3000
3000
31C0
3660
3860
6060
60C0
6300
7E00
C300
C300
C190
C190
C0E0
0000
0600
0600
ENDCHAR
STARTCHAR uni1E34
ENCODING 7732
SWIDTH 741 0
DWIDTH 19 0
BBX 18 20 1 -2
BITMAP
1F8FC0
070300
060600
060C00
0E1800
0E3000
0C6000
0CC000
1DC000
1FE000
1C6000
187000
383000
383800
301800
301C00
700C00
FC1F00
000000
07F000
ENDCHAR
STARTCHAR uni1E35
ENCODING 7733
SWIDTH 556 0
DWIDTH 13 0
BBX 12 20 1 -2
BITMAP
7800
1800
1800
1800
3000
3000
31C0
3660
3860
6060
60C0
6300
7E00
C300
C300
C190
C190
C0E0
0000
3F80
ENDCHAR
STARTCHAR uni1E36
ENCODING 7734
SWIDTH 667 0
DWIDTH 16 0
BBX 15 21 0 -3
BITMAP
1F80
0700
0600
0600
0E00
0E00
0C00
0C00
1C00
1C00
1800
1800
3800
3802
3002
3004
700C
FFFC
0000
0300
0300
ENDCHAR
STARTCHAR uni1E37
ENCODING 7735
SWIDTH 333 0
DWIDTH 7 0
BBX 5 21 1 -3
BITMAP
78
18
18
18
30
30
30
30
30
60
60
60
60
C0
C0
C8
C8
70
00
60
60
ENDCHAR
STARTCHAR uni1E38
ENCODING 7736
SWIDTH 667 0
DWIDTH 16 0
BBX 15 23 0 -3
BITMAP
1FC0
0000
1F80
0700
0600
0600
0E00
0E00
0C00
0C00
1C00
1C00
1800
1800
3800
3802
3002
3004
700C
FFFC
0000
0300
0300
ENDCHAR
STARTCHAR uni1E39
ENCODING 7737
SWIDTH 333 0
DWIDTH 7 0
BBX 7 23 1 -3
BITMAP
FE
00
78
18
18
18
30
30
30
30
30
60
60
60
60
C0
C0
C8
C8
70
00
60
60
ENDCHAR
STARTCHAR uni1E3A
ENCODING 7738
SWIDTH 667 0
DWIDTH 16 0
BBX 15 20 0 -2
BITMAP
1F80
0700
0600
0600
0E00
0E00
0C00
0C00
1C00
1C00
1800
1800
3800
3802
3002
3004
700C
FFFC
0000
0FE0
ENDCHAR
STARTCHAR uni1E3B
ENCODING 7739
SWIDTH 333 0
DWIDTH 7 0
BBX 7 20 0 -2
BITMAP
3C
0C
0C
0C
18
18
18
18
18
30
30
30
30
60
60
64
64
38
00
FE
ENDCHAR
STARTCHAR uni1E3C
ENCODING 7740
SWIDTH 667 0
DWIDTH 16 0
BBX 15 23 0 -5
BITMAP
1F80
0700
0600
0600
0E00
0E00
0C00
0C00
1C00
1C00
1800
1800
3800
3802
3002
3004
700C
FFFC
0000
0100
0300
0480
0880
ENDCHAR
STARTCHAR uni1E3D
ENCODING 7741
SWIDTH 333 0
DWIDTH 7 0
BBX 6 23 0 -5
BITMAP
3C
0C
0C
0C
18
18
18
18
18
30
30
30
30
60
60
64
64
38
00
10
30
48
88
ENDCHAR
STARTCHAR uni1E3E
ENCODING 7742
SWIDTH 944 0
DWIDTH 23 0
BBX 24 23 -1 0
BITMAP
000180
000300
000400
000800
000000
0F001F
03001E
03003C
03002C
07805C
05805C
058098
058198
0DC138
09C338
08C230
08C630
18E430
10E870
106860
107060
3070E0
FC61F8
ENDCHAR
STARTCHAR uni1E3F
ENCODING 7743
SWIDTH 889 0
DWIDTH 23 0
BBX 21 17 1 0
BITMAP
000C00
001800
002000
004000
000000
F0E0E0
337370
343430
383830
603030
606060
606060
606060
C0C0C0
C0C0C8
C0C0C8
C0C070
ENDCHAR
STARTCHAR uni1E40
ENCODING 7744
SWIDTH 944 0
DWIDTH 23 0
BBX 24 21 -1 0
BITMAP
000600
000600
000000
0F001F
03001E
03003C
03002C
07805C
05805C
058098
058198
0DC138
09C338
08C230
08C630
18E430
10E870
106860
107060
3070E0
FC61F8
ENDCHAR
STARTCHAR uni1E41
ENCODING 7745
SWIDTH 889 0
DWIDTH 23 0
BBX 21 15 1 0
BITMAP
006000
006000
000000
F0E0E0
337370
343430
383830
603030
606060
606060
606060
C0C0C0
C0C0C8
C0C0C8
C0C070
ENDCHAR
STARTCHAR uni1E42
ENCODING 7746
SWIDTH 944 0
DWIDTH 23 0
BBX 24 21 -1 -3
BITMAP
0F001F
03001E
03003C
03002C
07805C
05805C
058098
058198
0DC138
09C338
08C230
08C630
18E430
10E870
106860
107060
3070E0
FC61F8
000000
001800
001800
ENDCHAR
STARTCHAR uni1E43
ENCODING 7747
SWIDTH 889 0
DWIDTH 23 0
BBX 21 15 1 -3
BITMAP
F0E0E0
337370
343430
383830
603030
606060
606060
606060
C0C0C0
C0C0C8
C0C0C8
C0C070
000000
006000
006000
ENDCHAR
STARTCHAR uni1E44
ENCODING 7748
SWIDTH 815 0
DWIDTH 21 0
BBX 21 21 0 0
BITMAP
003000
003000
000000
1E01F8
070060
070040
078040
058040
05C0C0
0CC080
08E080
087080
083180
183900
101900
101D00
100F00
300E00
200600
300600
FC0200
ENDCHAR
STARTCHAR uni1E45
ENCODING 7749
SWIDTH 611 0
DWIDTH 15 0
BBX 13 15 1 0
BITMAP
0600
0600
0000
F0E0
3370
3430
3830
6030
6060
6060
6060
C0C0
C0C8
C0D0
C0E0
ENDCHAR
STARTCHAR uni1E46
ENCODING 7750
SWIDTH 815 0
DWIDTH 21 0
BBX 21 21 0 -3
BITMAP
1E01F8
070060
070040
078040
058040
05C0C0
0CC080
08E080
087080
083180
183900
101900
101D00
100F00
300E00
200600
300600
FC0200
000000
00C000
00C000
ENDCHAR
STARTCHAR uni1E47
ENCODING 7751
SWIDTH 611 0
DWIDTH 15 0
BBX 13 15 1 -3
BITMAP
F0E0
3370
3430
3830
6030
6060
6060
6060
C0C0
C0C8
C0D0
C0E0
0000
0600
0600
ENDCHAR
STARTCHAR uni1E48
ENCODING 7752
SWIDTH 815 0
DWIDTH 21 0
BBX 21 20 0 -2
BITMAP
1E01F8
070060
070040
078040
058040
05C0C0
0CC080
08E080
087080
083180
183900
101900
101D00
100F00
300E00
200600
300600
FC0200
000000
03F800
ENDCHAR
STARTCHAR uni1E49
ENCODING 7753
SWIDTH 611 0
DWIDTH 15 0
BBX 13 14 1 -2
BITMAP
F0E0
3370
3430
3830
6030
6060
6060
6060
C0C0
C0C8
C0D0
C0E0
0000
1FC0
ENDCHAR
STARTCHAR uni1E4A
ENCODING 7754
SWIDTH 815 0
DWIDTH 21 0
BBX 21 23 0 -5
BITMAP
1E01F8
070060
070040
078040
058040
05C0C0
0CC080
08E080
087080
083180
183900
101900
101D00
100F00
300E00
200600
300600
FC0200
000000
004000
00C000
012000
022000
ENDCHAR
STARTCHAR uni1E4B
ENCODING 7755
SWIDTH 611 0
DWIDTH 15 0
BBX 13 17 1 -5
BITMAP
F0E0
3370
3430
3830
6030
6060
6060
6060
C0C0
C0C8
C0D0
C0E0
0000
0200
0600
0900
1100
ENDCHAR
STARTCHAR uni1E4C
ENCODING 7756
SWIDTH 778 0
DWIDTH 18 0
BBX 16 27 1 0
BITMAP
0018
0030
0040
0080
0000
01C4
03FC
0238
0000
03F0
0F1C
1C0E
3806
3007
7007
7007
6007
E007
E007
E006
E00E
E00E
E00C
601C
7038
38F0
0FC0
ENDCHAR
STARTCHAR uni1E4D
ENCODING 7757
SWIDTH 500 0
DWIDTH 13 0
BBX 11 21 1 0
BITMAP
00C0
0180
0200
0400
0000
0E20
1FE0
11C0
0000
0F80
38C0
6060
6060
C060
C060
C060
C060
C0C0
C0C0
6380
3E00
ENDCHAR
STARTCHAR uni1E4E
ENCODING 7758
SWIDTH 778 0
DWIDTH 18 0
BBX 16 25 1 0
BITMAP
0330
0330
0000
01C4
03FC
0238
0000
03F0
0F1C
1C0E
3806
3007
7007
7007
6007
E007
E007
E006
E00E
E00E
E00C
601C
7038
38F0
0FC0
ENDCHAR
STARTCHAR uni1E4F
ENCODING 7759
SWIDTH 500 0
DWIDTH 13 0
BBX 11 19 1 0
BITMAP
1980
1980
0000
0E20
1FE0
11C0
0000
0F80
38C0
6060
6060
C060
C060
C060
C060
C0C0
C0C0
6380
3E00
ENDCHAR
STARTCHAR uni1E50
ENCODING 7760
SWIDTH 778 0
DWIDTH 18 0
BBX 16 25 1 0
BITMAP
0600
0300
0080
0040
0000
07F0
0000
03F0
0F1C
1C0E
3806
3007
7007
7007
6007
E007
E007
E006
E00E
E00E
E00C
601C
7038
38F0
0FC0
ENDCHAR
STARTCHAR uni1E51
ENCODING 7761
SWIDTH 500 0
DWIDTH 13 0
BBX 11 19 1 0
BITMAP
3000
1800
0400
0200
0000
3F80
0000
0F80
38C0
6060
6060
C060
C060
C060
C060
C0C0
C0C0
6380
3E00
ENDCHAR
STARTCHAR uni1E52
ENCODING 7762
SWIDTH 778 0
DWIDTH 18 0
BBX 16 25 1 0
BITMAP
0030
0060
0080
0100
0000
07F0
0000
03F0
0F1C
1C0E
3806
3007
7007
7007
6007
E007
E007
E006
E00E
E00E
E00C
601C
7038
38F0
0FC0
ENDCHAR
STARTCHAR uni1E53
ENCODING 7763
SWIDTH 500 0
DWIDTH 13 0
BBX 11 19 1 0
BITMAP
0180
0300
0400
0800
0000
3F80
0000
0F80
38C0
6060
6060
C060
C060
C060
C060
C0C0
C0C0
6380
3E00
ENDCHAR
STARTCHAR uni1E54
ENCODING 7764
SWIDTH 667 0
DWIDTH 17 0
BBX 16 23 1 0
BITMAP
0018
0030
0040
0080
0000
1FF8
070E
0607
0607
0E07
0E07
0C06
0C0C
1C38
1FE0
1800
1800
3800
3800
3000
3000
3000
FC00
ENDCHAR
STARTCHAR uni1E55
ENCODING 7765
SWIDTH 574 0
DWIDTH 14 0
BBX 14 22 -1 -5
BITMAP
0060
00C0
0100
0200
0000
3CF0
0F18
0C0C
0C0C
180C
180C
180C
180C
3818
3818
3430
33C0
6000
6000
6000
6000
F000
ENDCHAR
STARTCHAR uni1E56
ENCODING 7766
SWIDTH 667 0
DWIDTH 17 0
BBX 16 21 1 0
BITMAP
00C0
00C0
0000
1FF8
070E
0607
0607
0E07
0E07
0C06
0C0C
1C38
1FE0
1800
1800
3800
3800
3000
3000
3000
FC00
ENDCHAR
STARTCHAR uni1E57
ENCODING 7767
SWIDTH 574 0
DWIDTH 14 0
BBX 14 20 -1 -5
BITMAP
0180
0180
0000
3CF0
0F18
0C0C
0C0C
180C
180C
180C
180C
3818
3818
3430
33C0
6000
6000
6000
6000
F000
ENDCHAR
STARTCHAR uni1E58
ENCODING 7768
SWIDTH 741 0
DWIDTH 19 0
BBX 16 21 1 0
BITMAP
00C0
00C0
0000
1FF8
070E
0607
0607
0E07
0E06
0C0E
0C1C
1FF0
1C30
1838
1818
3818
3818
3018
3019
7019
FC0E
ENDCHAR
STARTCHAR uni1E59
ENCODING 7769
SWIDTH 444 0
DWIDTH 11 0
BBX 10 15 1 0
BITMAP
0C00
0C00
0000
F180
37C0
38C0
3000
6000
6000
6000
6000
C000
C000
C000
C000
ENDCHAR
STARTCHAR uni1E5A
ENCODING 7770
SWIDTH 741 0
DWIDTH 19 0
BBX 16 21 1 -3
BITMAP
1FF8
070E
0607
0607
0E07
0E06
0C0E
0C1C
1FF0
1C30
1838
1818
3818
3818
3018
3019
7019
FC0E
0000
0180
0180
ENDCHAR
STARTCHAR uni1E5B
ENCODING 7771
SWIDTH 444 0
DWIDTH 11 0
BBX 10 15 1 -3
BITMAP
F180
37C0
38C0
3000
6000
6000
6000
6000
C000
C000
C000
C000
0000
6000
6000
ENDCHAR
STARTCHAR uni1E5C
ENCODING 7772
SWIDTH 741 0
DWIDTH 19 0
BBX 16 23 1 -3
BITMAP
03F8
0000
1FF8
070E
0607
0607
0E07
0E06
0C0E
0C1C
1FF0
1C30
1838
1818
3818
3818
3018
3019
7019
FC0E
0000
0180
0180
ENDCHAR
STARTCHAR uni1E5D
ENCODING 7773
SWIDTH 444 0
DWIDTH 11 0
BBX 10 17 1 -3
BITMAP
3F80
0000
F180
37C0
38C0
3000
6000
6000
6000
6000
C000
C000
C000
C000
0000
6000
6000
ENDCHAR
STARTCHAR uni1E5E
ENCODING 7774
SWIDTH 741 0
DWIDTH 19 0
BBX 16 20 1 -2
BITMAP
1FF8
070E
0607
0607
0E07
0E06
0C0E
0C1C
1FF0
1C30
1838
1818
3818
3818
3018
3019
7019
FC0E
0000
0FE0
ENDCHAR
STARTCHAR uni1E5F
ENCODING 7775
SWIDTH 444 0
DWIDTH 11 0
BBX 11 14 0 -2
BITMAP
78C0
1BE0
1C60
1800
3000
3000
3000
3000
6000
6000
6000
6000
0000
FE00
ENDCHAR
STARTCHAR uni1E60
ENCODING 7776
SWIDTH 667 0
DWIDTH 16 0
BBX 14 21 1 0
BITMAP
0180
0180
0000
03E4
0E3C
181C
3008
3008
3008
3800
1E00
0F80
03E0
00F0
0038
4018
4018
4018
E030
F0E0
9F80
ENDCHAR
STARTCHAR uni1E61
ENCODING 7777
SWIDTH 444 0
DWIDTH 12 0
BBX 10 15 1 0
BITMAP
0600
0600
0000
0F80
30C0
21C0
6180
7800
3E00
0F00
0780
6180
E100
C300
7C00
ENDCHAR
STARTCHAR uni1E62
ENCODING 7778
SWIDTH 667 0
DWIDTH 16 0
BBX 14 21 1 -3
BITMAP
03E4
0E3C
181C
3008
3008
3008
3800
1E00
0F80
03E0
00F0
0038
4018
4018
4018
E030
F0E0
9F80
0000
0600
0600
ENDCHAR
STARTCHAR uni1E63
ENCODING 7779
SWIDTH 444 0
DWIDTH 12 0
BBX 10 15 1 -3
BITMAP
0F80
30C0
21C0
6180
7800
3E00
0F00
0780
6180
E100
C300
7C00
0000
1800
1800
ENDCHAR
STARTCHAR uni1E64
ENCODING 7780
SWIDTH 667 0
DWIDTH 16 0
BBX 14 26 1 0
BITMAP
0180
0180
0000
0060
00C0
0100
0200
0000
03E4
0E3C
181C
3008
3008
3008
3800
1E00
0F80
03E0
00F0
0038
4018
4018
4018
E030
F0E0
9F80
ENDCHAR
STARTCHAR uni1E65
ENCODING 7781
SWIDTH 444 0
DWIDTH 12 0
BBX 10 20 1 0
BITMAP
0600
0600
0000
0180
0300
0400
0800
0000
0F80
30C0
21C0
6180
7800
3E00
0F00
0780
6180
E100
C300
7C00
ENDCHAR
STARTCHAR uni1E66
ENCODING 7782
SWIDTH 667 0
DWIDTH 16 0
BBX 13 21 1 0
BITMAP
0180
0180
0000
0110
0120
00C0
0080
0000
07C8
0C78
1830
1810
1C10
0E00
0700
0380
41C0
40E0
60E0
F1C0
9F00
ENDCHAR
STARTCHAR uni1E67
ENCODING 7783
SWIDTH 444 0
DWIDTH 12 0
BBX 10 20 1 0
BITMAP
0600
0600
0000
0880
0900
0600
0400
0000
0F80
30C0
21C0
6180
7800
3E00
0F00
0780
6180
E100
C300
7C00
ENDCHAR
STARTCHAR uni1E68
ENCODING 7784
SWIDTH 667 0
DWIDTH 16 0
BBX 14 24 1 -3
BITMAP
0180
0180
0000
03E4
0E3C
181C
3008
3008
3008
3800
1E00
0F80
03E0
00F0
0038
4018
4018
4018
E030
F0E0
9F80
0000
0600
0600
ENDCHAR
STARTCHAR uni1E69
ENCODING 7785
SWIDTH 444 0
DWIDTH 12 0
BBX 10 18 1 -3
BITMAP
0600
0600
0000
0F80
30C0
21C0
6180
7800
3E00
0F00
0780
6180
E100
C300
7C00
0000
1800
1800
ENDCHAR
STARTCHAR uni1E6A
ENCODING 7786
SWIDTH 685 0
DWIDTH 17 0
BBX 15 21 2 0
BITMAP
0180
0180
0000
7FFE
61C6
4182
8182
8382
0380
0300
0300
0700
0700
0600
0600
0E00
0E00
0C00
0C00
1C00
3F00
ENDCHAR
STARTCHAR uni1E6B
ENCODING 7787
SWIDTH 352 0
DWIDTH 8 0
BBX 7 19 1 0
BITMAP
18
18
00
18
18
18
18
FE
30
30
30
60
60
60
60
C0
C4
C8
70
ENDCHAR
STARTCHAR uni1E6C
ENCODING 7788
SWIDTH 685 0
DWIDTH 17 0
BBX 15 21 2 -3
BITMAP
7FFE
61C6
4182
8182
8382
0380
0300
0300
0700
0700
0600
0600
0E00
0E00
0C00
0C00
1C00
3F00
0000
0600
0600
ENDCHAR
STARTCHAR uni1E6D
ENCODING 7789
SWIDTH 352 0
DWIDTH 8 0
BBX 7 19 1 -3
BITMAP
18
18
18
18
FE
30
30
30
60
60
60
60
C0
C4
C8
70
00
30
30
ENDCHAR
STARTCHAR uni1E6E
ENCODING 7790
SWIDTH 685 0
DWIDTH 17 0
BBX 15 20 2 -2
BITMAP
7FFE
61C6
4182
8182
8382
0380
0300
0300
0700
0700
0600
0600
0E00
0E00
0C00
0C00
1C00
3F00
0000
3F80
ENDCHAR
STARTCHAR uni1E6F
ENCODING 7791
SWIDTH 352 0
DWIDTH 8 0
BBX 8 18 0 -2
BITMAP
0C
0C
0C
0C
7F
18
18
18
30
30
30
30
60
62
64
38
00
FE
ENDCHAR
STARTCHAR uni1E70
ENCODING 7792
SWIDTH 685 0
DWIDTH 17 0
BBX 15 23 2 -5
BITMAP
7FFE
61C6
4182
8182
8382
0380
0300
0300
0700
0700
0600
0600
0E00
0E00
0C00
0C00
1C00
3F00
0000
0200
0600
0900
1100
ENDCHAR
STARTCHAR uni1E71
ENCODING 7793
SWIDTH 352 0
DWIDTH 8 0
BBX 7 21 1 -5
BITMAP
18
18
18
18
FE
30
30
30
60
60
60
60
C0
C4
C8
70
00
10
30
48
88
ENDCHAR
STARTCHAR uni1E72
ENCODING 7794
SWIDTH 815 0
DWIDTH 19 0
BBX 18 21 1 -3
BITMAP
7E07C0
1C0100
180100
180100
380300
380200
300200
300200
700600
700400
600400
600400
E00C00
E00800
E00800
E01800
707000
3FC000
000000
0CC000
0CC000
ENDCHAR
STARTCHAR uni1E73
ENCODING 7795
SWIDTH 611 0
DWIDTH 15 0
BBX 13 15 1 -3
BITMAP
F030
3030
3030
3030
6060
6060
6060
C0C0
C1C0
C2C8
ECD0
70E0
0000
1980
1980
ENDCHAR
STARTCHAR uni1E74
ENCODING 7796
SWIDTH 815 0
DWIDTH 19 0
BBX 18 21 1 -3
BITMAP
7E07C0
1C0100
180100
180100
380300
380200
300200
300200
700600
700400
600400
600400
E00C00
E00800
E00800
E01800
707000
3FC000
000000
0F2000
13C000
ENDCHAR
STARTCHAR uni1E75
ENCODING 7797
SWIDTH 611 0
DWIDTH 15 0
BBX 13 15 1 -3
BITMAP
F030
3030
3030
3030
6060
6060
6060
C0C0
C1C0
C2C8
ECD0
70E0
0000
1E40
2780
ENDCHAR
STARTCHAR uni1E76
ENCODING 7798
SWIDTH 815 0
DWIDTH 19 0
BBX 18 23 1 -5
BITMAP
7E07C0
1C0100
180100
180100
380300
380200
300200
300200
700600
700400
600400
600400
E00C00
E00800
E00800
E01800
707000
3FC000
000000
010000
030000
048000
088000
ENDCHAR
STARTCHAR uni1E77
ENCODING 7799
SWIDTH 611 0
DWIDTH 15 0
BBX 13 17 1 -5
BITMAP
F030
3030
3030
3030
6060
6060
6060
C0C0
C1C0
C2C8
ECD0
70E0
0000
0200
0600
0900
1100
ENDCHAR
STARTCHAR uni1E78
ENCODING 7800
SWIDTH 815 0
DWIDTH 19 0
BBX 18 26 1 0
BITMAP
003000
006000
008000
010000
000000
03C800
04F000
000000
7E07C0
1C0100
180100
180100
380300
380200
300200
300200
700600
700400
600400
600400
E00C00
E00800
E00800
E01800
707000
3FC000
ENDCHAR
STARTCHAR uni1E79
ENCODING 7801
SWIDTH 611 0
DWIDTH 15 0
BBX 13 20 1 0
BITMAP
0180
0300
0400
0800
0000
1E40
2780
0000
F030
3030
3030
3030
6060
6060
6060
C0C0
C1C0
C2C8
ECD0
70E0
ENDCHAR
STARTCHAR uni1E7A
ENCODING 7802
SWIDTH 815 0
DWIDTH 19 0
BBX 18 23 1 0
BITMAP
033000
033000
000000
07F000
000000
7E07C0
1C0100
180100
180100
380300
380200
300200
300200
700600
700400
600400
600400
E00C00
E00800
E00800
E01800
707000
3FC000
ENDCHAR
STARTCHAR uni1E7B
ENCODING 7803
SWIDTH 611 0
DWIDTH 15 0
BBX 13 17 1 0
BITMAP
1980
1980
0000
1FC0
0000
F030
3030
3030
3030
6060
6060
6060
C0C0
C1C0
C2C8
ECD0
70E0
ENDCHAR
STARTCHAR uni1E7C
ENCODING 7804
SWIDTH 704 0
DWIDTH 17 0
BBX 17 21 1 0
BITMAP
079000
09E000
000000
FC1F80
700600
300400
300C00
380800
381800
181000
183000
1C2000
1C6000
0C4000
0CC000
0E8000
0F8000
070000
070000
060000
060000
ENDCHAR
STARTCHAR uni1E7D
ENCODING 7805
SWIDTH 519 0
DWIDTH 13 0
BBX 11 15 1 0
BITMAP
1E40
2780
0000
F0C0
30E0
3060
3020
3020
6020
6020
6040
6040
6080
3100
1E00
ENDCHAR
STARTCHAR uni1E7E
ENCODING 7806
SWIDTH 704 0
DWIDTH 17 0
BBX 17 21 1 -3
BITMAP
FC1F80
700600
300400
300C00
380800
381800
181000
183000
1C2000
1C6000
0C4000
0CC000
0E8000
0F8000
070000
070000
060000
060000
000000
030000
030000
ENDCHAR
STARTCHAR uni1E7F
ENCODING 7807
SWIDTH 519 0
DWIDTH 13 0
BBX 11 15 1 -3
BITMAP
F0C0
30E0
3060
3020
3020
6020
6020
6040
6040
6080
3100
1E00
0000
0C00
0C00
ENDCHAR
STARTCHAR Wgrave
ENCODING 7808
SWIDTH 926 0
DWIDTH 24 0
BBX 23 23 1 0
BITMAP
00C000
006000
001000
000800
000000
FC7E3E
70180C
301808
303808
383C18
382C10
186C30
184C20
184C20
1CCE60
1C8E40
0C8640
0D86C0
0D0680
0D0680
0E0700
060300
040200
ENDCHAR
STARTCHAR wgrave
ENCODING 7809
SWIDTH 778 0
DWIDTH 20 0
BBX 18 17 1 0
BITMAP
030000
018000
004000
002000
000000
F06180
3061C0
3060C0
306040
306040
60C040
60C040
60C080
60C080
60C100
316200
1E3C00
ENDCHAR
STARTCHAR Wacute
ENCODING 7810
SWIDTH 926 0
DWIDTH 24 0
BBX 23 23 1 0
BITMAP
000600
000C00
001000
002000
000000
FC7E3E
70180C
301808
303808
383C18
382C10
186C30
184C20
184C20
1CCE60
1C8E40
0C8640
0D86C0
0D0680
0D0680
0E0700
060300
040200
ENDCHAR
STARTCHAR wacute
ENCODING 7811
SWIDTH 778 0
DWIDTH 20 0
BBX 18 17 1 0
BITMAP
001800
003000
004000
008000
000000
F06180
3061C0
3060C0
306040
306040
60C040
60C040
60C080
60C080
60C100
316200
1E3C00
ENDCHAR
STARTCHAR Wdieresis
ENCODING 7812
SWIDTH 926 0
DWIDTH 24 0
BBX 23 21 1 0
BITMAP
00CC00
00CC00
000000
FC7E3E
70180C
301808
303808
383C18
382C10
186C30
184C20
184C20
1CCE60
1C8E40
0C8640
0D86C0
0D0680
0D0680
0E0700
060300
040200
ENDCHAR
STARTCHAR wdieresis
ENCODING 7813
SWIDTH 778 0
DWIDTH 20 0
BBX 18 15 1 0
BITMAP
033000
033000
000000
F06180
3061C0
3060C0
306040
306040
60C040
60C040
60C080
60C080
60C100
316200
1E3C00
ENDCHAR
STARTCHAR uni1E86
ENCODING 7814
SWIDTH 926 0
DWIDTH 24 0
BBX 23 21 1 0
BITMAP
003000
003000
000000
FC7E3E
70180C
301808
303808
383C18
382C10
186C30
184C20
184C20
1CCE60
1C8E40
0C8640
0D86C0
0D0680
0D0680
0E0700
060300
040200
ENDCHAR
STARTCHAR uni1E87
ENCODING 7815
SWIDTH 778 0
DWIDTH 20 0
BBX 18 15 1 0
BITMAP
00C000
00C000
000000
F06180
3061C0
3060C0
306040
306040
60C040
60C040
60C080
60C080
60C100
316200
1E3C00
ENDCHAR
STARTCHAR uni1E88
ENCODING 7816
SWIDTH 926 0
DWIDTH 24 0
BBX 23 21 1 -3
BITMAP
FC7E3E
70180C
301808
303808
383C18
382C10
186C30
184C20
184C20
1CCE60
1C8E40
0C8640
0D86C0
0D0680
0D0680
0E0700
060300
040200
000000
003000
003000
ENDCHAR
STARTCHAR uni1E89
ENCODING 7817
SWIDTH 778 0
DWIDTH 20 0
BBX 18 15 1 -3
BITMAP
F06180
3061C0
3060C0
306040
306040
60C040
60C040
60C080
60C080
60C100
316200
1E3C00
000000
018000
018000
ENDCHAR
STARTCHAR uni1E8A
ENCODING 7818
SWIDTH 704 0
DWIDTH 18 0
BBX 20 21 -1 0
BITMAP
003000
003000
000000
0FC3F0
0300C0
038180
018300
01C600
00CC00
00F800
007000
007000
007000
00F800
019800
031C00
060C00
0C0E00
180E00
300700
FC1F80
ENDCHAR
STARTCHAR uni1E8B
ENCODING 7819
SWIDTH 500 0
DWIDTH 13 0
BBX 12 15 0 0
BITMAP
0600
0600
0000
1830
3870
5C80
0D00
0E00
0600
0700
0B00
0B80
1190
E1E0
C0C0
ENDCHAR
STARTCHAR uni1E8C
ENCODING 7820
SWIDTH 704 0
DWIDTH 18 0
BBX 20 21 -1 0
BITMAP
00CC00
00CC00
000000
0FC3F0
0300C0
038180
018300
01C600
00CC00
00F800
007000
007000
007000
00F800
019800
031C00
060C00
0C0E00
180E00
300700
FC1F80
ENDCHAR
STARTCHAR uni1E8D
ENCODING 7821
SWIDTH 500 0
DWIDTH 13 0
BBX 12 15 0 0
BITMAP
1980
1980
0000
1830
3870
5C80
0D00
0E00
0600
0700
0B00
0B80
1190
E1E0
C0C0
ENDCHAR
STARTCHAR uni1E8E
ENCODING 7822
SWIDTH 685 0
DWIDTH 17 0
BBX 17 21 1 0
BITMAP
018000
018000
000000
FC1F80
300600
380C00
180800
1C1000
0C3000
0E2000
064000
07C000
038000
030000
030000
070000
070000
060000
060000
060000
1F8000
ENDCHAR
STARTCHAR uni1E8F
ENCODING 7823
SWIDTH 500 0
DWIDTH 13 0
BBX 13 20 -1 -5
BITMAP
0300
0300
0000
1818
3C18
4C08
0C10
0610
0620
0620
0340
0340
0380
0100
0100
0200
0200
C400
C800
7000
ENDCHAR
STARTCHAR uni1E90
ENCODING 7824
SWIDTH 667 0
DWIDTH 16 0
BBX 16 23 0 0
BITMAP
0020
0060
0090
0110
0000
1FFF
1807
100E
201C
2038
0070
00F0
01E0
01C0
0380
0700
0F00
1E00
1C04
3804
7008
E018
FFF8
ENDCHAR
STARTCHAR uni1E91
ENCODING 7825
SWIDTH 463 0
DWIDTH 13 0
BBX 11 17 1 0
BITMAP
0200
0600
0900
1100
0000
1E20
3FE0
40C0
4180
0300
0E00
1800
3000
6040
C040
FF80
9F00
ENDCHAR
STARTCHAR uni1E92
ENCODING 7826
SWIDTH 667 0
DWIDTH 16 0
BBX 16 21 0 -3
BITMAP
1FFF
1807
100E
201C
2038
0070
00F0
01E0
01C0
0380
0700
0F00
1E00
1C04
3804
7008
E018
FFF8
0000
0300
0300
ENDCHAR
STARTCHAR uni1E93
ENCODING 7827
SWIDTH 463 0
DWIDTH 13 0
BBX 11 15 1 -3
BITMAP
1E20
3FE0
40C0
4180
0300
0E00
1800
3000
6040
C040
FF80
9F00
0000
0C00
0C00
ENDCHAR
STARTCHAR uni1E94
ENCODING 7828
SWIDTH 667 0
DWIDTH 16 0
BBX 16 20 0 -2
BITMAP
1FFF
1807
100E
201C
2038
0070
00F0
01E0
01C0
0380
0700
0F00
1E00
1C04
3804
7008
E018
FFF8
0000
1FC0
ENDCHAR
STARTCHAR uni1E95
ENCODING 7829
SWIDTH 463 0
DWIDTH 13 0
BBX 11 14 1 -2
BITMAP
1E20
3FE0
40C0
4180
0300
0E00
1800
3000
6040
C040
FF80
9F00
0000
7F00
ENDCHAR
STARTCHAR uni1E96
ENCODING 7830
SWIDTH 611 0
DWIDTH 15 0
BBX 13 20 1 -2
BITMAP
7800
1800
1800
1800
3000
3000
30E0
3370
3430
7830
6030
6060
6060
C060
C0C0
C0C8
C0D0
C0E0
0000
1FC0
ENDCHAR
STARTCHAR uni1E97
ENCODING 7831
SWIDTH 352 0
DWIDTH 8 0
BBX 7 19 1 0
BITMAP
66
66
00
18
18
18
18
FE
30
30
30
60
60
60
60
C0
C4
C8
70
ENDCHAR
STARTCHAR uni1E98
ENCODING 7832
SWIDTH 778 0
DWIDTH 20 0
BBX 18 18 1 0
BITMAP
00E000
011000
011000
011000
00E000
000000
F06180
3061C0
3060C0
306040
306040
60C040
60C040
60C080
60C080
60C100
316200
1E3C00
ENDCHAR
STARTCHAR uni1E99
ENCODING 7833
SWIDTH 500 0
DWIDTH 13 0
BBX 13 23 -1 -5
BITMAP
0700
0880
0880
0880
0700
0000
1818
3C18
4C08
0C10
0610
0620
0620
0340
0340
0380
0100
0100
0200
0200
C400
C800
7000
ENDCHAR
STARTCHAR uni1EA0
ENCODING 7840
SWIDTH 704 0
DWIDTH 18 0
BBX 18 21 -1 -3
BITMAP
003000
003000
007800
005800
00D800
009800
019C00
011C00
030C00
020C00
060E00
07FE00
0C0600
080600
180700
100300
300300
FC0FC0
000000
00C000
00C000
ENDCHAR
STARTCHAR uni1EA1
ENCODING 7841
SWIDTH 574 0
DWIDTH 15 0
BBX 13 15 1 -3
BITMAP
0F30
38B0
6070
6030
C060
C060
C060
C060
C0C0
C1C8
62D0
3CE0
0000
0600
0600
ENDCHAR
STARTCHAR uni1EA4
ENCODING 7844
SWIDTH 704 0
DWIDTH 18 0
BBX 18 28 -1 0
BITMAP
000C00
001800
002000
004000
000000
001000
003800
006C00
008400
000000
003000
003000
007800
005800
00D800
009800
019C00
011C00
030C00
020C00
060E00
07FE00
0C0600
080600
180700
100300
300300
FC0FC0
ENDCHAR
STARTCHAR uni1EA5
ENCODING 7845
SWIDTH 574 0
DWIDTH 15 0
BBX 13 22 1 0
BITMAP
0060
00C0
0100
0200
0000
0100
0380
06C0
0840
0000
0F30
38B0
6070
6030
C060
C060
C060
C060
C0C0
C1C8
62D0
3CE0
ENDCHAR
STARTCHAR uni1EA6
ENCODING 7846
SWIDTH 704 0
DWIDTH 18 0
BBX 18 28 -1 0
BITMAP
018000
00C000
002000
001000
000000
001000
003800
006C00
008400
000000
003000
003000
007800
005800
00D800
009800
019C00
011C00
030C00
020C00
060E00
07FE00
0C0600
080600
180700
100300
300300
FC0FC0
ENDCHAR
STARTCHAR uni1EA7
ENCODING 7847
SWIDTH 574 0
DWIDTH 15 0
BBX 13 22 1 0
BITMAP
0C00
0600
0100
0080
0000
0100
0380
06C0
0840
0000
0F30
38B0
6070
6030
C060
C060
C060
C060
C0C0
C1C8
62D0
3CE0
ENDCHAR
STARTCHAR uni1EAA
ENCODING 7850
SWIDTH 704 0
DWIDTH 18 0
BBX 18 26 -1 0
BITMAP
01E400
027800
000000
001000
003800
006C00
008400
000000
003000
003000
007800
005800
00D800
009800
019C00
011C00
030C00
020C00
060E00
07FE00
0C0600
080600
180700
100300
300300
FC0FC0
ENDCHAR
STARTCHAR uni1EAB
ENCODING 7851
SWIDTH 574 0
DWIDTH 15 0
BBX 13 20 1 0
BITMAP
0F20
13C0
0000
0100
0380
06C0
0840
0000
0F30
38B0
6070
6030
C060
C060
C060
C060
C0C0
C1C8
62D0
3CE0
ENDCHAR
STARTCHAR uni1EAC
ENCODING 7852
SWIDTH 704 0
DWIDTH 18 0
BBX 18 26 -1 -3
BITMAP
001000
003000
004800
008800
000000
003000
003000
007800
005800
00D800
009800
019C00
011C00
030C00
020C00
060E00
07FE00
0C0600
080600
180700
100300
300300
FC0FC0
000000
00C000
00C000
ENDCHAR
STARTCHAR uni1EAD
ENCODING 7853
SWIDTH 574 0
DWIDTH 15 0
BBX 13 20 1 -3
BITMAP
0100
0300
0480
0880
0000
0F30
38B0
6070
6030
C060
C060
C060
C060
C0C0
C1C8
62D0
3CE0
0000
0600
0600
ENDCHAR
STARTCHAR uni1EAE
ENCODING 7854
SWIDTH 704 0
DWIDTH 18 0
BBX 18 27 -1 0
BITMAP
000C00
001800
002000
004000
000000
010400
018C00
00F800
000000
003000
003000
007800
005800
00D800
009800
019C00
011C00
030C00
020C00
060E00
07FE00
0C0600
080600
180700
100300
300300
FC0FC0
ENDCHAR
STARTCHAR uni1EAF
ENCODING 7855
SWIDTH 574 0
DWIDTH 15 0
BBX 13 21 1 0
BITMAP
00C0
0180
0200
0400
0000
1040
18C0
0F80
0000
0F30
38B0
6070
6030
C060
C060
C060
C060
C0C0
C1C8
62D0
3CE0
ENDCHAR
STARTCHAR uni1EB0
ENCODING 7856
SWIDTH 704 0
DWIDTH 18 0
BBX 18 27 -1 0
BITMAP
018000
00C000
002000
001000
000000
010400
018C00
00F800
000000
003000
003000
007800
005800
00D800
009800
019C00
011C00
030C00
020C00
060E00
07FE00
0C0600
080600
180700
100300
300300
FC0FC0
ENDCHAR
STARTCHAR uni1EB1
ENCODING 7857
SWIDTH 574 0
DWIDTH 15 0
BBX 13 21 1 0
BITMAP
1800
0C00
0200
0100
0000
1040
18C0
0F80
0000
0F30
38B0
6070
6030
C060
C060
C060
C060
C0C0
C1C8
62D0
3CE0
ENDCHAR
STARTCHAR uni1EB4
ENCODING 7860
SWIDTH 704 0
DWIDTH 18 0
BBX 18 25 -1 0
BITMAP
01E400
027800
000000
010400
018C00
00F800
000000
003000
003000
007800
005800
00D800
009800
019C00
011C00
030C00
020C00
060E00
07FE00
0C0600
080600
180700
100300
300300
FC0FC0
ENDCHAR
STARTCHAR uni1EB5
ENCODING 7861
SWIDTH 574 0
DWIDTH 15 0
BBX 13 19 1 0
BITMAP
0F20
13C0
0000
1040
18C0
0F80
0000
0F30
38B0
6070
6030
C060
C060
C060
C060
C0C0
C1C8
62D0
3CE0
ENDCHAR
STARTCHAR uni1EB6
ENCODING 7862
SWIDTH 704 0
DWIDTH 18 0
BBX 18 25 -1 -3
BITMAP
010400
018C00
00F800
000000
003000
003000
007800
005800
00D800
009800
019C00
011C00
030C00
020C00
060E00
07FE00
0C0600
080600
180700
100300
300300
FC0FC0
000000
00C000
00C000
ENDCHAR
STARTCHAR uni1EB7
ENCODING 7863
SWIDTH 574 0
DWIDTH 15 0
BBX 13 19 1 -3
BITMAP
1040
18C0
0F80
0000
0F30
38B0
6070
6030
C060
C060
C060
C060
C0C0
C1C8
62D0
3CE0
0000
0600
0600
ENDCHAR
STARTCHAR uni1EB8
ENCODING 7864
SWIDTH 722 0
DWIDTH 16 0
BBX 16 21 0 -3
BITMAP
1FFF
0703
0602
0602
0E02
0E10
0C10
0C20
1FE0
1C60
1820
1820
3800
3802
3002
3004
700C
FFFC
0000
0300
0300
ENDCHAR
STARTCHAR uni1EB9
ENCODING 7865
SWIDTH 444 0
DWIDTH 12 0
BBX 10 15 1 -3
BITMAP
0F80
38C0
60C0
60C0
C180
C300
FC00
C000
C000
C040
6180
3E00
0000
1800
1800
ENDCHAR
STARTCHAR uni1EBC
ENCODING 7868
SWIDTH 722 0
DWIDTH 16 0
BBX 16 21 0 0
BITMAP
03C8
04F0
0000
1FFF
0703
0602
0602
0E02
0E10
0C10
0C20
1FE0
1C60
1820
1820
3800
3802
3002
3004
700C
FFFC
ENDCHAR
STARTCHAR uni1EBD
ENCODING 7869
SWIDTH 444 0
DWIDTH 12 0
BBX 10 15 1 0
BITMAP
3C80
4F00
0000
0F80
38C0
60C0
60C0
C180
C300
FC00
C000
C000
C040
6180
3E00
ENDCHAR
STARTCHAR uni1EBE
ENCODING 7870
SWIDTH 722 0
DWIDTH 16 0
BBX 16 28 0 0
BITMAP
0018
0030
0040
0080
0000
0010
0038
006C
0084
0000
1FFF
0703
0602
0602
0E02
0E10
0C10
0C20
1FE0
1C60
1820
1820
3800
3802
3002
3004
700C
FFFC
ENDCHAR
STARTCHAR uni1EBF
ENCODING 7871
SWIDTH 444 0
DWIDTH 12 0
BBX 10 22 1 0
BITMAP
00C0
0180
0200
0400
0000
0100
0380
06C0
0840
0000
0F80
38C0
60C0
60C0
C180
C300
FC00
C000
C000
C040
6180
3E00
ENDCHAR
STARTCHAR uni1EC0
ENCODING 7872
SWIDTH 722 0
DWIDTH 16 0
BBX 16 28 0 0
BITMAP
0300
0180
0040
0020
0000
0010
0038
006C
0084
0000
1FFF
0703
0602
0602
0E02
0E10
0C10
0C20
1FE0
1C60
1820
1820
3800
3802
3002
3004
700C
FFFC
ENDCHAR
STARTCHAR uni1EC1
ENCODING 7873
SWIDTH 444 0
DWIDTH 12 0
BBX 10 22 1 0
BITMAP
1800
0C00
0200
0100
0000
0100
0380
06C0
0840
0000
0F80
38C0
60C0
60C0
C180
C300
FC00
C000
C000
C040
6180
3E00
ENDCHAR
STARTCHAR uni1EC4
ENCODING 7876
SWIDTH 722 0
DWIDTH 16 0
BBX 16 26 0 0
BITMAP
03C8
04F0
0000
0010
0038
006C
0084
0000
1FFF
0703
0602
0602
0E02
0E10
0C10
0C20
1FE0
1C60
1820
1820
3800
3802
3002
3004
700C
FFFC
ENDCHAR
STARTCHAR uni1EC5
ENCODING 7877
SWIDTH 444 0
DWIDTH 12 0
BBX 11 20 1 0
BITMAP
0F20
13C0
0000
0100
0380
06C0
0840
0000
0F80
38C0
60C0
60C0
C180
C300
FC00
C000
C000
C040
6180
3E00
ENDCHAR
STARTCHAR uni1EC6
ENCODING 7878
SWIDTH 722 0
DWIDTH 16 0
BBX 16 26 0 -3
BITMAP
0040
00C0
0120
0220
0000
1FFF
0703
0602
0602
0E02
0E10
0C10
0C20
1FE0
1C60
1820
1820
3800
3802
3002
3004
700C
FFFC
0000
0300
0300
ENDCHAR
STARTCHAR uni1EC7
ENCODING 7879
SWIDTH 444 0
DWIDTH 12 0
BBX 10 20 1 -3
BITMAP
0200
0600
0900
1100
0000
0F80
38C0
60C0
60C0
C180
C300
FC00
C000
C000
C040
6180
3E00
0000
1800
1800
ENDCHAR
STARTCHAR uni1ECA
ENCODING 7882
SWIDTH 407 0
DWIDTH 11 0
BBX 9 21 1 -3
BITMAP
1F80
0700
0600
0600
0E00
0E00
0C00
0C00
1C00
1C00
1800
1800
3800
3800
3000
3000
7000
FC00
0000
1800
1800
ENDCHAR
STARTCHAR uni1ECB
ENCODING 7883
SWIDTH 333 0
DWIDTH 7 0
BBX 5 21 1 -3
BITMAP
18
18
18
00
00
00
F0
30
30
30
60
60
60
60
C0
C8
C8
70
00
60
60
ENDCHAR
STARTCHAR uni1ECC
ENCODING 7884
SWIDTH 778 0
DWIDTH 18 0
BBX 16 21 1 -3
BITMAP
03F0
0F1C
1C0E
3806
3007
7007
7007
6007
E007
E007
E006
E00E
E00E
E00C
601C
7038
38F0
0FC0
0000
0300
0300
ENDCHAR
STARTCHAR uni1ECD
ENCODING 7885
SWIDTH 500 0
DWIDTH 13 0
BBX 11 15 1 -3
BITMAP
0F80
38C0
6060
6060
C060
C060
C060
C060
C0C0
C0C0
6380
3E00
0000
0C00
0C00
ENDCHAR
STARTCHAR uni1ED0
ENCODING 7888
SWIDTH 778 0
DWIDTH 18 0
BBX 16 28 1 0
BITMAP
0018
0030
0040
0080
0000
0020
0070
00D8
0108
0000
03F0
0F1C
1C0E
3806
3007
7007
7007
6007
E007
E007
E006
E00E
E00E
E00C
601C
7038
38F0
0FC0
ENDCHAR
STARTCHAR uni1ED1
ENCODING 7889
SWIDTH 500 0
DWIDTH 13 0
BBX 11 22 1 0
BITMAP
00C0
0180
0200
0400
0000
0100
0380
06C0
0840
0000
0F80
38C0
6060
6060
C060
C060
C060
C060
C0C0
C0C0
6380
3E00
ENDCHAR
STARTCHAR uni1ED2
ENCODING 7890
SWIDTH 778 0
DWIDTH 18 0
BBX 16 28 1 0
BITMAP
0300
0180
0040
0020
0000
0020
0070
00D8
0108
0000
03F0
0F1C
1C0E
3806
3007
7007
7007
6007
E007
E007
E006
E00E
E00E
E00C
601C
7038
38F0
0FC0
ENDCHAR
STARTCHAR uni1ED3
ENCODING 7891
SWIDTH 500 0
DWIDTH 13 0
BBX 11 22 1 0
BITMAP
1800
0C00
0200
0100
0000
0100
0380
06C0
0840
0000
0F80
38C0
6060
6060
C060
C060
C060
C060
C0C0
C0C0
6380
3E00
ENDCHAR
STARTCHAR uni1ED6
ENCODING 7894
SWIDTH 778 0
DWIDTH 18 0
BBX 16 26 1 0
BITMAP
03C8
04F0
0000
0020
0070
00D8
0108
0000
03F0
0F1C
1C0E
3806
3007
7007
7007
6007
E007
E007
E006
E00E
E00E
E00C
601C
7038
38F0
0FC0
ENDCHAR
STARTCHAR uni1ED7
ENCODING 7895
SWIDTH 500 0
DWIDTH 13 0
BBX 11 20 1 0
BITMAP
0F20
13C0
0000
0100
0380
06C0
0840
0000
0F80
38C0
6060
6060
C060
C060
C060
C060
C0C0
C0C0
6380
3E00
ENDCHAR
STARTCHAR uni1ED8
ENCODING 7896
SWIDTH 778 0
DWIDTH 18 0
BBX 16 26 1 -3
BITMAP
0040
00C0
0120
0220
0000
03F0
0F1C
1C0E
3806
3007
7007
7007
6007
E007
E007
E006
E00E
E00E
E00C
601C
7038
38F0
0FC0
0000
0300
0300
ENDCHAR
STARTCHAR uni1ED9
ENCODING 7897
SWIDTH 500 0
DWIDTH 13 0
BBX 11 20 1 -3
BITMAP
0200
0600
0900
1100
0000
0F80
38C0
6060
6060
C060
C060
C060
C060
C0C0
C0C0
6380
3E00
0000
0C00
0C00
ENDCHAR
STARTCHAR uni1EDA
ENCODING 7898
SWIDTH 778 0
DWIDTH 18 0
BBX 19 23 1 0
BITMAP
000C00
001800
002000
004000
000000
03F0C0
0F1CE0
1C0E60
380640
300780
700700
700700
600700
E00700
E00700
E00600
E00E00
E00E00
E00C00
601C00
703800
38F000
0FC000
ENDCHAR
STARTCHAR uni1EDB
ENCODING 7899
SWIDTH 500 0
DWIDTH 13 0
BBX 14 17 1 0
BITMAP
0060
00C0
0100
0200
0000
0F98
38DC
606C
6068
C070
C060
C060
C060
C0C0
C0C0
6380
3E00
ENDCHAR
STARTCHAR uni1EDC
ENCODING 7900
SWIDTH 778 0
DWIDTH 18 0
BBX 19 23 1 0
BITMAP
018000
00C000
002000
001000
000000
03F0C0
0F1CE0
1C0E60
380640
300780
700700
700700
600700
E00700
E00700
E00600
E00E00
E00E00
E00C00
601C00
703800
38F000
0FC000
ENDCHAR
STARTCHAR uni1EDD
ENCODING 7901
SWIDTH 500 0
DWIDTH 13 0
BBX 14 17 1 0
BITMAP
0C00
0600
0100
0080
0000
0F98
38DC
606C
6068
C070
C060
C060
C060
C0C0
C0C0
6380
3E00
ENDCHAR
STARTCHAR uni1EE0
ENCODING 7904
SWIDTH 778 0
DWIDTH 18 0
BBX 19 21 1 0
BITMAP
01E400
027800
000000
03F0C0
0F1CE0
1C0E60
380640
300780
700700
700700
600700
E00700
E00700
E00600
E00E00
E00E00
E00C00
601C00
703800
38F000
0FC000
ENDCHAR
STARTCHAR uni1EE1
ENCODING 7905
SWIDTH 500 0
DWIDTH 13 0
BBX 14 15 1 0
BITMAP
0790
09E0
0000
0F98
38DC
606C
6068
C070
C060
C060
C060
C0C0
C0C0
6380
3E00
ENDCHAR
STARTCHAR uni1EE2
ENCODING 7906
SWIDTH 778 0
DWIDTH 18 0
BBX 19 21 1 -3
BITMAP
03F0C0
0F1CE0
1C0E60
380640
300780
700700
700700
600700
E00700
E00700
E00600
E00E00
E00E00
E00C00
601C00
703800
38F000
0FC000
000000
018000
018000
ENDCHAR
STARTCHAR uni1EE3
ENCODING 7907
SWIDTH 500 0
DWIDTH 13 0
BBX 14 15 1 -3
BITMAP
0F98
38DC
606C
6068
C070
C060
C060
C060
C0C0
C0C0
6380
3E00
0000
0600
0600
ENDCHAR
STARTCHAR uni1EE4
ENCODING 7908
SWIDTH 815 0
DWIDTH 19 0
BBX 18 21 1 -3
BITMAP
7E07C0
1C0100
180100
180100
380300
380200
300200
300200
700600
700400
600400
600400
E00C00
E00800
E00800
E01800
707000
3FC000
000000
030000
030000
ENDCHAR
STARTCHAR uni1EE5
ENCODING 7909
SWIDTH 611 0
DWIDTH 15 0
BBX 13 15 1 -3
BITMAP
F030
3030
3030
3030
6060
6060
6060
C0C0
C1C0
C2C8
ECD0
70E0
0000
0600
0600
ENDCHAR
STARTCHAR uni1EE8
ENCODING 7912
SWIDTH 815 0
DWIDTH 19 0
BBX 20 23 1 0
BITMAP
000C00
001800
002000
004000
000000
7E07E0
1C0170
180130
180120
380340
380280
300200
300200
700600
700400
600400
600400
E00C00
E00800
E00800
E01800
707000
3FC000
ENDCHAR
STARTCHAR uni1EE9
ENCODING 7913
SWIDTH 611 0
DWIDTH 15 0
BBX 16 17 1 0
BITMAP
0030
0060
0080
0100
0000
F036
3037
3033
3032
6064
6068
6060
C0C0
C1C0
C2C8
ECD0
70E0
ENDCHAR
STARTCHAR uni1EEA
ENCODING 7914
SWIDTH 815 0
DWIDTH 19 0
BBX 20 23 1 0
BITMAP
018000
00C000
002000
001000
000000
7E07E0
1C0170
180130
180120
380340
380280
300200
300200
700600
700400
600400
600400
E00C00
E00800
E00800
E01800
707000
3FC000
ENDCHAR
STARTCHAR uni1EEB
ENCODING 7915
SWIDTH 611 0
DWIDTH 15 0
BBX 16 17 1 0
BITMAP
0600
0300
0080
0040
0000
F036
3037
3033
3032
6064
6068
6060
C0C0
C1C0
C2C8
ECD0
70E0
ENDCHAR
STARTCHAR uni1EEE
ENCODING 7918
SWIDTH 815 0
DWIDTH 19 0
BBX 20 21 1 0
BITMAP
01E400
027800
000000
7E07E0
1C0170
180130
180120
380340
380280
300200
300200
700600
700400
600400
600400
E00C00
E00800
E00800
E01800
707000
3FC000
ENDCHAR
STARTCHAR uni1EEF
ENCODING 7919
SWIDTH 611 0
DWIDTH 15 0
BBX 16 15 1 0
BITMAP
0790
09E0
0000
F036
3037
3033
3032
6064
6068
6060
C0C0
C1C0
C2C8
ECD0
70E0
ENDCHAR
STARTCHAR uni1EF0
ENCODING 7920
SWIDTH 815 0
DWIDTH 19 0
BBX 20 21 1 -3
BITMAP
7E07E0
1C0170
180130
180120
380340
380280
300200
300200
700600
700400
600400
600400
E00C00
E00800
E00800
E01800
707000
3FC000
000000
030000
030000
ENDCHAR
STARTCHAR uni1EF1
ENCODING 7921
SWIDTH 611 0
DWIDTH 15 0
BBX 16 15 1 -3
BITMAP
F036
3037
3033
3032
6064
6068
6060
C0C0
C1C0
C2C8
ECD0
70E0
0000
0300
0300
ENDCHAR
STARTCHAR Ygrave
ENCODING 7922
SWIDTH 685 0
DWIDTH 17 0
BBX 17 23 1 0
BITMAP
060000
030000
008000
004000
000000
FC1F80
300600
380C00
180800
1C1000
0C3000
0E2000
064000
07C000
038000
030000
030000
070000
070000
060000
060000
060000
1F8000
ENDCHAR
STARTCHAR ygrave
ENCODING 7923
SWIDTH 500 0
DWIDTH 13 0
BBX 13 22 -1 -5
BITMAP
1800
0C00
0200
0100
0000
1818
3C18
4C08
0C10
0610
0620
0620
0340
0340
0380
0100
0100
0200
0200
C400
C800
7000
ENDCHAR
STARTCHAR uni1EF4
ENCODING 7924
SWIDTH 685 0
DWIDTH 17 0
BBX 17 21 1 -3
BITMAP
FC1F80
300600
380C00
180800
1C1000
0C3000
0E2000
064000
07C000
038000
030000
030000
070000
070000
060000
060000
060000
1F8000
000000
030000
030000
ENDCHAR
STARTCHAR uni1EF5
ENCODING 7925
SWIDTH 500 0
DWIDTH 13 0
BBX 13 20 -1 -8
BITMAP
1818
3C18
4C08
0C10
0610
0620
0620
0340
0340
0380
0100
0100
0200
0200
C400
C800
7000
0000
1800
1800
ENDCHAR
STARTCHAR uni1EF8
ENCODING 7928
SWIDTH 685 0
DWIDTH 17 0
BBX 17 21 1 0
BITMAP
079000
09E000
000000
FC1F80
300600
380C00
180800
1C1000
0C3000
0E2000
064000
07C000
038000
030000
030000
070000
070000
060000
060000
060000
1F8000
ENDCHAR
STARTCHAR uni1EF9
ENCODING 7929
SWIDTH 500 0
DWIDTH 13 0
BBX 13 20 -1 -5
BITMAP
0F20
13C0
0000
1818
3C18
4C08
0C10
0610
0620
0620
0340
0340
0380
0100
0100
0200
0200
C400
C800
7000
ENDCHAR
STARTCHAR uni2000
ENCODING 8192
SWIDTH 500 0
DWIDTH 13 0
BBX 1 1 0 0
BITMAP
00
ENDCHAR
STARTCHAR uni2001
ENCODING 8193
SWIDTH 1000 0
DWIDTH 25 0
BBX 1 1 0 0
BITMAP
00
ENDCHAR
STARTCHAR uni2002
ENCODING 8194
SWIDTH 500 0
DWIDTH 13 0
BBX 1 1 0 0
BITMAP
00
ENDCHAR
STARTCHAR uni2003
ENCODING 8195
SWIDTH 1000 0
DWIDTH 25 0
BBX 1 1 0 0
BITMAP
00
ENDCHAR
STARTCHAR uni2004
ENCODING 8196
SWIDTH 333 0
DWIDTH 8 0
BBX 1 1 0 0
BITMAP
00
ENDCHAR
STARTCHAR uni2005
ENCODING 8197
SWIDTH 250 0
DWIDTH 6 0
BBX 1 1 0 0
BITMAP
00
ENDCHAR
STARTCHAR uni2006
ENCODING 8198
SWIDTH 167 0
DWIDTH 4 0
BBX 1 1 0 0
BITMAP
00
ENDCHAR
STARTCHAR uni2007
ENCODING 8199
SWIDTH 556 0
DWIDTH 13 0
BBX 1 1 0 0
BITMAP
00
ENDCHAR
STARTCHAR uni2008
ENCODING 8200
SWIDTH 278 0
DWIDTH 4 0
BBX 1 1 0 0
BITMAP
00
ENDCHAR
STARTCHAR uni2009
ENCODING 8201
SWIDTH 200 0
DWIDTH 5 0
BBX 1 1 0 0
BITMAP
00
ENDCHAR
STARTCHAR uni200A
ENCODING 8202
SWIDTH 100 0
DWIDTH 3 0
BBX 1 1 0 0
BITMAP
00
ENDCHAR
STARTCHAR uni200B
ENCODING 8203
SWIDTH 0 0
DWIDTH 0 0
BBX 1 1 0 0
BITMAP
00
ENDCHAR
STARTCHAR uni2010
ENCODING 8208
SWIDTH 333 0
DWIDTH 7 0
BBX 5 2 1 6
BITMAP
F8
F8
ENDCHAR
STARTCHAR uni2011
ENCODING 8209
SWIDTH 333 0
DWIDTH 7 0
BBX 5 2 1 6
BITMAP
F8
F8
ENDCHAR
STARTCHAR figuredash
ENCODING 8210
SWIDTH 500 0
DWIDTH 13 0
BBX 11 1 1 7
BITMAP
FFE0
ENDCHAR
STARTCHAR endash
ENCODING 8211
SWIDTH 500 0
DWIDTH 13 0
BBX 11 1 1 7
BITMAP
FFE0
ENDCHAR
STARTCHAR emdash
ENCODING 8212
SWIDTH 1000 0
DWIDTH 25 0
BBX 23 1 1 7
BITMAP
FFFFFE
ENDCHAR
STARTCHAR afii00208
ENCODING 8213
SWIDTH 1000 0
DWIDTH 25 0
BBX 23 1 1 7
BITMAP
FFFFFE
ENDCHAR
STARTCHAR quoteleft
ENCODING 8216
SWIDTH 204 0
DWIDTH 6 0
BBX 4 6 2 12
BITMAP
10
20
40
C0
E0
60
ENDCHAR
STARTCHAR quoteright
ENCODING 8217
SWIDTH 204 0
DWIDTH 6 0
BBX 4 6 1 12
BITMAP
60
70
30
20
40
80
ENDCHAR
STARTCHAR quotesinglbase
ENCODING 8218
SWIDTH 204 0
DWIDTH 6 0
BBX 4 6 1 -3
BITMAP
60
70
30
20
40
80
ENDCHAR
STARTCHAR quotereversed
ENCODING 8219
SWIDTH 204 0
DWIDTH 6 0
BBX 4 6 1 12
BITMAP
60
E0
C0
40
20
10
ENDCHAR
STARTCHAR quotedblleft
ENCODING 8220
SWIDTH 389 0
DWIDTH 10 0
BBX 8 6 1 12
BITMAP
11
22
44
CC
EE
66
ENDCHAR
STARTCHAR quotedblright
ENCODING 8221
SWIDTH 389 0
DWIDTH 10 0
BBX 8 6 1 12
BITMAP
66
77
33
22
44
88
ENDCHAR
STARTCHAR quotedblbase
ENCODING 8222
SWIDTH 389 0
DWIDTH 10 0
BBX 8 6 1 -3
BITMAP
66
77
33
22
44
88
ENDCHAR
STARTCHAR uni201F
ENCODING 8223
SWIDTH 389 0
DWIDTH 10 0
BBX 8 6 1 12
BITMAP
66
EE
CC
44
22
11
ENDCHAR
STARTCHAR dagger
ENCODING 8224
SWIDTH 500 0
DWIDTH 12 0
BBX 10 21 1 -3
BITMAP
0E00
0E00
0400
0400
C4C0
FFC0
C8C0
0800
0800
1800
3C00
1800
1000
1000
1000
3000
2000
2000
2000
2000
2000
ENDCHAR
STARTCHAR daggerdbl
ENCODING 8225
SWIDTH 500 0
DWIDTH 14 0
BBX 12 21 1 -3
BITMAP
0380
0380
0100
0100
3130
3FF0
3230
0200
0200
0600
0F00
0600
0400
0400
C4C0
FFC0
C8C0
0800
0800
1C00
1C00
ENDCHAR
STARTCHAR bullet
ENCODING 8226
SWIDTH 606 0
DWIDTH 15 0
BBX 7 7 4 4
BITMAP
7C
FE
FE
FE
FE
FE
7C
ENDCHAR
STARTCHAR ellipsis
ENCODING 8230
SWIDTH 1000 0
DWIDTH 25 0
BBX 18 3 1 0
BITMAP
C0C0C0
C0C0C0
C0C0C0
ENDCHAR
STARTCHAR perthousand
ENCODING 8240
SWIDTH 1000 0
DWIDTH 28 0
BBX 26 19 1 -1
BITMAP
0E380000
31C80000
61180000
61100000
C1300000
C2200000
C2600000
44400000
38C00000
00870380
01988C40
01309840
03309840
0260B040
06613080
04613080
0C221100
081C0E00
08000000
ENDCHAR
STARTCHAR guilsinglleft
ENCODING 8249
SWIDTH 333 0
DWIDTH 7 0
BBX 5 6 1 3
BITMAP
18
30
60
C0
60
30
ENDCHAR
STARTCHAR guilsinglright
ENCODING 8250
SWIDTH 333 0
DWIDTH 7 0
BBX 5 6 1 3
BITMAP
60
30
18
30
60
C0
ENDCHAR
STARTCHAR fraction
ENCODING 8260
SWIDTH 167 0
DWIDTH 3 0
BBX 9 19 -3 -1
BITMAP
0080
0080
0180
0100
0300
0200
0600
0400
0C00
0800
1800
1000
3000
2000
6000
4000
C000
8000
8000
ENDCHAR
STARTCHAR oneinferior
ENCODING 8321
SWIDTH 333 0
DWIDTH 8 0
BBX 6 11 1 -5
BITMAP
04
3C
0C
0C
18
18
18
30
30
30
FC
ENDCHAR
STARTCHAR twoinferior
ENCODING 8322
SWIDTH 333 0
DWIDTH 8 0
BBX 8 11 0 -5
BITMAP
3E
63
63
03
06
0C
18
30
60
C3
FE
ENDCHAR
STARTCHAR threeinferior
ENCODING 8323
SWIDTH 333 0
DWIDTH 8 0
BBX 8 11 0 -5
BITMAP
3E
63
63
03
06
1C
06
06
C6
CC
78
ENDCHAR
STARTCHAR uni20A5
ENCODING 8357
SWIDTH 889 0
DWIDTH 23 0
BBX 21 19 1 -3
BITMAP
000600
000400
000400
000C00
F0E8E0
337B70
343C30
383830
603030
607060
606060
606060
C0E0C0
C0C0C8
C0C0C8
C0C070
008000
008000
018000
ENDCHAR
STARTCHAR uni20A6
ENCODING 8358
SWIDTH 815 0
DWIDTH 21 0
BBX 21 18 0 0
BITMAP
1E01F8
070060
070040
078040
058040
05C0C0
0FFF80
08E080
087080
083180
1FFF80
101900
101D00
100F00
300E00
200600
300600
FC0200
ENDCHAR
STARTCHAR uni20A9
ENCODING 8361
SWIDTH 926 0
DWIDTH 24 0
BBX 23 18 1 0
BITMAP
FC7E3E
70180C
301808
303808
383C18
382C10
1FFFF0
184C20
184C20
1CCE60
1FFFC0
0C8640
0D86C0
0D0680
0D0680
0E0700
060300
040200
ENDCHAR
STARTCHAR Euro
ENCODING 8364
SWIDTH 722 0
DWIDTH 18 0
BBX 19 18 -2 0
BITMAP
007F20
01E1E0
0380E0
070040
060040
0E0040
FFF800
0C0000
1C0000
1C0000
FFF800
1C0000
1C0080
1C0080
0C0100
0E0100
070600
01F800
ENDCHAR
STARTCHAR uni20AD
ENCODING 8365
SWIDTH 741 0
DWIDTH 19 0
BBX 18 18 1 0
BITMAP
1F8FC0
070300
060600
060C00
0E1800
0E3000
0C6000
0CC000
FFFFC0
1FE000
1C6000
187000
383000
383800
301800
301C00
700C00
FC1F00
ENDCHAR
STARTCHAR uni2103
ENCODING 8451
SWIDTH 1102 0
DWIDTH 27 0
BBX 25 18 1 0
BITMAP
3C01FC80
66078780
C30E0380
C31C0100
C3180100
66380100
3C380000
00300000
00700000
00700000
00700000
00700000
00700200
00700200
00300400
00380400
001C1800
0007E000
ENDCHAR
STARTCHAR uni2109
ENCODING 8457
SWIDTH 1047 0
DWIDTH 25 0
BBX 24 18 1 0
BITMAP
3C1FFF
660703
C30602
C30602
C30E02
660E10
3C0C10
000C20
001FE0
001C60
001820
001820
003800
003800
003000
003000
007000
00FC00
ENDCHAR
STARTCHAR trademark
ENCODING 8482
SWIDTH 950 0
DWIDTH 26 0
BBX 24 10 1 8
BITMAP
FFDC07
8C4C06
8C4E0E
0C0E0E
0C0B16
0C0B16
0C09A6
0C09A6
0C08C6
1E1CCF
ENDCHAR
STARTCHAR uni212A
ENCODING 8490
SWIDTH 741 0
DWIDTH 19 0
BBX 18 18 1 0
BITMAP
1F8FC0
070300
060600
060C00
0E1800
0E3000
0C6000
0CC000
1DC000
1FE000
1C6000
187000
383000
383800
301800
301C00
700C00
FC1F00
ENDCHAR
STARTCHAR uni212B
ENCODING 8491
SWIDTH 704 0
DWIDTH 18 0
BBX 18 23 -1 0
BITMAP
003800
004400
004400
004400
003800
003000
003000
007800
005800
00D800
009800
019C00
011C00
030C00
020C00
060E00
07FE00
0C0600
080600
180700
100300
300300
FC0FC0
ENDCHAR
STARTCHAR uni2132
ENCODING 8498
SWIDTH 667 0
DWIDTH 16 0
BBX 16 18 0 0
BITMAP
003F
000E
000C
000C
001C
001C
0418
0418
0638
07F8
0430
0830
0870
4070
4060
4060
C0E0
FFF8
ENDCHAR
STARTCHAR minus
ENCODING 8722
SWIDTH 606 0
DWIDTH 14 0
BBX 12 1 1 7
BITMAP
FFF0
ENDCHAR
STARTCHAR fraction
ENCODING 8725
SWIDTH 167 0
DWIDTH 3 0
BBX 9 19 -3 -1
BITMAP
0080
0080
0180
0100
0300
0200
0600
0400
0C00
0800
1800
1000
3000
2000
6000
4000
C000
8000
8000
ENDCHAR
STARTCHAR periodcentered
ENCODING 8729
SWIDTH 278 0
DWIDTH 7 0
BBX 3 3 2 6
BITMAP
E0
E0
E0
ENDCHAR
STARTCHAR uni2236
ENCODING 8758
SWIDTH 278 0
DWIDTH 5 0
BBX 4 12 0 0
BITMAP
30
30
30
00
00
00
00
00
00
C0
C0
C0
ENDCHAR
STARTCHAR uni2259
ENCODING 8793
SWIDTH 606 0
DWIDTH 15 0
BBX 13 10 1 4
BITMAP
0100
0300
0480
0880
0000
FFF8
0000
0000
0000
FFF8
ENDCHAR
STARTCHAR uni225A
ENCODING 8794
SWIDTH 606 0
DWIDTH 15 0
BBX 13 10 1 4
BITMAP
0880
0900
0600
0400
0000
FFF8
0000
0000
0000
FFF8
ENDCHAR
STARTCHAR notequal
ENCODING 8800
SWIDTH 606 0
DWIDTH 15 0
BBX 13 19 1 -3
BITMAP
0060
0040
0040
00C0
0080
0080
0180
FFF8
0100
0300
0200
FFF8
0600
0400
0400
0C00
0800
0800
1800
ENDCHAR
STARTCHAR equivalence
ENCODING 8801
SWIDTH 606 0
DWIDTH 15 0
BBX 13 5 0 5
BITMAP
FFF8
0000
FFF8
0000
FFF8
ENDCHAR
STARTCHAR uni2262
ENCODING 8802
SWIDTH 606 0
DWIDTH 15 0
BBX 13 19 0 -2
BITMAP
0060
0040
0040
00C0
0080
0080
0180
FFF8
0100
FFF8
0200
FFF8
0600
0400
0400
0C00
0800
0800
1800
ENDCHAR
STARTCHAR lessequal
ENCODING 8804
SWIDTH 606 0
DWIDTH 14 0
BBX 12 13 1 0
BITMAP
0030
00E0
0380
0E00
3800
E000
3800
0E00
0380
00E0
0030
0000
FFF0
ENDCHAR
STARTCHAR greaterequal
ENCODING 8805
SWIDTH 606 0
DWIDTH 14 0
BBX 12 13 1 0
BITMAP
C000
7000
1C00
0700
01C0
0070
01C0
0700
1C00
7000
C000
0000
FFF0
ENDCHAR
STARTCHAR uni226E
ENCODING 8814
SWIDTH 606 0
DWIDTH 14 0
BBX 12 19 1 -2
BITMAP
00C0
0080
0080
0180
0130
01E0
0380
0E00
3A00
E600
3C00
0E00
0F80
08E0
0830
1800
1000
1000
3000
ENDCHAR
STARTCHAR uni226F
ENCODING 8815
SWIDTH 606 0
DWIDTH 14 0
BBX 12 19 1 -2
BITMAP
00C0
0080
0080
0180
C100
7100
1F00
0700
03C0
0670
05C0
0700
1C00
7800
C800
1800
1000
1000
3000
ENDCHAR
STARTCHAR uni2270
ENCODING 8816
SWIDTH 606 0
DWIDTH 14 0
BBX 12 19 1 -3
BITMAP
00C0
0080
0080
01B0
01E0
0380
0F00
3A00
E200
3E00
0E00
0780
0CE0
0830
0800
FFF0
1000
1000
3000
ENDCHAR
STARTCHAR uni2271
ENCODING 8817
SWIDTH 606 0
DWIDTH 14 0
BBX 12 19 1 -3
BITMAP
00C0
0080
0080
C180
7100
1D00
0700
03C0
0270
07C0
0700
1C00
7C00
C800
0800
FFF0
1000
1000
3000
ENDCHAR
STARTCHAR fi
ENCODING -1
SWIDTH 611 0
DWIDTH 15 0
BBX 13 23 0 -5
BITMAP
01E0
0630
0630
0C00
0C00
0C00
7FF0
1830
1830
1830
1860
3060
3060
3060
30C0
60C8
60D0
60E0
6000
C000
C000
C000
C000
ENDCHAR
STARTCHAR fl
ENCODING -1
SWIDTH 611 0
DWIDTH 14 0
BBX 13 23 0 -5
BITMAP
01F8
0618
0618
0C18
0C30
0C30
7FB0
1830
1830
1860
1860
3060
3060
30C0
30C0
60C8
60D0
60E0
6000
C000
C000
C000
C000
ENDCHAR
ENDFONT
